<svg width="62" height="62" viewBox="0 0 62 62" fill="none" xmlns="http://www.w3.org/2000/svg">
<path fill-rule="evenodd" clip-rule="evenodd" d="M31.0001 5.16663C16.7401 5.16663 5.16675 16.74 5.16675 31C5.16675 45.26 16.7401 56.8333 31.0001 56.8333C45.2601 56.8333 56.8334 45.26 56.8334 31C56.8334 16.74 45.2601 5.16663 31.0001 5.16663ZM42.7284 40.9458L40.9459 42.7283C39.9384 43.7358 38.3109 43.7358 37.3034 42.7283L29.4242 34.8491C26.2726 35.96 22.6042 35.2883 20.0726 32.7566C17.2051 29.8891 16.7142 25.5491 18.5484 22.165L24.6192 28.2358L28.2617 24.5933L22.1651 18.5225C25.5751 16.6883 29.8892 17.1791 32.7567 20.0466C35.2884 22.5783 35.9601 26.2466 34.8492 29.3983L42.7284 37.2775C43.7359 38.285 43.7359 39.9383 42.7284 40.9458Z" fill="url(#paint0_linear_869_5468)"/>
<defs>
<linearGradient id="paint0_linear_869_5468" x1="56.8334" y1="56.9588" x2="5.16675" y2="5.29214" gradientUnits="userSpaceOnUse">
<stop offset="0.275366" stop-color="#0175B2"/>
<stop offset="0.956923" stop-color="#0175B2" stop-opacity="0.3"/>
</linearGradient>
</defs>
</svg>
