<svg width="62" height="62" viewBox="0 0 62 62" fill="none" xmlns="http://www.w3.org/2000/svg">
<path d="M51.6667 43.9166C53.0369 43.9166 54.3511 43.3723 55.32 42.4033C56.289 41.4344 56.8333 40.1202 56.8333 38.75V10.3333C56.8333 8.96301 56.289 7.64885 55.32 6.67991C54.3511 5.71097 53.0369 5.16663 51.6667 5.16663H24.4383C25.3425 6.74246 25.8333 8.52496 25.8333 10.3333H51.6667V38.75H28.4167V43.9166H51.6667ZM38.75 18.0833V23.25H23.25V56.8333H18.0833V41.3333H12.9167V56.8333H7.75V36.1666H3.875V23.25C3.875 21.8797 4.41934 20.5655 5.38828 19.5966C6.35722 18.6276 7.67138 18.0833 9.04167 18.0833H38.75ZM20.6667 10.3333C20.6667 11.7036 20.1223 13.0177 19.1534 13.9867C18.1844 14.9556 16.8703 15.5 15.5 15.5C14.1297 15.5 12.8156 14.9556 11.8466 13.9867C10.8777 13.0177 10.3333 11.7036 10.3333 10.3333C10.3333 8.96301 10.8777 7.64885 11.8466 6.67991C12.8156 5.71097 14.1297 5.16663 15.5 5.16663C16.8703 5.16663 18.1844 5.71097 19.1534 6.67991C20.1223 7.64885 20.6667 8.96301 20.6667 10.3333Z" fill="url(#paint0_linear_869_5448)"/>
<defs>
<linearGradient id="paint0_linear_869_5448" x1="56.8333" y1="56.9588" x2="5.18242" y2="4.01661" gradientUnits="userSpaceOnUse">
<stop offset="0.275366" stop-color="#0175B2"/>
<stop offset="0.956923" stop-color="#0175B2" stop-opacity="0.3"/>
</linearGradient>
</defs>
</svg>
