<svg width="62" height="62" viewBox="0 0 62 62" fill="none" xmlns="http://www.w3.org/2000/svg">
<path d="M19.375 5.16663C20.7453 5.16663 22.0594 5.71097 23.0284 6.67991C23.9973 7.64885 24.5417 8.96301 24.5417 10.3333C24.5417 11.7036 23.9973 13.0177 23.0284 13.9867C22.0594 14.9556 20.7453 15.5 19.375 15.5C18.0047 15.5 16.6906 14.9556 15.7216 13.9867C14.7527 13.0177 14.2083 11.7036 14.2083 10.3333C14.2083 8.96301 14.7527 7.64885 15.7216 6.67991C16.6906 5.71097 18.0047 5.16663 19.375 5.16663ZM15.5 56.8333V41.3333H7.75L14.4667 21.7C15.2417 19.6333 17.05 18.0833 19.375 18.0833C21.7 18.0833 23.7667 19.6333 24.2833 21.7L31 41.3333H23.25V56.8333H15.5ZM37.4583 31C37.4583 29.6297 38.0027 28.3155 38.9716 27.3466C39.9406 26.3776 41.2547 25.8333 42.625 25.8333C43.9953 25.8333 45.3094 26.3776 46.2784 27.3466C47.2473 28.3155 47.7917 29.6297 47.7917 31C47.7917 32.3702 47.2473 33.6844 46.2784 34.6533C45.3094 35.6223 43.9953 36.1666 42.625 36.1666C41.2547 36.1666 39.9406 35.6223 38.9716 34.6533C38.0027 33.6844 37.4583 32.3702 37.4583 31ZM34.875 38.75H50.375V49.0833H46.5V56.8333H38.75V49.0833H34.875V38.75Z" fill="url(#paint0_linear_869_5451)"/>
<defs>
<linearGradient id="paint0_linear_869_5451" x1="50.375" y1="56.9588" x2="-0.350175" y2="15.1105" gradientUnits="userSpaceOnUse">
<stop offset="0.275366" stop-color="#0175B2"/>
<stop offset="0.956923" stop-color="#0175B2" stop-opacity="0.3"/>
</linearGradient>
</defs>
</svg>
