<svg width="251" height="55" viewBox="0 0 251 55" fill="none" xmlns="http://www.w3.org/2000/svg">
<path fill-rule="evenodd" clip-rule="evenodd" d="M24.3736 5.21084C23.1072 5.36026 22.0002 4.55898 21.8057 2.89676C21.6138 1.25752 22.5223 0.164091 23.8039 0.0128719C24.4142 -0.0591374 24.945 0.181094 25.2973 0.481229L24.8736 1.09035C24.5846 0.868179 24.2835 0.740624 23.9021 0.78563C23.0858 0.881942 22.5791 1.64065 22.7108 2.76667C22.8444 3.908 23.4667 4.53349 24.2983 4.43538C24.7407 4.38317 25.0473 4.16063 25.2928 3.81327L25.8447 4.29952C25.495 4.81448 25.0067 5.13613 24.3736 5.21084ZM13.5009 9.32324L14.2179 8.87449L13.056 7.00248C12.8178 6.61879 12.5261 6.23345 12.255 5.87534C12.1885 5.78749 12.1232 5.70127 12.0603 5.61712L12.0864 5.60081L13.0944 6.23323L15.9128 7.81383L16.6886 7.32837L14.0315 3.04763L13.3144 3.49637L14.4682 5.35529C14.7181 5.75774 15.0383 6.18058 15.3191 6.55138L15.3192 6.55141L15.3192 6.55142L15.3192 6.55146C15.3718 6.62087 15.423 6.68845 15.4721 6.75374L15.446 6.77006L14.438 6.13764L11.6195 4.55703L10.8438 5.04249L13.5009 9.32324ZM8.23911 10.7455L8.57848 11.2896L9.43521 10.331L8.85986 10.0509C8.36278 9.81029 7.8314 9.53876 7.32231 9.27695L7.30179 9.29991C7.62679 9.77927 7.95237 10.2695 8.23911 10.7455ZM11.9934 10.5634L11.3624 11.2694L10.0888 10.6505L8.96534 11.9076L9.71562 13.1121L9.10513 13.7952L6.46406 9.19796L7.16176 8.41727L11.9934 10.5634ZM6.11185 19.5496L6.45532 18.8083L4.37296 17.8355C4.03045 17.6755 3.55128 17.5014 3.15097 17.356C3.05476 17.321 2.96311 17.2877 2.879 17.2567L2.89196 17.2287L4.09815 17.3498L6.53273 17.526L6.70447 17.1553L5.00219 15.3988L4.13623 14.5434L4.1492 14.5155L4.20277 14.5474C4.59805 14.7828 5.14304 15.1074 5.54919 15.2971L7.63154 16.2699L7.98473 15.5077L3.43002 13.3799L3.01526 14.275L4.88516 16.1268L5.60942 16.8309L5.59645 16.8589L4.59354 16.7561L1.96865 16.5337L1.55713 17.4217L6.11185 19.5496ZM18.6135 16.0646C18.64 15.9306 18.6532 15.7942 18.6532 15.6578C18.6532 15.5215 18.64 15.3851 18.6135 15.2511C18.5871 15.1171 18.5474 14.9868 18.4957 14.8601C18.4428 14.7345 18.3791 14.6139 18.3034 14.5004C18.2277 14.387 18.1411 14.2819 18.045 14.1842C17.9488 14.0876 17.8442 14.0019 17.7301 13.9259C17.6171 13.8499 17.4981 13.7859 17.3719 13.7328C17.2456 13.6809 17.1158 13.6411 16.9824 13.6145C16.849 13.588 16.7132 13.5747 16.5773 13.5747C16.4415 13.5747 16.3057 13.588 16.1723 13.6145C16.0388 13.6411 15.909 13.6809 15.7828 13.7328C15.6566 13.7859 15.5376 13.8499 15.4246 13.9259C15.3104 14.0019 15.2058 14.0876 15.1097 14.1842C15.0135 14.2819 14.927 14.387 14.8512 14.5004C14.7755 14.6139 14.7118 14.7345 14.6601 14.8601C14.6072 14.9868 14.5676 15.1171 14.5411 15.2511C14.5147 15.3851 14.5015 15.5215 14.5015 15.6578C14.5015 15.7942 14.5147 15.9306 14.5411 16.0646C14.5676 16.1985 14.6072 16.3289 14.6601 16.4556C14.7118 16.5811 14.7755 16.7018 14.8512 16.8153C14.927 16.9287 15.0135 17.0337 15.1097 17.1315C15.2058 17.228 15.3104 17.3137 15.4246 17.3898C15.5376 17.4658 15.6566 17.5298 15.7828 17.5829C15.909 17.6348 16.0388 17.6746 16.1723 17.7011C16.3057 17.7277 16.4415 17.741 16.5773 17.741C16.7132 17.741 16.849 17.7277 16.9824 17.7011C17.1158 17.6746 17.2456 17.6348 17.3719 17.5829C17.4981 17.5298 17.6171 17.4658 17.7301 17.3898C17.8442 17.3137 17.9488 17.228 18.045 17.1315C18.1411 17.0337 18.2277 16.9287 18.3034 16.8153C18.3791 16.7018 18.4428 16.5811 18.4957 16.4556C18.5474 16.3289 18.5871 16.1985 18.6135 16.0646ZM15.3582 25.4234C15.6647 30.2897 20.1013 35.045 24.699 38.3689C19.9318 36.5138 16.1491 33.4832 13.7956 28.7413C9.26402 17.3854 26.3602 15.1019 24.2963 27.0105C23.1592 19.2525 15.0012 19.7944 15.3582 25.4234ZM24.6992 38.3689C30.333 35.4795 36.9332 30.2897 37.2398 25.4234C37.5968 19.7944 29.4375 19.2525 28.3028 27.0105C26.2378 15.1019 43.3327 17.3854 38.8012 28.7413C36.4488 33.4832 30.1575 37.2947 24.6992 38.3689ZM38.0562 16.0646C38.0838 15.9306 38.097 15.7942 38.097 15.6578C38.097 15.5215 38.0838 15.3851 38.0562 15.2511C38.0297 15.1171 37.9913 14.9868 37.9384 14.8601C37.8867 14.7345 37.823 14.6139 37.7473 14.5004C37.6715 14.387 37.585 14.2819 37.4888 14.1842C37.3927 14.0876 37.2869 14.0019 37.1739 13.9259C37.0609 13.8499 36.9407 13.7859 36.8157 13.7328C36.6895 13.6809 36.5597 13.6411 36.4263 13.6145C36.2916 13.588 36.157 13.5747 36.0212 13.5747C35.8842 13.5747 35.7495 13.588 35.6161 13.6145C35.4827 13.6411 35.3529 13.6809 35.2267 13.7328C35.1004 13.7859 34.9814 13.8499 34.8673 13.9259C34.7543 14.0019 34.6497 14.0876 34.5535 14.1842C34.4562 14.2819 34.3708 14.387 34.2951 14.5004C34.2194 14.6139 34.1557 14.7345 34.1028 14.8601C34.0511 14.9868 34.0114 15.1171 33.985 15.2511C33.9585 15.3851 33.9453 15.5215 33.9453 15.6578C33.9453 15.7942 33.9585 15.9306 33.985 16.0646C34.0114 16.1985 34.0511 16.3289 34.1028 16.4556C34.1557 16.5811 34.2194 16.7018 34.2951 16.8153C34.3708 16.9287 34.4562 17.0337 34.5535 17.1315C34.6497 17.228 34.7543 17.3137 34.8673 17.3898C34.9814 17.4658 35.1004 17.5298 35.2267 17.5829C35.3529 17.6348 35.4827 17.6746 35.6161 17.7011C35.7495 17.7277 35.8842 17.741 36.0212 17.741C36.157 17.741 36.2916 17.7277 36.4263 17.7011C36.5597 17.6746 36.6895 17.6348 36.8157 17.5829C36.9407 17.5298 37.0609 17.4658 37.1739 17.3898C37.2869 17.3137 37.3927 17.228 37.4888 17.1315C37.585 17.0337 37.6715 16.9287 37.7473 16.8153C37.823 16.7018 37.8867 16.5811 37.9384 16.4556C37.9913 16.3289 38.0297 16.1985 38.0562 16.0646ZM5.79883 32.4475L5.63598 31.5679L3.44592 31.9767L3.07531 29.9748L5.26537 29.566L5.10253 28.6864L0.16357 29.6083L0.326413 30.4879L2.31257 30.1172L2.68318 32.119L0.69702 32.4897L0.859863 33.3693L5.79883 32.4475ZM5.30635 24.1105C5.16789 25.2746 4.43887 25.9405 2.79908 25.7435L0 25.4073L0.105668 24.519L2.97339 24.8634C4.05642 24.9935 4.46407 24.623 4.53604 24.018C4.60891 23.4053 4.30054 22.9411 3.21752 22.811L0.349796 22.4665L0.45182 21.6088L3.2509 21.945C4.89069 22.142 5.4439 22.9541 5.30635 24.1105ZM30.1585 5.41491C31.445 5.63934 32.509 4.80728 32.7877 3.19632C33.0651 1.59296 32.3365 0.487322 31.0499 0.26289C29.7558 0.0371377 28.6984 0.831212 28.421 2.43457C28.1423 4.04553 28.8644 5.18916 30.1585 5.41491ZM30.2913 4.64743C29.5118 4.51145 29.1283 3.7087 29.3216 2.59167C29.5136 1.48224 30.1376 0.894395 30.9171 1.03037C31.6891 1.16503 32.0791 1.92978 31.8871 3.03922C31.6938 4.15625 31.0632 4.78209 30.2913 4.64743ZM37.9242 3.35132L37.2913 3.03567L36.5634 4.50696L37.1963 4.82262C37.8155 5.13141 38.2755 5.03361 38.5284 4.52245C38.7847 4.00439 38.5433 3.66011 37.9242 3.35132ZM37.7793 5.75926L37.9197 8.18025L37.0254 7.73422L36.9301 5.48212L36.2491 5.14246L35.3743 6.91078L34.5763 6.51278L36.811 1.99527L38.3245 2.75009C39.2601 3.21671 39.8184 3.90852 39.3195 4.91702C38.9778 5.60777 38.4151 5.84381 37.7793 5.75926ZM43.2523 6.85585L43.776 7.33233C44.2882 7.79845 44.4273 8.19564 44.0405 8.62427C43.6588 9.04719 43.1896 9.01577 42.6773 8.54965L42.1537 8.07317L43.2523 6.85585ZM42.4647 11.9783L42.9849 9.61013C43.5738 9.86497 44.1793 9.79138 44.6951 9.21987C45.4481 8.38547 45.0981 7.56734 44.324 6.86298L43.0718 5.72357L39.6984 9.46124L40.3587 10.062L41.6791 8.59896L42.2426 9.11169L41.7247 11.305L42.4647 11.9783ZM44.3203 14.5018L43.8067 13.7708L47.9116 10.8631L48.4253 11.5942L44.3203 14.5018ZM45.7079 16.7184L46.2301 18.0038C46.793 19.3892 47.9419 19.9099 49.4853 19.2778C51.0215 18.6485 51.4444 17.4841 50.8642 16.0558L50.3594 14.8132L45.7079 16.7184ZM46.713 17.2729L50.0274 15.9154L50.1724 16.2725C50.5554 17.2152 50.278 17.9618 49.14 18.4279C47.9949 18.8969 47.241 18.5727 46.8581 17.63L46.713 17.2729ZM50.6212 26.5367C48.9996 26.686 47.9224 25.8712 47.8032 24.5656C47.6832 23.2522 48.5949 22.2544 50.2165 22.1051C51.8305 21.9565 52.8694 22.7747 52.9893 24.0881C53.1086 25.3938 52.2352 26.3881 50.6212 26.5367ZM50.3 23.019C49.1755 23.1226 48.5035 23.7033 48.5757 24.4944C48.6473 25.2778 49.4133 25.7262 50.5377 25.6227C51.6545 25.5199 52.2883 24.9426 52.2168 24.1592C52.1445 23.3681 51.4167 22.9162 50.3 23.019ZM51.9494 30.8614L51.8107 31.5571C51.675 32.2378 51.4068 32.5614 50.8419 32.4479C50.2845 32.3359 50.0707 31.9153 50.2064 31.2347L50.3451 30.5389L51.9494 30.8614ZM47.1661 32.8103L49.4575 32.0438C49.5418 32.6821 49.9153 33.1662 50.6685 33.3176C51.7682 33.5386 52.288 32.8172 52.493 31.7887L52.8247 30.1249L47.8988 29.1349L47.724 30.0121L49.6521 30.3997L49.5029 31.1484L47.3621 31.8272L47.1661 32.8103ZM29.1193 46.2963C25.7006 50.9029 28.126 55 28.126 55C30.2867 51.7696 33.2162 50.7785 36.4444 49.6863C38.9186 48.8492 41.5682 47.9528 44.1818 45.9434C47.903 43.0818 50.4876 38.4019 50.4876 38.4019C49.3609 37.9577 48.5983 38.779 47.4143 40.0541C46.4885 41.0512 45.305 42.3257 43.4884 43.4895C39.0612 46.3271 36.0578 44.9843 36.0578 44.9843C36.5575 44.5237 37.1798 44.222 37.9042 43.8708C38.2159 43.7197 38.5464 43.5594 38.8943 43.3734C40.2874 42.6288 41.7543 41.0635 41.4182 39.651C40.5124 40.4212 39.0333 40.9003 37.3582 41.4428C34.5759 42.344 31.2531 43.4202 29.1193 46.2963ZM24.9942 54.998C24.9942 54.998 27.4195 50.901 24.0008 46.2943C21.867 43.4182 18.5442 42.342 15.7619 41.4409C14.0868 40.8983 12.6077 40.4193 11.7019 39.6491C11.3659 41.0616 12.8328 42.6269 14.2258 43.3714C14.5736 43.5574 14.9042 43.7177 15.2158 43.8687L15.2159 43.8688C15.9403 44.22 16.5627 44.5217 17.0623 44.9823C17.0623 44.9823 14.0589 46.3251 9.63171 43.4876C7.81513 42.3237 6.63166 41.0492 5.70583 40.0521C4.52185 38.777 3.75919 37.9557 2.63255 38.3999C2.63255 38.3999 5.21713 43.0799 8.93836 45.9414C11.5519 47.9508 14.2015 48.8473 16.6757 49.6843C19.9039 50.7765 22.8334 51.7676 24.9942 54.998ZM204.185 27.6851C204.185 31.7127 206.163 34 209.218 34C210.645 34 211.947 33.2044 212.899 32.2845H212.974L213.149 33.7017H214.852V16H212.774V20.6492L212.874 22.7127C211.797 21.8425 210.871 21.3204 209.469 21.3204C206.689 21.3204 204.185 23.7569 204.185 27.6851ZM206.314 27.6602C206.314 24.9006 207.866 23.0359 209.819 23.0359C210.821 23.0359 211.747 23.384 212.774 24.3039V30.6188C211.772 31.7376 210.796 32.2845 209.669 32.2845C207.541 32.2845 206.314 30.5442 206.314 27.6602ZM201.128 17.8149C201.128 18.5856 200.502 19.1326 199.701 19.1326C198.9 19.1326 198.274 18.5856 198.274 17.8149C198.274 17.0193 198.9 16.4972 199.701 16.4972C200.502 16.4972 201.128 17.0193 201.128 17.8149ZM200.703 33.7017H198.65V21.6188H200.703V33.7017ZM158.92 34C154.788 34 151.708 30.8674 151.708 25.547C151.708 20.3011 154.838 17.0939 159.045 17.0939C160.998 17.0939 162.55 18.0387 163.527 19.1077L162.35 20.4254C161.473 19.5055 160.422 18.9088 159.07 18.9088C155.94 18.9088 153.862 21.4448 153.862 25.4972C153.862 29.5994 155.84 32.1851 158.97 32.1851C160.522 32.1851 161.674 31.5387 162.725 30.3702L163.902 31.6381C162.625 33.1298 160.998 34 158.92 34ZM71.1032 33.7017H69V17.3923H71.1032V24.2293H78.74V17.3923H80.8182V33.7017H78.74V26.0193H71.1032V33.7017ZM88.8921 34C86.3131 34 85.1614 32.3591 85.1614 29.2762V21.6188H87.2396V29.0028C87.2396 31.2652 87.9156 32.2348 89.5181 32.2348C90.77 32.2348 91.6464 31.6133 92.7981 30.1961V21.6188H94.8513V33.7017H93.1487L92.9734 31.8122H92.8983C91.7715 33.1298 90.5697 34 88.8921 34ZM99.2066 33.7017H101.26V24.9503C102.387 23.7072 103.413 23.0856 104.314 23.0856C105.867 23.0856 106.593 24.0552 106.593 26.3177V33.7017H108.646V24.9503C109.773 23.7072 110.749 23.0856 111.701 23.0856C113.228 23.0856 113.954 24.0552 113.954 26.3177V33.7017H116.007V26.0442C116.007 22.9613 114.806 21.3204 112.302 21.3204C110.824 21.3204 109.573 22.2652 108.296 23.6326C107.795 22.1906 106.793 21.3204 104.94 21.3204C103.488 21.3204 102.211 22.2155 101.16 23.3591H101.085L100.909 21.6188H99.2066V33.7017ZM123.196 34C121.143 34 119.616 32.732 119.616 30.5691C119.616 27.9337 121.919 26.616 127.102 26.0442C127.102 24.5028 126.576 23.0111 124.598 23.0111C123.171 23.0111 121.919 23.6575 120.968 24.3039L120.141 22.8867C121.268 22.1657 122.971 21.3204 124.924 21.3204C127.903 21.3204 129.155 23.2845 129.155 26.2928V33.7017H127.453L127.277 32.2597H127.227C126.05 33.2044 124.698 34 123.196 34ZM127.102 27.3867C123.021 27.884 121.644 28.8785 121.644 30.4199C121.644 31.7873 122.57 32.3591 123.772 32.3591C124.949 32.3591 125.925 31.7873 127.102 30.7431V27.3867ZM133.28 33.7017H135.333V24.9503C136.56 23.732 137.411 23.0856 138.663 23.0856C140.265 23.0856 140.966 24.0552 140.966 26.3177V33.7017H143.02V26.0442C143.02 22.9613 141.868 21.3204 139.314 21.3204C137.636 21.3204 136.384 22.2155 135.233 23.3591H135.157L134.982 21.6188H133.28V33.7017ZM166.066 27.6851C166.066 31.6878 168.72 34 171.699 34C174.679 34 177.333 31.6878 177.333 27.6851C177.333 23.6326 174.679 21.3204 171.699 21.3204C168.72 21.3204 166.066 23.6326 166.066 27.6851ZM168.194 27.6851C168.194 24.9006 169.621 23.0111 171.699 23.0111C173.803 23.0111 175.205 24.9006 175.205 27.6851C175.205 30.4448 173.803 32.3094 171.699 32.3094C169.621 32.3094 168.194 30.4448 168.194 27.6851ZM182.841 33.7017H180.788V21.6188H182.491L182.666 23.8066H182.741C183.567 22.2901 184.819 21.3204 186.196 21.3204C186.722 21.3204 187.098 21.395 187.498 21.5691L187.098 23.3591C186.697 23.2348 186.422 23.1602 185.921 23.1602C184.894 23.1602 183.668 23.9061 182.841 25.9448V33.7017ZM189.719 33.7017H191.772V25.9448C192.598 23.9061 193.825 23.1602 194.852 23.1602C195.353 23.1602 195.628 23.2348 196.029 23.3591L196.429 21.5691C196.029 21.395 195.653 21.3204 195.127 21.3204C193.75 21.3204 192.498 22.2901 191.672 23.8066H191.597L191.421 21.6188H189.719V33.7017ZM223.933 34C220.953 34 218.299 31.6878 218.299 27.6851C218.299 23.6326 220.953 21.3204 223.933 21.3204C226.913 21.3204 229.567 23.6326 229.567 27.6851C229.567 31.6878 226.913 34 223.933 34ZM223.933 23.0111C221.855 23.0111 220.428 24.9006 220.428 27.6851C220.428 30.4448 221.855 32.3094 223.933 32.3094C226.036 32.3094 227.438 30.4448 227.438 27.6851C227.438 24.9006 226.036 23.0111 223.933 23.0111ZM233.022 33.7017H235.075V25.9448C235.901 23.9061 237.128 23.1602 238.155 23.1602C238.655 23.1602 238.931 23.2348 239.332 23.3591L239.732 21.5691C239.332 21.395 238.956 21.3204 238.43 21.3204C237.053 21.3204 235.801 22.2901 234.975 23.8066H234.9L234.724 21.6188H233.022V33.7017ZM243.378 21.7871H244.043V17.125H245.638V16.5681H241.784V17.125H243.378V21.7871ZM246.617 21.7871H247.234V18.9151C247.234 18.5069 247.196 17.9742 247.166 17.5372V17.537L247.166 17.5365L247.165 17.536L247.154 17.3717H247.186L247.603 18.5332L248.612 21.2621H248.997L250.006 18.5332L250.423 17.3717H250.455C250.449 17.4638 250.441 17.5623 250.434 17.6646L250.432 17.6826L250.432 17.6878C250.401 18.0923 250.367 18.5528 250.367 18.9151V21.7871H251V16.5681H250.215L249.205 19.3686L248.837 20.4347H248.804L248.428 19.3686L247.41 16.5681H246.617V21.7871Z" fill="#0175B2"/>
<path fill-rule="evenodd" clip-rule="evenodd" d="M27.8331 26.8975C27.8523 26.8034 27.8619 26.7081 27.8619 26.6127C27.8619 26.5162 27.8523 26.422 27.8331 26.3279C27.8151 26.2337 27.7874 26.142 27.7502 26.0539C27.7141 25.9646 27.6696 25.8801 27.6155 25.8005C27.5626 25.7208 27.5025 25.6472 27.4352 25.5796C27.3679 25.512 27.2934 25.4517 27.2141 25.3973C27.1347 25.3442 27.0518 25.2996 26.9628 25.2634C26.8751 25.226 26.7837 25.1982 26.69 25.1801C26.5962 25.1608 26.5013 25.1523 26.4063 25.1523C26.3102 25.1523 26.2152 25.1608 26.1214 25.1801C26.0277 25.1982 25.9375 25.226 25.8486 25.2634C25.7608 25.2996 25.6767 25.3442 25.5974 25.3973C25.518 25.4517 25.4447 25.512 25.3774 25.5796C25.3089 25.6472 25.2488 25.7208 25.1959 25.8005C25.143 25.8801 25.0973 25.9646 25.0613 26.0539C25.0252 26.142 24.9976 26.2337 24.9783 26.3279C24.9603 26.422 24.9507 26.5162 24.9507 26.6127C24.9507 26.7081 24.9603 26.8034 24.9783 26.8975C24.9976 26.9917 25.0252 27.0834 25.0613 27.1715C25.0973 27.2596 25.143 27.3441 25.1959 27.4238C25.2488 27.5034 25.3089 27.577 25.3774 27.6458C25.4447 27.7134 25.518 27.7738 25.5974 27.8269C25.6767 27.88 25.7608 27.9258 25.8486 27.9621C25.9375 27.9983 26.0277 28.026 26.1214 28.0453C26.2152 28.0634 26.3102 28.0731 26.4063 28.0731C26.5013 28.0731 26.5962 28.0634 26.69 28.0453C26.7837 28.026 26.8751 27.9983 26.9628 27.9621C27.0518 27.9258 27.1347 27.88 27.2141 27.8269C27.2934 27.7738 27.3679 27.7134 27.4352 27.6458C27.5025 27.577 27.5626 27.5034 27.6155 27.4238C27.6696 27.3441 27.7141 27.2596 27.7502 27.1715C27.7874 27.0834 27.8151 26.9917 27.8331 26.8975ZM23.7542 37.097C27.6403 33.9228 29.3965 29.7903 29.6789 25.1702C27.8882 31.0226 25.4402 28.6863 23.5105 26.8446C22.9947 26.3524 22.516 25.8955 22.0967 25.6397C25.8409 29.4029 25.3758 33.895 23.7542 37.097Z" fill="#FFB800"/>
</svg>
