<svg width="372" height="51" viewBox="0 0 372 51" fill="none" xmlns="http://www.w3.org/2000/svg">
<path fill-rule="evenodd" clip-rule="evenodd" d="M24.2858 5.33367C23.024 5.48195 21.9211 4.68715 21.7273 3.03829C21.5362 1.41223 22.4414 0.327539 23.7184 0.177478C24.3265 0.10602 24.8555 0.344299 25.2064 0.642008L24.7842 1.24626C24.4963 1.02588 24.1963 0.899364 23.8162 0.944025C23.0029 1.0396 22.4979 1.79224 22.6292 2.9092C22.7622 4.04137 23.3823 4.66181 24.2108 4.56444C24.6517 4.51264 24.9571 4.29187 25.2018 3.94728L25.7517 4.42961C25.4033 4.94045 24.9167 5.25953 24.2858 5.33367ZM13.4522 9.41419L14.1667 8.96906L13.0089 7.11211C12.7717 6.73155 12.4811 6.34937 12.211 5.99418L12.2109 5.99416L12.2109 5.99414L12.2109 5.99412L12.2109 5.99411L12.2109 5.99405L12.2108 5.99403L12.2108 5.99399L12.2107 5.99382L12.2105 5.99351L12.2101 5.99309C12.1441 5.90627 12.0793 5.82106 12.0168 5.73789L12.0428 5.7217L13.0472 6.34903L15.8555 7.91693L16.6285 7.43537L13.9809 3.18905L13.2664 3.63418L14.4161 5.47815C14.6651 5.8774 14.9842 6.29687 15.264 6.66469L15.264 6.66471L15.2641 6.66482L15.2646 6.6654L15.2648 6.6657C15.3169 6.73421 15.3677 6.80091 15.4163 6.86536L15.3903 6.88155L14.386 6.25421L11.5776 4.68632L10.8047 5.16787L13.4522 9.41419ZM73.275 25H71.175V8.59997H73.275V15.475H80.9V8.59997H82.975V25H80.9V17.275H73.275V25ZM91.0365 25.3C88.4615 25.3 87.3115 23.65 87.3115 20.55V12.85H89.3865V20.275C89.3865 22.55 90.0615 23.525 91.6615 23.525C92.9115 23.525 93.7865 22.9 94.9365 21.475V12.85H96.9865V25H95.2865L95.1115 23.1H95.0365C93.9115 24.425 92.7115 25.3 91.0365 25.3ZM103.385 25H101.335V12.85H103.035L103.21 14.6H103.285C104.335 13.45 105.61 12.55 107.06 12.55C108.91 12.55 109.91 13.425 110.41 14.875C111.685 13.5 112.935 12.55 114.41 12.55C116.91 12.55 118.11 14.2 118.11 17.3V25H116.06V17.575C116.06 15.3 115.335 14.325 113.81 14.325C112.86 14.325 111.885 14.95 110.76 16.2V25H108.71V17.575C108.71 15.3 107.985 14.325 106.435 14.325C105.535 14.325 104.51 14.95 103.385 16.2V25ZM125.288 25.3C123.238 25.3 121.713 24.025 121.713 21.85C121.713 19.2 124.013 17.875 129.188 17.3C129.188 15.75 128.663 14.25 126.688 14.25C125.263 14.25 124.013 14.9 123.063 15.55L122.238 14.125C123.363 13.4 125.063 12.55 127.013 12.55C129.988 12.55 131.238 14.525 131.238 17.55V25H129.538L129.363 23.55H129.313C128.138 24.5 126.788 25.3 125.288 25.3ZM129.188 18.65C125.113 19.15 123.738 20.15 123.738 21.7C123.738 23.075 124.663 23.65 125.863 23.65C127.038 23.65 128.013 23.075 129.188 22.025V18.65ZM137.406 25H135.356V12.85H137.056L137.231 14.6H137.306C138.456 13.45 139.706 12.55 141.381 12.55C143.931 12.55 145.081 14.2 145.081 17.3V25H143.031V17.575C143.031 15.3 142.331 14.325 140.731 14.325C139.481 14.325 138.631 14.975 137.406 16.2V25ZM160.956 25.3C156.831 25.3 153.756 22.15 153.756 16.8C153.756 11.525 156.881 8.29996 161.081 8.29996C163.031 8.29996 164.581 9.24996 165.556 10.325L164.381 11.65C163.506 10.725 162.456 10.125 161.106 10.125C157.981 10.125 155.906 12.675 155.906 16.75C155.906 20.875 157.881 23.475 161.006 23.475C162.556 23.475 163.706 22.825 164.756 21.65L165.931 22.925C164.656 24.425 163.031 25.3 160.956 25.3ZM173.716 25.3C170.741 25.3 168.091 22.975 168.091 18.95C168.091 14.875 170.741 12.55 173.716 12.55C176.691 12.55 179.341 14.875 179.341 18.95C179.341 22.975 176.691 25.3 173.716 25.3ZM173.716 23.6C175.816 23.6 177.216 21.725 177.216 18.95C177.216 16.15 175.816 14.25 173.716 14.25C171.641 14.25 170.216 16.15 170.216 18.95C170.216 21.725 171.641 23.6 173.716 23.6ZM184.841 25H182.791V12.85H184.491L184.666 15.05H184.741C185.566 13.525 186.816 12.55 188.191 12.55C188.716 12.55 189.091 12.625 189.491 12.8L189.091 14.6C188.691 14.475 188.416 14.4 187.916 14.4C186.891 14.4 185.666 15.15 184.841 17.2V25ZM193.758 25H191.708V12.85H193.408L193.583 15.05H193.658C194.483 13.525 195.733 12.55 197.108 12.55C197.633 12.55 198.008 12.625 198.408 12.8L198.008 14.6C197.608 14.475 197.333 14.4 196.833 14.4C195.808 14.4 194.583 15.15 193.758 17.2V25ZM203.1 9.02496C203.1 9.79996 202.475 10.35 201.675 10.35C200.875 10.35 200.25 9.79996 200.25 9.02496C200.25 8.22497 200.875 7.69996 201.675 7.69996C202.475 7.69996 203.1 8.22497 203.1 9.02496ZM202.675 25H200.625V12.85H202.675V25ZM211.178 25.3C208.128 25.3 206.153 23 206.153 18.95C206.153 15 208.653 12.55 211.428 12.55C212.828 12.55 213.753 13.075 214.828 13.95L214.728 11.875V7.19997H216.803V25H215.103L214.928 23.575H214.853C213.903 24.5 212.603 25.3 211.178 25.3ZM211.778 14.275C209.828 14.275 208.278 16.15 208.278 18.925C208.278 21.825 209.503 23.575 211.628 23.575C212.753 23.575 213.728 23.025 214.728 21.9V15.55C213.703 14.625 212.778 14.275 211.778 14.275ZM225.87 25.3C222.895 25.3 220.245 22.975 220.245 18.95C220.245 14.875 222.895 12.55 225.87 12.55C228.845 12.55 231.495 14.875 231.495 18.95C231.495 22.975 228.845 25.3 225.87 25.3ZM225.87 23.6C227.97 23.6 229.37 21.725 229.37 18.95C229.37 16.15 227.97 14.25 225.87 14.25C223.795 14.25 222.37 16.15 222.37 18.95C222.37 21.725 223.795 23.6 225.87 23.6ZM236.995 25H234.945V12.85H236.645L236.82 15.05H236.895C237.72 13.525 238.97 12.55 240.345 12.55C240.87 12.55 241.245 12.625 241.645 12.8L241.245 14.6C240.845 14.475 240.57 14.4 240.07 14.4C239.045 14.4 237.82 15.15 236.995 17.2V25ZM245.456 12.5957H244.792V7.90767H243.2V7.34767H247.048V7.90767H245.456V12.5957ZM248.642 12.5957H248.026V7.34767H248.818L249.834 10.1637L250.21 11.2357H250.242L250.61 10.1637L251.618 7.34767H252.402V12.5957H251.77V9.70767C251.77 9.34345 251.805 8.88064 251.835 8.47402L251.835 8.46875C251.843 8.35925 251.851 8.25387 251.858 8.15567H251.826L251.41 9.32367L250.402 12.0677H250.018L249.01 9.32367L248.594 8.15567H248.562L248.574 8.32172L248.574 8.32215V8.32242L248.574 8.3229L248.574 8.32329V8.32345V8.32377C248.605 8.76283 248.642 9.2977 248.642 9.70767V12.5957ZM27.7621 26.5658C27.7621 26.6604 27.7525 26.7549 27.7334 26.8483C27.7154 26.9417 27.6879 27.0327 27.6507 27.1201C27.6148 27.2075 27.5705 27.2913 27.5166 27.3703C27.4639 27.4493 27.404 27.5224 27.3369 27.5906C27.2699 27.6576 27.1956 27.7175 27.1166 27.7702C27.0375 27.8229 26.9549 27.8683 26.8662 27.9043C26.7788 27.9402 26.6878 27.9677 26.5944 27.9869C26.501 28.0048 26.4063 28.0144 26.3117 28.0144C26.2159 28.0144 26.1213 28.0048 26.0279 27.9869C25.9345 27.9677 25.8446 27.9402 25.756 27.9043C25.6686 27.8683 25.5847 27.8229 25.5057 27.7702C25.4266 27.7175 25.3536 27.6576 25.2865 27.5906C25.2182 27.5224 25.1584 27.4493 25.1057 27.3703C25.053 27.2913 25.0074 27.2075 24.9715 27.1201C24.9356 27.0327 24.908 26.9417 24.8889 26.8483C24.8709 26.7549 24.8613 26.6604 24.8613 26.5658C24.8613 26.47 24.8709 26.3766 24.8889 26.2832C24.908 26.1899 24.9356 26.0989 24.9715 26.0115C25.0074 25.9229 25.053 25.8391 25.1057 25.7601C25.1584 25.681 25.2182 25.608 25.2865 25.541C25.3536 25.4739 25.4266 25.4141 25.5057 25.3602C25.5847 25.3075 25.6686 25.2632 25.756 25.2273C25.8446 25.1902 25.9345 25.1626 26.0279 25.1447C26.1213 25.1255 26.2159 25.1172 26.3117 25.1172C26.4063 25.1172 26.501 25.1255 26.5944 25.1447C26.6878 25.1626 26.7788 25.1902 26.8662 25.2273C26.9549 25.2632 27.0375 25.3075 27.1166 25.3602C27.1956 25.4141 27.2699 25.4739 27.3369 25.541C27.404 25.608 27.4639 25.681 27.5166 25.7601C27.5705 25.8391 27.6148 25.9229 27.6507 26.0115C27.6879 26.0989 27.7154 26.1899 27.7334 26.2832C27.7525 26.3766 27.7621 26.47 27.7621 26.5658ZM23.6692 36.9656C27.5413 33.8169 29.2911 29.7177 29.5725 25.1347C27.7882 30.9401 25.3491 28.6226 23.4263 26.7957C22.9124 26.3074 22.4354 25.8542 22.0176 25.6004C25.7484 29.3334 25.2848 33.7894 23.6692 36.9656ZM24.6106 38.227C20.0295 34.9299 15.6088 30.2129 15.3034 25.3857C14.9477 19.8019 23.0764 19.2643 24.2094 26.96C26.2658 15.1471 9.23119 17.4123 13.7464 28.6768C16.0915 33.3807 19.8606 36.3869 24.6106 38.227ZM18.5465 16.1017C18.5728 15.9688 18.586 15.8335 18.586 15.6982C18.586 15.5629 18.5728 15.4276 18.5465 15.2947C18.5201 15.1618 18.4806 15.0325 18.4291 14.9068C18.3764 14.7823 18.3129 14.6626 18.2375 14.5501C18.162 14.4375 18.0758 14.3334 17.98 14.2364C17.8842 14.1406 17.78 14.0556 17.6662 13.9802C17.5536 13.9048 17.435 13.8413 17.3093 13.7886C17.1835 13.7372 17.0542 13.6976 16.9212 13.6713C16.7883 13.645 16.653 13.6318 16.5176 13.6318C16.3823 13.6318 16.2469 13.645 16.114 13.6713C15.9811 13.6976 15.8517 13.7372 15.7259 13.7886C15.6002 13.8413 15.4816 13.9048 15.369 13.9802C15.2553 14.0556 15.1511 14.1406 15.0552 14.2364C14.9594 14.3334 14.8732 14.4375 14.7977 14.5501C14.7223 14.6626 14.6588 14.7823 14.6073 14.9068C14.5546 15.0325 14.5151 15.1618 14.4887 15.2947C14.4624 15.4276 14.4492 15.5629 14.4492 15.6982C14.4492 15.8335 14.4624 15.9688 14.4887 16.1017C14.5151 16.2345 14.5546 16.3638 14.6073 16.4895C14.6588 16.6141 14.7223 16.7338 14.7977 16.8463C14.8732 16.9589 14.9594 17.063 15.0552 17.16C15.1511 17.2558 15.2553 17.3408 15.369 17.4162C15.4816 17.4916 15.6002 17.5551 15.7259 17.6077C15.8517 17.6592 15.9811 17.6987 16.114 17.7251C16.2469 17.7514 16.3823 17.7646 16.5176 17.7646C16.653 17.7646 16.7883 17.7514 16.9212 17.7251C17.0542 17.6987 17.1835 17.6592 17.3093 17.6077C17.435 17.5551 17.5536 17.4916 17.6662 17.4162C17.78 17.3408 17.8842 17.2558 17.98 17.16C18.0758 17.063 18.162 16.9589 18.2375 16.8463C18.3129 16.7338 18.3764 16.6141 18.4291 16.4895C18.4806 16.3638 18.5201 16.2345 18.5465 16.1017ZM24.6104 38.2272C30.2239 35.361 36.8003 30.213 37.1057 25.3859C37.4615 19.8021 29.3316 19.2645 28.201 26.9602C26.1434 15.1473 43.1768 17.4124 38.6615 28.677C36.3177 33.3809 30.049 37.1617 24.6104 38.2272ZM37.9194 16.1017C37.9469 15.9688 37.9601 15.8335 37.9601 15.6982C37.9601 15.5629 37.9469 15.4276 37.9194 15.2947C37.893 15.1619 37.8547 15.0326 37.802 14.9068C37.7505 14.7823 37.687 14.6626 37.6116 14.5501C37.5361 14.4375 37.4499 14.3334 37.354 14.2364C37.2582 14.1406 37.1528 14.0556 37.0403 13.9802C36.9277 13.9048 36.8079 13.8413 36.6833 13.7887C36.5576 13.7372 36.4282 13.6977 36.2953 13.6713C36.1612 13.645 36.027 13.6318 35.8917 13.6318C35.7551 13.6318 35.621 13.645 35.4881 13.6713C35.3551 13.6977 35.2258 13.7372 35.1 13.7887C34.9743 13.8413 34.8557 13.9048 34.7419 13.9802C34.6293 14.0556 34.5251 14.1406 34.4293 14.2364C34.3323 14.3334 34.2473 14.4375 34.1718 14.5501C34.0964 14.6626 34.0329 14.7823 33.9802 14.9068C33.9287 15.0326 33.8892 15.1619 33.8628 15.2947C33.8365 15.4276 33.8233 15.5629 33.8233 15.6982C33.8233 15.8335 33.8365 15.9688 33.8628 16.1017C33.8892 16.2346 33.9287 16.3639 33.9802 16.4896C34.0329 16.6141 34.0964 16.7338 34.1718 16.8463C34.2473 16.9589 34.3323 17.063 34.4293 17.16C34.5251 17.2558 34.6293 17.3408 34.7419 17.4162C34.8557 17.4916 34.9743 17.5551 35.1 17.6078C35.2258 17.6592 35.3551 17.6987 35.4881 17.7251C35.621 17.7514 35.7551 17.7646 35.8917 17.7646C36.027 17.7646 36.1612 17.7514 36.2953 17.7251C36.4282 17.6987 36.5576 17.6592 36.6833 17.6078C36.8079 17.5551 36.9277 17.4916 37.0403 17.4162C37.1528 17.3408 37.2582 17.2558 37.354 17.16C37.4499 17.063 37.5361 16.9589 37.6116 16.8463C37.687 16.7338 37.7505 16.6141 37.802 16.4896C37.8547 16.3639 37.893 16.2346 37.9194 16.1017ZM5.7786 32.3521L5.61635 31.4796L3.43417 31.8851L3.0649 29.8993L5.24707 29.4938L5.08482 28.6213L0.163635 29.5358L0.325892 30.4083L2.3049 30.0405L2.67417 32.0263L0.695165 32.394L0.857422 33.2666L5.7786 32.3521ZM5.28748 24.0802C5.14941 25.2349 4.42294 25.8955 2.78904 25.7002L0 25.367L0.105368 24.4858L2.9628 24.8272C4.04194 24.9562 4.44817 24.5886 4.51992 23.9885C4.59259 23.3808 4.28537 22.9203 3.20624 22.7913L0.348804 22.4499L0.450538 21.5991L3.23957 21.9323C4.87348 22.1276 5.42464 22.9331 5.28748 24.0802ZM6.09008 19.5589L6.43231 18.8236L4.35745 17.8587C4.01618 17.6999 3.53874 17.5273 3.13987 17.383C3.04401 17.3483 2.95268 17.3153 2.86887 17.2845L2.88179 17.2567L4.08364 17.3769L6.50945 17.5516L6.68057 17.184L4.98442 15.4416L4.12158 14.5931L4.13449 14.5653L4.18786 14.597L4.18789 14.597C4.58175 14.8305 5.12477 15.1525 5.52944 15.3407L7.6043 16.3057L7.95622 15.5496L3.4179 13.4389L3.00464 14.3268L4.86781 16.1637L5.58946 16.8621L5.57654 16.8899L4.57723 16.788L1.96179 16.5673L1.55176 17.4482L6.09008 19.5589ZM8.20978 10.8241L8.54798 11.364L9.40181 10.4128L8.82843 10.135C8.33305 9.89625 7.80349 9.62686 7.29613 9.36712L7.27568 9.3899C7.59956 9.86549 7.92403 10.3519 8.20978 10.8241ZM11.9513 10.6434L11.3224 11.3439L10.0532 10.7298L8.93352 11.9771L9.68121 13.1721L9.07279 13.8499L6.44081 9.28876L7.13615 8.51418L11.9513 10.6434ZM30.0501 5.5361C31.332 5.75881 32.3921 4.93348 32.6697 3.33546C32.946 1.74498 32.2199 0.648162 30.938 0.42545C29.6486 0.201428 28.5951 0.989069 28.3188 2.57955C28.0411 4.17757 28.7607 5.31208 30.0501 5.5361ZM30.1824 4.77478C29.4057 4.63984 29.0236 3.84351 29.2161 2.73545C29.4073 1.63493 30.0291 1.05183 30.8058 1.18677C31.5749 1.3204 31.9636 2.07904 31.7724 3.17956C31.5799 4.28762 30.9515 4.90841 30.1824 4.77478ZM37.7878 3.4888L37.1572 3.17569L36.432 4.63516L37.0626 4.94827C37.6795 5.25458 38.1379 5.15757 38.3899 4.65052C38.6453 4.13662 38.4048 3.79511 37.7878 3.4888ZM37.6435 5.87738L37.7834 8.2789L36.8923 7.83646L36.7974 5.60247L36.1188 5.26554L35.2471 7.01964L34.452 6.62484L36.6787 2.14366L38.1867 2.89241C39.119 3.35527 39.6753 4.04153 39.1782 5.04191C38.8377 5.72711 38.277 5.96125 37.6435 5.87738ZM43.0969 6.96689L43.6187 7.43954C44.1291 7.90191 44.2677 8.2959 43.8822 8.72109C43.5019 9.1406 43.0344 9.10943 42.524 8.64706L42.0022 8.17442L43.0969 6.96689ZM42.3121 12.0481L42.8304 9.69902C43.4172 9.95181 44.0205 9.87881 44.5344 9.3119C45.2848 8.4842 44.936 7.67265 44.1647 6.97396L42.917 5.84372L39.5558 9.55133L40.2137 10.1473L41.5294 8.69598L42.0908 9.20459L41.5748 11.3803L42.3121 12.0481ZM44.1605 14.5514L43.6486 13.826L47.7393 10.9414L48.2512 11.6667L44.1605 14.5514ZM45.543 16.7492L46.0634 18.0243C46.6242 19.3986 47.769 19.915 49.3068 19.288C50.8375 18.6638 51.2589 17.5087 50.6807 16.0919L50.1777 14.8593L45.543 16.7492ZM46.5445 17.2993L49.8469 15.9527L49.9915 16.3069C50.373 17.242 50.0967 17.9826 48.9628 18.445C47.8218 18.9102 47.0706 18.5886 46.689 17.6535L46.5445 17.2993ZM50.439 26.4871C48.8232 26.6352 47.75 25.827 47.6312 24.5319C47.5117 23.2291 48.42 22.2392 50.0358 22.0911C51.644 21.9437 52.6791 22.7554 52.7987 24.0582C52.9175 25.3534 52.0472 26.3397 50.439 26.4871ZM50.119 22.9978C48.9986 23.1005 48.329 23.6766 48.4009 24.4613C48.4722 25.2384 49.2355 25.6832 50.3559 25.5805C51.4686 25.4785 52.1001 24.9059 52.0289 24.1288C51.9569 23.344 51.2317 22.8958 50.119 22.9978ZM51.7626 30.7774L51.6244 31.4676C51.4892 32.1427 51.2219 32.4638 50.6591 32.3512C50.1037 32.2401 49.8907 31.8229 50.0258 31.1477L50.1641 30.4576L51.7626 30.7774ZM46.9966 32.7107L49.2797 31.9503C49.3637 32.5835 49.7359 33.0637 50.4863 33.2139C51.582 33.4331 52.1 32.7175 52.3043 31.6972L52.6348 30.0468L47.7266 29.0648L47.5524 29.935L49.4736 30.3194L49.3249 31.0621L47.1919 31.7355L46.9966 32.7107ZM28.685 41.5755C25.4666 45.6635 28.2799 49.648 28.2799 49.648C30.2912 46.7661 33.2619 46.0265 36.5355 45.2115C39.0445 44.5868 41.7314 43.9179 44.3007 42.2063C47.9589 39.7687 50.306 35.559 50.306 35.559C49.1041 35.0719 48.3712 35.791 47.2335 36.9074C46.3439 37.7804 45.2067 38.8963 43.4041 39.8683C39.0111 42.2384 35.7956 40.7916 35.7956 40.7916C36.2813 40.3929 36.9058 40.1506 37.6328 39.8685L37.6329 39.8684C37.9457 39.7471 38.2774 39.6184 38.6251 39.4667C40.0181 38.8596 41.4287 37.49 40.9781 36.1482C40.093 36.8104 38.5915 37.1638 36.8912 37.5641L36.8911 37.5641L36.8911 37.5641C34.0668 38.229 30.6938 39.0231 28.685 41.5755ZM24.6488 49.648C24.6488 49.648 27.4622 45.6635 24.2437 41.5755C22.235 39.0231 18.8619 38.229 16.0376 37.5641L16.0376 37.5641C14.3372 37.1638 12.8357 36.8104 11.9506 36.1482C11.5 37.49 12.9106 38.8596 14.3036 39.4667C14.6514 39.6184 14.9831 39.7471 15.2959 39.8685C16.0229 40.1506 16.6474 40.3929 17.1331 40.7916C17.1331 40.7916 13.9177 42.2384 9.52463 39.8683C7.72202 38.8963 6.58482 37.7804 5.69518 36.9074C4.55748 35.791 3.82464 35.0719 2.62275 35.559C2.62275 35.559 4.96979 39.7687 8.62804 42.2063C11.1973 43.9179 13.8842 44.5868 16.3932 45.2115C19.6668 46.0265 22.6375 46.7661 24.6488 49.648ZM71.072 47.0002H70.1479V37.0322H71.296V39.7482L71.268 40.9802C71.8839 40.4342 72.6399 40.0282 73.396 40.0282C75.16 40.0282 76.0979 41.3862 76.0979 43.4862C76.0979 45.8102 74.712 47.1682 73.158 47.1682C72.5279 47.1682 71.8139 46.8602 71.212 46.3282H71.17L71.072 47.0002ZM71.296 41.9182V45.4882C71.8979 46.0062 72.5139 46.2022 72.962 46.2022C74.0819 46.2022 74.908 45.1802 74.908 43.5002C74.908 42.0022 74.4039 40.9942 73.116 40.9942C72.5419 40.9942 71.9399 41.3162 71.296 41.9182ZM77.8729 49.7862L78.0969 48.8762C78.2369 48.9182 78.4469 48.9742 78.6149 48.9742C79.3849 48.9742 79.8749 48.3582 80.1549 47.5182L80.3089 47.0142L77.5789 40.1962H78.7689L80.1549 43.9622C80.3649 44.5502 80.6029 45.2502 80.8129 45.8802H80.8689C80.9915 45.4949 81.1141 45.0768 81.2332 44.6703L81.2334 44.6698L81.2334 44.6696C81.3047 44.4264 81.3748 44.1875 81.4429 43.9622L82.6609 40.1962H83.7809L81.2189 47.5602C80.7429 48.9042 80.0429 49.9262 78.6709 49.9262C78.3629 49.9262 78.0969 49.8702 77.8729 49.7862ZM88.8621 42.4082C88.8621 45.4042 90.5841 47.1682 92.8941 47.1682C94.0561 47.1682 94.9661 46.6782 95.6801 45.8382L95.0221 45.1242C94.4341 45.7822 93.7901 46.1462 92.9221 46.1462C91.1721 46.1462 90.0661 44.6902 90.0661 42.3802C90.0661 40.0982 91.2281 38.6702 92.9781 38.6702C93.7341 38.6702 94.3221 39.0062 94.8121 39.5242L95.4701 38.7822C94.9241 38.1802 94.0561 37.6482 92.9641 37.6482C90.6121 37.6482 88.8621 39.4542 88.8621 42.4082ZM100.6 47.1682C98.9338 47.1682 97.4498 45.8662 97.4498 43.6122C97.4498 41.3302 98.9338 40.0282 100.6 40.0282C102.266 40.0282 103.75 41.3302 103.75 43.6122C103.75 45.8662 102.266 47.1682 100.6 47.1682ZM100.6 40.9802C99.4378 40.9802 98.6398 42.0442 98.6398 43.6122C98.6398 45.1662 99.4378 46.2162 100.6 46.2162C101.776 46.2162 102.56 45.1662 102.56 43.6122C102.56 42.0442 101.776 40.9802 100.6 40.9802ZM106.242 47.0002H107.39V42.6322C107.852 41.4842 108.538 41.0642 109.112 41.0642C109.392 41.0642 109.546 41.1062 109.77 41.1762L109.994 40.1682C109.77 40.0702 109.56 40.0282 109.266 40.0282C108.496 40.0282 107.796 40.5742 107.334 41.4282H107.292L107.194 40.1962H106.242V47.0002ZM112.943 47.0002H111.795V40.1962H112.747L112.845 41.1762H112.887C113.531 40.5322 114.231 40.0282 115.169 40.0282C116.597 40.0282 117.241 40.9522 117.241 42.6882V47.0002H116.093V42.8422C116.093 41.5682 115.701 41.0222 114.805 41.0222C114.105 41.0222 113.629 41.3862 112.943 42.0722V47.0002ZM119.647 43.6122C119.647 45.8382 121.089 47.1682 122.909 47.1682C123.833 47.1682 124.561 46.8462 125.149 46.4682L124.743 45.7122C124.239 46.0342 123.693 46.2442 123.049 46.2442C121.747 46.2442 120.865 45.3202 120.781 43.8502H125.373C125.401 43.6822 125.415 43.4582 125.415 43.2202C125.415 41.2742 124.435 40.0282 122.699 40.0282C121.145 40.0282 119.647 41.3862 119.647 43.6122ZM120.767 43.0942C120.907 41.7222 121.775 40.9382 122.727 40.9382C123.791 40.9382 124.407 41.7082 124.407 43.0942H120.767ZM128.945 47.0002H127.797V40.1962H128.749L128.847 41.4282H128.889C129.351 40.5742 130.051 40.0282 130.821 40.0282C131.115 40.0282 131.325 40.0702 131.549 40.1682L131.325 41.1762C131.101 41.1062 130.947 41.0642 130.667 41.0642C130.093 41.0642 129.407 41.4842 128.945 42.6322V47.0002ZM132.458 46.2302C133.102 46.7622 134.026 47.1682 134.992 47.1682C136.602 47.1682 137.484 46.2442 137.484 45.1382C137.484 43.8502 136.392 43.4442 135.412 43.0802L135.307 43.0404C134.576 42.7626 133.9 42.5056 133.9 41.9042C133.9 41.3862 134.292 40.9242 135.146 40.9242C135.748 40.9242 136.238 41.1762 136.7 41.5262L137.246 40.7982C136.728 40.3782 135.986 40.0282 135.132 40.0282C133.662 40.0282 132.794 40.8682 132.794 41.9602C132.794 43.1082 133.858 43.5702 134.824 43.9202C135.566 44.2002 136.378 44.5082 136.378 45.2082C136.378 45.7962 135.93 46.2722 135.034 46.2722C134.222 46.2722 133.62 45.9362 133.032 45.4602L132.458 46.2302ZM141.921 47.1682C140.465 47.1682 139.975 46.2442 139.975 44.9002V41.1342H138.967V40.2662L140.031 40.1962L140.171 38.2922H141.137V40.1962H142.971V41.1342H141.137V44.9142C141.137 45.7542 141.403 46.2302 142.187 46.2302C142.425 46.2302 142.733 46.1322 142.957 46.0482L143.181 46.9162C142.803 47.0422 142.341 47.1682 141.921 47.1682ZM144.569 43.6122C144.569 45.8662 146.053 47.1682 147.719 47.1682C149.385 47.1682 150.869 45.8662 150.869 43.6122C150.869 41.3302 149.385 40.0282 147.719 40.0282C146.053 40.0282 144.569 41.3302 144.569 43.6122ZM145.759 43.6122C145.759 42.0442 146.557 40.9802 147.719 40.9802C148.895 40.9802 149.679 42.0442 149.679 43.6122C149.679 45.1662 148.895 46.2162 147.719 46.2162C146.557 46.2162 145.759 45.1662 145.759 43.6122ZM154.508 47.0002H153.36V40.1962H154.312L154.41 41.1762H154.452C155.096 40.5322 155.796 40.0282 156.734 40.0282C158.162 40.0282 158.806 40.9522 158.806 42.6882V47.0002H157.658V42.8422C157.658 41.5682 157.266 41.0222 156.37 41.0222C155.67 41.0222 155.194 41.3862 154.508 42.0722V47.0002ZM161.213 43.6122C161.213 45.8382 162.655 47.1682 164.475 47.1682C165.399 47.1682 166.127 46.8462 166.715 46.4682L166.309 45.7122C165.805 46.0342 165.259 46.2442 164.615 46.2442C163.313 46.2442 162.431 45.3202 162.347 43.8502H166.939C166.967 43.6822 166.981 43.4582 166.981 43.2202C166.981 41.2742 166.001 40.0282 164.265 40.0282C162.711 40.0282 161.213 41.3862 161.213 43.6122ZM162.333 43.0942C162.473 41.7222 163.341 40.9382 164.293 40.9382C165.357 40.9382 165.973 41.7082 165.973 43.0942H162.333ZM175.356 47.0002H173.97L172.024 37.8162H173.228L174.194 42.8142C174.283 43.2993 174.372 43.7811 174.461 44.2629L174.461 44.264L174.467 44.2982L174.473 44.3324C174.562 44.8145 174.651 45.2967 174.74 45.7822H174.796C174.992 44.7882 175.216 43.7942 175.44 42.8142L176.714 37.8162H177.778L179.052 42.8142C179.262 43.7802 179.486 44.7882 179.71 45.7822H179.766C179.922 44.9333 180.067 44.0845 180.21 43.2443L180.284 42.8142L181.25 37.8162H182.384L180.48 47.0002H179.066L177.68 41.4702L177.645 41.3081C177.621 41.1991 177.597 41.0912 177.574 40.9841L177.572 40.9774C177.456 40.4456 177.343 39.9314 177.246 39.3842H177.19C177.113 39.7412 177.036 40.0842 176.959 40.4272C176.882 40.7702 176.805 41.1132 176.728 41.4702L175.356 47.0002ZM184.53 47.0002H185.678V42.0722C186.364 41.3862 186.84 41.0222 187.54 41.0222C188.436 41.0222 188.828 41.5682 188.828 42.8422V47.0002H189.976V42.6882C189.976 40.9522 189.332 40.0282 187.904 40.0282C186.966 40.0282 186.28 40.5322 185.636 41.1482L185.678 39.7482V37.0322H184.53V47.0002ZM195.491 47.1682C193.825 47.1682 192.341 45.8662 192.341 43.6122C192.341 41.3302 193.825 40.0282 195.491 40.0282C197.157 40.0282 198.641 41.3302 198.641 43.6122C198.641 45.8662 197.157 47.1682 195.491 47.1682ZM195.491 40.9802C194.329 40.9802 193.531 42.0442 193.531 43.6122C193.531 45.1662 194.329 46.2162 195.491 46.2162C196.667 46.2162 197.451 45.1662 197.451 43.6122C197.451 42.0442 196.667 40.9802 195.491 40.9802ZM201.133 45.6282C201.133 46.6222 201.483 47.1682 202.351 47.1682C202.659 47.1682 202.855 47.1262 203.009 47.0562L202.855 46.1882C202.729 46.2162 202.673 46.2162 202.603 46.2162C202.435 46.2162 202.281 46.0762 202.281 45.7122V37.0322H201.133V45.6282ZM208.159 47.1682C206.339 47.1682 204.897 45.8382 204.897 43.6122C204.897 41.3862 206.395 40.0282 207.949 40.0282C209.685 40.0282 210.665 41.2742 210.665 43.2202C210.665 43.4582 210.651 43.6822 210.623 43.8502H206.031C206.115 45.3202 206.997 46.2442 208.299 46.2442C208.943 46.2442 209.489 46.0342 209.993 45.7122L210.399 46.4682C209.811 46.8462 209.083 47.1682 208.159 47.1682ZM207.977 40.9382C207.025 40.9382 206.157 41.7222 206.017 43.0942H209.657C209.657 41.7082 209.041 40.9382 207.977 40.9382ZM216.646 47.0002H217.822V42.6742H222.092V47.0002H223.254V37.8162H222.092V41.6662H217.822V37.8162H216.646V47.0002ZM229.099 47.1682C227.279 47.1682 225.837 45.8382 225.837 43.6122C225.837 41.3862 227.335 40.0282 228.889 40.0282C230.625 40.0282 231.605 41.2742 231.605 43.2202C231.605 43.4582 231.591 43.6822 231.563 43.8502H226.971C227.055 45.3202 227.937 46.2442 229.239 46.2442C229.883 46.2442 230.429 46.0342 230.933 45.7122L231.339 46.4682C230.751 46.8462 230.023 47.1682 229.099 47.1682ZM228.917 40.9382C227.965 40.9382 227.097 41.7222 226.957 43.0942H230.597C230.597 41.7082 229.981 40.9382 228.917 40.9382ZM233.459 45.2362C233.459 46.4542 234.313 47.1682 235.461 47.1682C236.301 47.1682 237.057 46.7202 237.715 46.1882H237.743L237.841 47.0002H238.793V42.8282C238.793 41.1342 238.093 40.0282 236.427 40.0282C235.335 40.0282 234.383 40.5042 233.753 40.9102L234.215 41.7082C234.747 41.3442 235.447 40.9802 236.245 40.9802C237.351 40.9802 237.645 41.8202 237.645 42.6882C234.747 43.0102 233.459 43.7522 233.459 45.2362ZM234.593 45.1522C234.593 44.2842 235.363 43.7242 237.645 43.4442V45.3342C236.987 45.9222 236.441 46.2442 235.783 46.2442C235.111 46.2442 234.593 45.9222 234.593 45.1522ZM242.877 47.1682C242.009 47.1682 241.659 46.6222 241.659 45.6282V37.0322H242.807V45.7122C242.807 46.0762 242.961 46.2162 243.129 46.2162C243.199 46.2162 243.255 46.2162 243.381 46.1882L243.535 47.0562C243.381 47.1262 243.185 47.1682 242.877 47.1682ZM246.123 44.9002C246.123 46.2442 246.613 47.1682 248.069 47.1682C248.489 47.1682 248.951 47.0422 249.329 46.9162L249.105 46.0482C248.881 46.1322 248.573 46.2302 248.335 46.2302C247.551 46.2302 247.285 45.7542 247.285 44.9142V41.1342H249.119V40.1962H247.285V38.2922H246.319L246.179 40.1962L245.115 40.2662V41.1342H246.123V44.9002ZM252.506 47.0002H251.358V37.0322H252.506V39.7482L252.464 41.1482C253.108 40.5322 253.794 40.0282 254.732 40.0282C256.16 40.0282 256.804 40.9522 256.804 42.6882V47.0002H255.656V42.8422C255.656 41.5682 255.264 41.0222 254.368 41.0222C253.668 41.0222 253.192 41.3862 252.506 42.0722V47.0002ZM259.169 43.6122C259.169 45.8662 260.555 47.1682 262.361 47.1682C263.173 47.1682 263.957 46.8322 264.573 46.2862L264.055 45.5302C263.649 45.8942 263.103 46.2162 262.459 46.2162C261.213 46.2162 260.359 45.1662 260.359 43.6122C260.359 42.0442 261.255 40.9802 262.487 40.9802C263.033 40.9802 263.453 41.2322 263.859 41.5822L264.433 40.8402C263.971 40.4062 263.341 40.0282 262.445 40.0282C260.695 40.0282 259.169 41.3302 259.169 43.6122ZM268.287 47.1682C267.139 47.1682 266.285 46.4542 266.285 45.2362C266.285 43.7522 267.573 43.0102 270.471 42.6882C270.471 41.8202 270.177 40.9802 269.071 40.9802C268.273 40.9802 267.573 41.3442 267.041 41.7082L266.579 40.9102C267.209 40.5042 268.161 40.0282 269.253 40.0282C270.919 40.0282 271.619 41.1342 271.619 42.8282V47.0002H270.667L270.569 46.1882H270.541C269.883 46.7202 269.127 47.1682 268.287 47.1682ZM270.471 43.4442C268.189 43.7242 267.419 44.2842 267.419 45.1522C267.419 45.9222 267.937 46.2442 268.609 46.2442C269.267 46.2442 269.813 45.9222 270.471 45.3342V43.4442ZM274.485 47.0002H275.633V42.6322C276.095 41.4842 276.781 41.0642 277.355 41.0642C277.635 41.0642 277.789 41.1062 278.013 41.1762L278.237 40.1682C278.013 40.0702 277.803 40.0282 277.509 40.0282C276.739 40.0282 276.039 40.5742 275.577 41.4282H275.535L275.437 40.1962H274.485V47.0002ZM282.66 47.1682C280.84 47.1682 279.398 45.8382 279.398 43.6122C279.398 41.3862 280.896 40.0282 282.45 40.0282C284.186 40.0282 285.166 41.2742 285.166 43.2202C285.166 43.4582 285.152 43.6822 285.124 43.8502H280.532C280.616 45.3202 281.498 46.2442 282.8 46.2442C283.444 46.2442 283.99 46.0342 284.494 45.7122L284.9 46.4682C284.312 46.8462 283.584 47.1682 282.66 47.1682ZM282.478 40.9382C281.526 40.9382 280.658 41.7222 280.518 43.0942H284.158C284.158 41.7082 283.542 40.9382 282.478 40.9382ZM294.549 47.1682C296.845 47.1682 298.469 45.3202 298.469 42.3662C298.469 39.4402 296.845 37.6482 294.549 37.6482C292.239 37.6482 290.615 39.4262 290.615 42.3662C290.615 45.3202 292.239 47.1682 294.549 47.1682ZM294.549 46.1462C292.897 46.1462 291.819 44.6622 291.819 42.3662C291.819 40.0842 292.897 38.6702 294.549 38.6702C296.187 38.6702 297.265 40.0842 297.265 42.3662C297.265 44.6622 296.187 46.1462 294.549 46.1462ZM302.154 47.0002H301.006V40.1962H301.958L302.056 41.4282H302.098C302.56 40.5742 303.26 40.0282 304.03 40.0282C304.324 40.0282 304.534 40.0702 304.758 40.1682L304.534 41.1762C304.31 41.1062 304.156 41.0642 303.876 41.0642C303.302 41.0642 302.616 41.4842 302.154 42.6322V47.0002ZM306.913 48.1482C306.913 47.7562 307.123 47.3502 307.613 47.0002C307.907 47.0842 308.229 47.1122 308.495 47.1122H309.671C310.553 47.1122 311.043 47.3222 311.043 47.9522C311.043 48.6662 310.189 49.3382 308.887 49.3382C307.655 49.3382 306.913 48.8762 306.913 48.1482ZM305.905 48.3022C305.905 49.4782 307.053 50.1362 308.719 50.1362C310.833 50.1362 312.163 49.0442 312.163 47.7842C312.163 46.6502 311.365 46.1602 309.783 46.1602H308.467C307.543 46.1602 307.263 45.8522 307.263 45.4182C307.263 45.0402 307.459 44.8162 307.697 44.6062C308.005 44.7602 308.383 44.8442 308.719 44.8442C310.105 44.8442 311.211 43.9342 311.211 42.4782C311.211 41.9042 310.973 41.3862 310.651 41.0782H312.051V40.1962H309.685C309.433 40.0982 309.097 40.0282 308.719 40.0282C307.333 40.0282 306.157 40.9662 306.157 42.4502C306.157 43.2622 306.591 43.9202 307.039 44.2842V44.3402C306.689 44.5782 306.297 45.0262 306.297 45.6002C306.297 46.1322 306.563 46.4962 306.899 46.7062V46.7622C306.283 47.1822 305.905 47.7282 305.905 48.3022ZM308.719 44.0742C307.935 44.0742 307.277 43.4442 307.277 42.4502C307.277 41.4562 307.921 40.8682 308.719 40.8682C309.517 40.8682 310.161 41.4562 310.161 42.4502C310.161 43.4442 309.503 44.0742 308.719 44.0742ZM315.625 47.1682C314.477 47.1682 313.622 46.4542 313.622 45.2362C313.622 43.7522 314.91 43.0102 317.809 42.6882C317.809 41.8202 317.514 40.9802 316.409 40.9802C315.611 40.9802 314.91 41.3442 314.378 41.7082L313.917 40.9102C314.547 40.5042 315.499 40.0282 316.591 40.0282C318.257 40.0282 318.956 41.1342 318.956 42.8282V47.0002H318.005L317.906 46.1882H317.878C317.22 46.7202 316.465 47.1682 315.625 47.1682ZM317.809 43.4442C315.526 43.7242 314.757 44.2842 314.757 45.1522C314.757 45.9222 315.275 46.2442 315.947 46.2442C316.604 46.2442 317.151 45.9222 317.809 45.3342V43.4442ZM321.823 47.0002H322.971V42.0722C323.657 41.3862 324.133 41.0222 324.833 41.0222C325.729 41.0222 326.121 41.5682 326.121 42.8422V47.0002H327.269V42.6882C327.269 40.9522 326.625 40.0282 325.197 40.0282C324.259 40.0282 323.559 40.5322 322.915 41.1762H322.873L322.775 40.1962H321.823V47.0002ZM331.565 38.0542C331.565 38.4882 331.215 38.7962 330.767 38.7962C330.319 38.7962 329.969 38.4882 329.969 38.0542C329.969 37.6062 330.319 37.3122 330.767 37.3122C331.215 37.3122 331.565 37.6062 331.565 38.0542ZM331.327 47.0002H330.179V40.1962H331.327V47.0002ZM333.61 47.0002H338.762V46.0622H335.066L338.65 40.8122V40.1962H334.002V41.1342H337.194L333.61 46.3842V47.0002ZM342.309 47.1682C341.161 47.1682 340.307 46.4542 340.307 45.2362C340.307 43.7522 341.595 43.0102 344.493 42.6882C344.493 41.8202 344.199 40.9802 343.093 40.9802C342.295 40.9802 341.595 41.3442 341.063 41.7082L340.601 40.9102C341.231 40.5042 342.183 40.0282 343.275 40.0282C344.941 40.0282 345.641 41.1342 345.641 42.8282V47.0002H344.689L344.591 46.1882H344.563C343.905 46.7202 343.149 47.1682 342.309 47.1682ZM344.493 43.4442C342.211 43.7242 341.441 44.2842 341.441 45.1522C341.441 45.9222 341.959 46.2442 342.631 46.2442C343.289 46.2442 343.835 45.9222 344.493 45.3342V43.4442ZM348.703 44.9002C348.703 46.2442 349.193 47.1682 350.649 47.1682C351.069 47.1682 351.531 47.0422 351.909 46.9162L351.685 46.0482C351.461 46.1322 351.153 46.2302 350.915 46.2302C350.131 46.2302 349.865 45.7542 349.865 44.9142V41.1342H351.699V40.1962H349.865V38.2922H348.899L348.759 40.1962L347.695 40.2662V41.1342H348.703V44.9002ZM355.324 38.0542C355.324 38.4882 354.974 38.7962 354.526 38.7962C354.078 38.7962 353.728 38.4882 353.728 38.0542C353.728 37.6062 354.078 37.3122 354.526 37.3122C354.974 37.3122 355.324 37.6062 355.324 38.0542ZM355.086 47.0002H353.938V40.1962H355.086V47.0002ZM357.579 43.6122C357.579 45.8662 359.063 47.1682 360.729 47.1682C362.395 47.1682 363.879 45.8662 363.879 43.6122C363.879 41.3302 362.395 40.0282 360.729 40.0282C359.063 40.0282 357.579 41.3302 357.579 43.6122ZM358.769 43.6122C358.769 42.0442 359.567 40.9802 360.729 40.9802C361.905 40.9802 362.689 42.0442 362.689 43.6122C362.689 45.1662 361.905 46.2162 360.729 46.2162C359.567 46.2162 358.769 45.1662 358.769 43.6122ZM367.519 47.0002H366.371V40.1962H367.323L367.421 41.1762H367.463C368.107 40.5322 368.807 40.0282 369.745 40.0282C371.173 40.0282 371.817 40.9522 371.817 42.6882V47.0002H370.669V42.8422C370.669 41.5682 370.277 41.0222 369.381 41.0222C368.681 41.0222 368.205 41.3862 367.519 42.0722V47.0002Z" fill="#9099A9"/>
</svg>
