<svg width="52" height="47" viewBox="0 0 52 47" fill="none" xmlns="http://www.w3.org/2000/svg">
<path d="M39.3334 30.3337H37.2267L36.4801 29.6137C39.6801 25.8804 41.3334 20.7871 40.4267 15.3737C39.1734 7.9604 32.9867 2.06706 25.5467 1.13373C15.4401 -0.119604 6.80008 7.34706 6.08008 17.0004H11.4667C12.1067 11.3471 16.5867 6.86706 22.2934 6.38706C29.0667 5.8004 35.3334 11.5337 35.3334 18.3337C35.3334 24.9737 29.9734 30.3337 23.3334 30.3337C22.8801 30.3337 22.4534 30.2537 22.0001 30.2004V35.5871C22.0001 35.5871 22.0001 35.5871 22.0267 35.6137C26.8267 35.9604 31.2801 34.3604 34.6134 31.4804L35.3334 32.2271V34.3337L46.6667 45.6671C47.7601 46.7604 49.5467 46.7604 50.6401 45.6671C51.7334 44.5737 51.7334 42.7871 50.6401 41.6937L39.3334 30.3337Z" fill="url(#paint0_linear_42_3267)"/>
<path d="M14.3202 22.7867L8.66688 28.4401L3.01355 22.7867C2.48021 22.2534 1.65355 22.2534 1.12021 22.7867C0.586882 23.3201 0.586882 24.1467 1.12021 24.6801L6.77355 30.3334L1.12021 35.9867C0.586882 36.5201 0.586882 37.3467 1.12021 37.8801C1.65355 38.4134 2.48021 38.4134 3.01355 37.8801L8.66688 32.2267L14.3202 37.8801C14.8535 38.4134 15.6802 38.4134 16.2135 37.8801C16.7469 37.3467 16.7469 36.5201 16.2135 35.9867L10.5602 30.3334L16.2135 24.6801C16.7469 24.1467 16.7469 23.3201 16.2135 22.7867C15.6802 22.2801 14.8535 22.2801 14.3202 22.7867Z" fill="url(#paint1_linear_42_3267)"/>
<defs>
<linearGradient id="paint0_linear_42_3267" x1="51.4601" y1="46.5976" x2="5.96924" y2="1.21771" gradientUnits="userSpaceOnUse">
<stop offset="0.275366" stop-color="#0175B2"/>
<stop offset="0.956923" stop-color="#0175B2" stop-opacity="0.3"/>
</linearGradient>
<linearGradient id="paint1_linear_42_3267" x1="16.6135" y1="38.3187" x2="0.720214" y2="22.4253" gradientUnits="userSpaceOnUse">
<stop offset="0.275366" stop-color="#0175B2"/>
<stop offset="0.956923" stop-color="#0175B2" stop-opacity="0.3"/>
</linearGradient>
</defs>
</svg>
