<svg width="50" height="46" viewBox="0 0 50 46" fill="none" xmlns="http://www.w3.org/2000/svg">
<path d="M13.9249 26.4619L21.2358 19.1511L5.24492 3.18609C4.00492 1.94609 1.86076 2.28192 1.08576 3.88359C-0.748408 7.73276 -0.076742 12.4603 3.10076 15.6636L13.9249 26.4619ZM31.4399 21.7861C35.3924 23.6203 40.9466 22.3286 45.0541 18.2211C49.9883 13.2869 50.9441 6.20859 47.1466 2.41109C43.3749 -1.36058 36.2966 -0.430577 31.3366 4.50359C27.2291 8.61109 25.9374 14.1653 27.7716 18.1178L4.36659 41.5228C3.35909 42.5303 3.35909 44.1578 4.36659 45.1653C5.37409 46.1728 7.00159 46.1728 8.00909 45.1653L23.9999 29.2261L39.9649 45.1911C40.9724 46.1986 42.5999 46.1986 43.6074 45.1911C44.6149 44.1836 44.6149 42.5561 43.6074 41.5486L27.6424 25.5836L31.4399 21.7861Z" fill="url(#paint0_linear_541_4610)"/>
<defs>
<linearGradient id="paint0_linear_541_4610" x1="49.474" y1="46.0581" x2="3.74871" y2="-3.2005" gradientUnits="userSpaceOnUse">
<stop offset="0.275366" stop-color="#0175B2"/>
<stop offset="0.956923" stop-color="#0175B2" stop-opacity="0.3"/>
</linearGradient>
</defs>
</svg>
