<svg width="53" height="52" viewBox="0 0 53 52" fill="none" xmlns="http://www.w3.org/2000/svg">
<path d="M16.0835 41.5003C13.2418 41.5003 10.9427 43.8253 10.9427 46.667C10.9427 49.5087 13.2418 51.8337 16.0835 51.8337C18.9252 51.8337 21.2502 49.5087 21.2502 46.667C21.2502 43.8253 18.9252 41.5003 16.0835 41.5003ZM0.583496 2.75033C0.583496 4.17116 1.746 5.33366 3.16683 5.33366H5.75016L15.0502 24.9412L11.5627 31.2445C9.67683 34.7062 12.1568 38.917 16.0835 38.917H44.5002C45.921 38.917 47.0835 37.7545 47.0835 36.3337C47.0835 34.9128 45.921 33.7503 44.5002 33.7503H16.0835L18.9252 28.5837H38.171C40.1085 28.5837 41.8135 27.5245 42.6918 25.9228L51.9402 9.15699C52.896 7.45199 51.656 5.33366 49.6927 5.33366H11.4593L9.7285 1.63949C9.31516 0.735325 8.38516 0.166992 7.4035 0.166992H3.16683C1.746 0.166992 0.583496 1.32949 0.583496 2.75033ZM41.9168 41.5003C39.0752 41.5003 36.776 43.8253 36.776 46.667C36.776 49.5087 39.0752 51.8337 41.9168 51.8337C44.7585 51.8337 47.0835 49.5087 47.0835 46.667C47.0835 43.8253 44.7585 41.5003 41.9168 41.5003Z" fill="url(#paint0_linear_541_4598)"/>
<defs>
<linearGradient id="paint0_linear_541_4598" x1="52.2694" y1="51.9592" x2="0.602691" y2="0.273315" gradientUnits="userSpaceOnUse">
<stop offset="0.275366" stop-color="#0175B2"/>
<stop offset="0.956923" stop-color="#0175B2" stop-opacity="0.3"/>
</linearGradient>
</defs>
</svg>
