<svg width="58" height="50" viewBox="0 0 58 50" fill="none" xmlns="http://www.w3.org/2000/svg">
<path d="M54.8335 18.2504H42.4593L31.1185 1.27789C30.0852 -0.246276 27.8377 -0.246276 26.8302 1.27789L15.4893 18.2504H3.16683C1.746 18.2504 0.583496 19.4129 0.583496 20.8337C0.583496 21.0662 0.609329 21.2987 0.686829 21.5312L7.2485 45.4787C7.84266 47.6487 9.83183 49.2504 12.2085 49.2504H45.7918C48.1685 49.2504 50.1577 47.6487 50.7777 45.4787L57.3393 21.5312L57.4168 20.8337C57.4168 19.4129 56.2543 18.2504 54.8335 18.2504ZM28.9743 7.37456L36.2335 18.2504H21.7152L28.9743 7.37456ZM29.0002 38.9171C26.1585 38.9171 23.8335 36.5921 23.8335 33.7504C23.8335 30.9087 26.1585 28.5837 29.0002 28.5837C31.8418 28.5837 34.1668 30.9087 34.1668 33.7504C34.1668 36.5921 31.8418 38.9171 29.0002 38.9171Z" fill="url(#paint0_linear_541_4594)"/>
<defs>
<linearGradient id="paint0_linear_541_4594" x1="57.4168" y1="49.3697" x2="8.81969" y2="-6.86367" gradientUnits="userSpaceOnUse">
<stop offset="0.275366" stop-color="#0175B2"/>
<stop offset="0.956923" stop-color="#0175B2" stop-opacity="0.3"/>
</linearGradient>
</defs>
</svg>
