<svg width="52" height="52" viewBox="0 0 52 52" fill="none" xmlns="http://www.w3.org/2000/svg">
<mask id="path-1-inside-1_541_5123" fill="white">
<path d="M18.2502 36.0749C12.8252 35.5582 8.17523 33.4915 5.33356 30.1332C3.26689 30.1332 1.20023 28.8415 0.425226 26.7749C-0.349774 24.7082 0.425226 22.6415 2.23356 21.3499C2.49189 13.5999 9.46689 5.59153 20.0586 1.97487C30.6502 -1.6418 41.5002 0.424866 46.6669 6.36653C48.7336 6.36653 50.8002 7.6582 51.5752 9.72486C52.3502 11.7915 51.5752 13.8582 49.7669 15.1499C49.7669 17.2165 49.2502 19.2832 48.2169 21.3499C45.1169 19.5415 41.5002 18.2499 37.6252 18.2499C27.5502 18.2499 19.0252 25.9999 18.2502 36.0749ZM51.8336 37.6249C51.8336 45.3749 45.3752 51.8332 37.6252 51.8332C29.8752 51.8332 23.4169 45.3749 23.4169 37.6249C23.4169 29.8749 29.8752 23.4165 37.6252 23.4165C45.3752 23.4165 51.8336 29.8749 51.8336 37.6249ZM29.3586 41.4999L35.3002 37.6249L29.3586 33.7499C28.8419 35.0415 28.5836 36.3332 28.5836 37.6249C28.5836 38.9165 28.8419 40.2082 29.3586 41.4999ZM36.3336 39.9499L30.9086 43.5665C32.2002 45.1165 34.2669 46.1499 36.3336 46.6665V39.9499ZM36.3336 28.8415C34.2669 29.0999 32.2002 30.1332 30.9086 31.9415L36.3336 35.5582V28.8415ZM38.9169 35.2999L44.3419 31.6832C43.0502 30.1332 40.9836 29.0999 38.9169 28.5832V35.2999ZM44.3419 43.5665L38.9169 39.9499V46.4082C40.9836 46.1499 43.0502 45.1165 44.3419 43.5665ZM46.6669 37.6249C46.6669 36.3332 46.4086 35.0415 45.8919 33.7499L39.9502 37.6249L45.8919 41.4999C46.4086 40.2082 46.6669 38.9165 46.6669 37.6249Z"/>
</mask>
<path d="M18.2502 36.0749C12.8252 35.5582 8.17523 33.4915 5.33356 30.1332C3.26689 30.1332 1.20023 28.8415 0.425226 26.7749C-0.349774 24.7082 0.425226 22.6415 2.23356 21.3499C2.49189 13.5999 9.46689 5.59153 20.0586 1.97487C30.6502 -1.6418 41.5002 0.424866 46.6669 6.36653C48.7336 6.36653 50.8002 7.6582 51.5752 9.72486C52.3502 11.7915 51.5752 13.8582 49.7669 15.1499C49.7669 17.2165 49.2502 19.2832 48.2169 21.3499C45.1169 19.5415 41.5002 18.2499 37.6252 18.2499C27.5502 18.2499 19.0252 25.9999 18.2502 36.0749ZM51.8336 37.6249C51.8336 45.3749 45.3752 51.8332 37.6252 51.8332C29.8752 51.8332 23.4169 45.3749 23.4169 37.6249C23.4169 29.8749 29.8752 23.4165 37.6252 23.4165C45.3752 23.4165 51.8336 29.8749 51.8336 37.6249ZM29.3586 41.4999L35.3002 37.6249L29.3586 33.7499C28.8419 35.0415 28.5836 36.3332 28.5836 37.6249C28.5836 38.9165 28.8419 40.2082 29.3586 41.4999ZM36.3336 39.9499L30.9086 43.5665C32.2002 45.1165 34.2669 46.1499 36.3336 46.6665V39.9499ZM36.3336 28.8415C34.2669 29.0999 32.2002 30.1332 30.9086 31.9415L36.3336 35.5582V28.8415ZM38.9169 35.2999L44.3419 31.6832C43.0502 30.1332 40.9836 29.0999 38.9169 28.5832V35.2999ZM44.3419 43.5665L38.9169 39.9499V46.4082C40.9836 46.1499 43.0502 45.1165 44.3419 43.5665ZM46.6669 37.6249C46.6669 36.3332 46.4086 35.0415 45.8919 33.7499L39.9502 37.6249L45.8919 41.4999C46.4086 40.2082 46.6669 38.9165 46.6669 37.6249Z" fill="url(#paint0_linear_541_5123)"/>
<path d="M18.2502 36.0749L17.871 40.0568L21.926 40.443L22.2384 36.3816L18.2502 36.0749ZM5.33356 30.1332L8.3871 27.5494L7.18875 26.1332H5.33356V30.1332ZM2.23356 21.3499L4.55851 24.6048L6.16555 23.4569L6.23134 21.4831L2.23356 21.3499ZM46.6669 6.36653L43.6485 8.99125L44.8444 10.3665H46.6669V6.36653ZM49.7669 15.1499L47.4419 11.8949L45.7669 13.0914V15.1499H49.7669ZM48.2169 21.3499L46.2014 24.805L49.8866 26.9547L51.7946 23.1387L48.2169 21.3499ZM29.3586 41.4999L25.6447 42.9854L27.4567 47.5157L31.5436 44.8503L29.3586 41.4999ZM35.3002 37.6249L37.4853 40.9753L42.6226 37.6249L37.4853 34.2744L35.3002 37.6249ZM29.3586 33.7499L31.5436 30.3994L27.4567 27.7341L25.6447 32.2643L29.3586 33.7499ZM30.9086 43.5665L28.6898 40.2383L24.9859 42.7076L27.8357 46.1273L30.9086 43.5665ZM36.3336 46.6665L35.3634 50.5471L40.3336 51.7896V46.6665H36.3336ZM36.3336 28.8415H40.3336V24.3104L35.8374 24.8724L36.3336 28.8415ZM30.9086 31.9415L27.6536 29.6166L25.2525 32.9782L28.6898 35.2697L30.9086 31.9415ZM36.3336 35.5582L34.1148 38.8864L40.3336 43.0323V35.5582H36.3336ZM38.9169 35.2999H34.9169V42.7739L41.1357 38.6281L38.9169 35.2999ZM44.3419 31.6832L46.5607 35.0114L50.2645 32.5422L47.4148 29.1225L44.3419 31.6832ZM38.9169 28.5832L39.887 24.7026L34.9169 23.4601V28.5832H38.9169ZM38.9169 39.9499L41.1357 36.6217L34.9169 32.4758V39.9499H38.9169ZM38.9169 46.4082H34.9169V50.9393L39.413 50.3773L38.9169 46.4082ZM45.8919 33.7499L49.6058 32.2643L47.7937 27.7341L43.7068 30.3994L45.8919 33.7499ZM39.9502 37.6249L37.7652 34.2744L32.6278 37.6249L37.7652 40.9753L39.9502 37.6249ZM45.8919 41.4999L43.7068 44.8503L47.7937 47.5157L49.6058 42.9854L45.8919 41.4999ZM18.6295 32.0929C13.9143 31.6438 10.3666 29.8888 8.3871 27.5494L2.28001 32.717C5.98387 37.0942 11.7362 39.4726 17.871 40.0568L18.6295 32.0929ZM5.33356 26.1332C4.81589 26.1332 4.31959 25.7678 4.17054 25.3704L-3.32009 28.1794C-1.91914 31.9152 1.71789 34.1332 5.33356 34.1332V26.1332ZM4.17054 25.3704C4.13225 25.2683 4.12652 25.2043 4.12602 25.173C4.12551 25.1413 4.12981 25.1114 4.14213 25.0757C4.16506 25.0092 4.25462 24.8219 4.55851 24.6048L-0.0913938 18.0949C-3.1708 20.2945 -4.8143 24.1948 -3.32009 28.1794L4.17054 25.3704ZM6.23134 21.4831C6.4146 15.9852 11.6869 9.06024 21.3511 5.76027L18.766 -1.81053C7.24687 2.12282 -1.43082 11.2145 -1.76422 21.2166L6.23134 21.4831ZM21.3511 5.76027C31.0023 2.46473 39.911 4.69321 43.6485 8.99125L49.6853 3.74182C43.0894 -3.84347 30.2981 -5.74833 18.766 -1.81053L21.3511 5.76027ZM46.6669 10.3665C47.1846 10.3665 47.6809 10.7319 47.8299 11.1294L55.3205 8.32037C53.9196 4.58449 50.2826 2.36653 46.6669 2.36653V10.3665ZM47.8299 11.1294C47.8682 11.2315 47.8739 11.2954 47.8744 11.3267C47.8749 11.3584 47.8706 11.3883 47.8583 11.424C47.8354 11.4905 47.7458 11.6779 47.4419 11.8949L52.0918 18.4048C55.1713 16.2052 56.8147 12.3049 55.3205 8.32037L47.8299 11.1294ZM45.7669 15.1499C45.7669 16.5255 45.4279 17.9835 44.6392 19.561L51.7946 23.1387C53.0725 20.5829 53.7669 17.9076 53.7669 15.1499H45.7669ZM50.2324 17.8947C46.7024 15.8356 42.3928 14.2499 37.6252 14.2499V22.2499C40.6076 22.2499 43.5314 23.2475 46.2014 24.805L50.2324 17.8947ZM37.6252 14.2499C25.497 14.2499 15.2001 23.5725 14.262 35.7681L22.2384 36.3816C22.8503 28.4272 29.6035 22.2499 37.6252 22.2499V14.2499ZM47.8336 37.6249C47.8336 43.1657 43.1661 47.8332 37.6252 47.8332V55.8332C47.5844 55.8332 55.8336 47.584 55.8336 37.6249H47.8336ZM37.6252 47.8332C32.0844 47.8332 27.4169 43.1657 27.4169 37.6249H19.4169C19.4169 47.584 27.6661 55.8332 37.6252 55.8332V47.8332ZM27.4169 37.6249C27.4169 32.084 32.0844 27.4165 37.6252 27.4165V19.4165C27.6661 19.4165 19.4169 27.6657 19.4169 37.6249H27.4169ZM37.6252 27.4165C43.1661 27.4165 47.8336 32.084 47.8336 37.6249H55.8336C55.8336 27.6657 47.5844 19.4165 37.6252 19.4165V27.4165ZM31.5436 44.8503L37.4853 40.9753L33.1152 34.2744L27.1735 38.1494L31.5436 44.8503ZM37.4853 34.2744L31.5436 30.3994L27.1735 37.1003L33.1152 40.9753L37.4853 34.2744ZM25.6447 32.2643C24.9537 33.9918 24.5836 35.7862 24.5836 37.6249H32.5836C32.5836 36.8801 32.7301 36.0913 33.0725 35.2354L25.6447 32.2643ZM24.5836 37.6249C24.5836 39.4635 24.9537 41.258 25.6447 42.9854L33.0725 40.0143C32.7301 39.1584 32.5836 38.3696 32.5836 37.6249H24.5836ZM34.1148 36.6217L28.6898 40.2383L33.1274 46.8947L38.5524 43.2781L34.1148 36.6217ZM27.8357 46.1273C29.8554 48.5509 32.8066 49.9079 35.3634 50.5471L37.3037 42.786C35.7272 42.3918 34.5451 41.6822 33.9814 41.0058L27.8357 46.1273ZM40.3336 46.6665V39.9499H32.3336V46.6665H40.3336ZM35.8374 24.8724C32.8615 25.2444 29.7032 26.7472 27.6536 29.6166L34.1635 34.2665C34.6973 33.5192 35.6723 32.9553 36.8297 32.8106L35.8374 24.8724ZM28.6898 35.2697L34.1148 38.8864L38.5524 32.23L33.1274 28.6133L28.6898 35.2697ZM40.3336 35.5582V28.8415H32.3336V35.5582H40.3336ZM41.1357 38.6281L46.5607 35.0114L42.1231 28.355L36.6981 31.9717L41.1357 38.6281ZM47.4148 29.1225C45.3951 26.6988 42.4438 25.3418 39.887 24.7026L37.9468 32.4638C39.5233 32.8579 40.7054 33.5676 41.269 34.2439L47.4148 29.1225ZM34.9169 28.5832V35.2999H42.9169V28.5832H34.9169ZM46.5607 40.2383L41.1357 36.6217L36.6981 43.2781L42.1231 46.8947L46.5607 40.2383ZM34.9169 39.9499V46.4082H42.9169V39.9499H34.9169ZM39.413 50.3773C42.3523 50.0099 45.3923 48.5542 47.4148 46.1273L41.269 41.0058C40.7081 41.6789 39.6148 42.2898 38.4208 42.4391L39.413 50.3773ZM50.6669 37.6249C50.6669 35.7863 50.2968 33.9918 49.6058 32.2643L42.178 35.2354C42.5203 36.0913 42.6669 36.8801 42.6669 37.6249H50.6669ZM43.7068 30.3994L37.7652 34.2744L42.1353 40.9753L48.077 37.1003L43.7068 30.3994ZM37.7652 40.9753L43.7068 44.8503L48.077 38.1494L42.1353 34.2744L37.7652 40.9753ZM49.6058 42.9854C50.2968 41.258 50.6669 39.4635 50.6669 37.6249H42.6669C42.6669 38.3696 42.5203 39.1584 42.178 40.0143L49.6058 42.9854Z" fill="url(#paint1_linear_541_5123)" mask="url(#path-1-inside-1_541_5123)"/>
<defs>
<linearGradient id="paint0_linear_541_5123" x1="51.8745" y1="51.9587" x2="0.22692" y2="0.210265" gradientUnits="userSpaceOnUse">
<stop offset="0.29459" stop-color="#0175B2"/>
<stop offset="0.956923" stop-color="#79B0CC"/>
</linearGradient>
<linearGradient id="paint1_linear_541_5123" x1="51.8745" y1="51.9587" x2="0.22692" y2="0.210265" gradientUnits="userSpaceOnUse">
<stop offset="0.275366" stop-color="#0175B2"/>
<stop offset="0.956923" stop-color="#79B0CC"/>
</linearGradient>
</defs>
</svg>
