<svg width="51" height="52" viewBox="0 0 51 52" fill="none" xmlns="http://www.w3.org/2000/svg">
<path d="M4.625 5.33366C4.625 2.46616 6.92417 0.166992 9.79167 0.166992C12.6592 0.166992 14.9583 2.46616 14.9583 5.33366C14.9583 8.20116 12.6592 10.5003 9.79167 10.5003C6.92417 10.5003 4.625 8.20116 4.625 5.33366ZM18.8333 23.2878V18.2503C18.8333 15.4087 16.5083 13.0837 13.6667 13.0837H5.91667C3.075 13.0837 0.75 15.4087 0.75 18.2503V31.167C0.75 32.5878 1.9125 33.7503 3.33333 33.7503H5.91667V49.2503C5.91667 50.6712 7.07917 51.8337 8.5 51.8337H14.9583V51.5495C11.755 48.2945 9.79167 43.8253 9.79167 38.917C9.79167 32.252 13.4342 26.4137 18.8333 23.2878ZM35.625 38.917C35.625 43.1795 32.1375 46.667 27.875 46.667C23.6125 46.667 20.125 43.1795 20.125 38.917C20.125 36.0495 21.7008 33.5953 24 32.252V26.672C18.7817 28.3253 14.9583 33.1562 14.9583 38.917C14.9583 46.047 20.745 51.8337 27.875 51.8337C35.005 51.8337 40.7917 46.047 40.7917 38.917H35.625ZM42.0833 31.167H31.75V18.2503C31.75 16.8295 30.5875 15.667 29.1667 15.667C27.7458 15.667 26.5833 16.8295 26.5833 18.2503V33.7503C26.5833 35.1712 27.7458 36.3337 29.1667 36.3337H40.6883L45.6483 43.7737C46.4492 44.962 48.0508 45.272 49.2392 44.497C50.4275 43.6962 50.7375 42.0945 49.9625 40.9062L44.2533 32.3295C43.7625 31.6062 42.9358 31.167 42.0833 31.167Z" fill="url(#paint0_linear_107_6)"/>
<ellipse cx="29.0655" cy="9.67247" rx="3.95275" ry="3.95274" fill="url(#paint1_linear_107_6)"/>
<defs>
<linearGradient id="paint0_linear_107_6" x1="50.3876" y1="51.9592" x2="-1.23762" y2="2.36137" gradientUnits="userSpaceOnUse">
<stop offset="0.275366" stop-color="#0175B2"/>
<stop offset="0.956923" stop-color="#0175B2" stop-opacity="0.3"/>
</linearGradient>
<linearGradient id="paint1_linear_107_6" x1="33.0183" y1="13.6444" x2="25.1128" y2="5.73893" gradientUnits="userSpaceOnUse">
<stop offset="0.275366" stop-color="#0175B2"/>
<stop offset="0.956923" stop-color="#0175B2" stop-opacity="0.3"/>
</linearGradient>
</defs>
</svg>
