<svg width="55" height="46" viewBox="0 0 55 46" fill="none" xmlns="http://www.w3.org/2000/svg">
<path d="M7.91656 26.0486V33.3078C7.91656 35.1936 8.94989 36.9503 10.6032 37.8545L23.5199 44.907C25.0699 45.7595 26.9299 45.7595 28.4799 44.907L41.3966 37.8545C43.0499 36.9503 44.0832 35.1936 44.0832 33.3078V26.0486L28.4799 34.5736C26.9299 35.4261 25.0699 35.4261 23.5199 34.5736L7.91656 26.0486ZM23.5199 1.09363L1.74239 12.977C-0.0401075 13.9586 -0.0401075 16.542 1.74239 17.5236L23.5199 29.407C25.0699 30.2595 26.9299 30.2595 28.4799 29.407L49.2499 18.0661V33.3336C49.2499 34.7545 50.4124 35.917 51.8332 35.917C53.2541 35.917 54.4166 34.7545 54.4166 33.3336V16.7745C54.4166 15.8186 53.8999 14.9661 53.0732 14.5011L28.4799 1.09363C26.9299 0.266966 25.0699 0.266966 23.5199 1.09363Z" fill="url(#paint0_linear_360_7248)"/>
<defs>
<linearGradient id="paint0_linear_360_7248" x1="54.4166" y1="45.6558" x2="10.0715" y2="-7.48324" gradientUnits="userSpaceOnUse">
<stop offset="0.275366" stop-color="#0175B2"/>
<stop offset="0.956923" stop-color="#0175B2" stop-opacity="0.3"/>
</linearGradient>
</defs>
</svg>
