<svg width="53" height="52" viewBox="0 0 53 52" fill="none" xmlns="http://www.w3.org/2000/svg">
<path d="M36.3332 5.33366C36.3332 2.46616 38.6323 0.166992 41.4998 0.166992C44.3673 0.166992 46.6665 2.46616 46.6665 5.33366C46.6665 8.20116 44.3673 10.5003 41.4998 10.5003C38.6323 10.5003 36.3332 8.20116 36.3332 5.33366ZM46.6665 49.2503V36.3337H49.534C51.2907 36.3337 52.5307 34.6028 51.9882 32.9237L46.5632 16.6228C45.8398 14.5045 43.8765 13.0837 41.6548 13.0837H41.3448C39.1232 13.0837 37.134 14.5045 36.4365 16.6228L34.2148 23.2878C37.0048 24.8378 38.9165 27.757 38.9165 31.167V51.8337H44.0832C45.504 51.8337 46.6665 50.6712 46.6665 49.2503ZM27.2915 24.7087C29.4357 24.7087 31.1665 22.9778 31.1665 20.8337C31.1665 18.6895 29.4357 16.9587 27.2915 16.9587C25.1473 16.9587 23.4165 18.6895 23.4165 20.8337C23.4165 22.9778 25.1473 24.7087 27.2915 24.7087ZM9.20817 10.5003C12.0757 10.5003 14.3748 8.20116 14.3748 5.33366C14.3748 2.46616 12.0757 0.166992 9.20817 0.166992C6.34067 0.166992 4.0415 2.46616 4.0415 5.33366C4.0415 8.20116 6.34067 10.5003 9.20817 10.5003ZM14.3748 49.2503V33.7503H15.6665C17.0873 33.7503 18.2498 32.5878 18.2498 31.167V18.2503C18.2498 15.4087 15.9248 13.0837 13.0832 13.0837H5.33317C2.4915 13.0837 0.166504 15.4087 0.166504 18.2503V31.167C0.166504 32.5878 1.329 33.7503 2.74984 33.7503H4.0415V49.2503C4.0415 50.6712 5.204 51.8337 6.62484 51.8337H11.7915C13.2123 51.8337 14.3748 50.6712 14.3748 49.2503ZM20.8332 31.167V38.917C20.8332 40.3378 21.9957 41.5003 23.4165 41.5003V49.2503C23.4165 50.6712 24.579 51.8337 25.9998 51.8337H28.5832C30.004 51.8337 31.1665 50.6712 31.1665 49.2503V41.5003C32.5873 41.5003 33.7498 40.3378 33.7498 38.917V31.167C33.7498 29.0487 31.9932 27.292 29.8748 27.292H24.7082C22.5898 27.292 20.8332 29.0487 20.8332 31.167Z" fill="url(#paint0_linear_360_1808)"/>
<defs>
<linearGradient id="paint0_linear_360_1808" x1="52.1169" y1="51.9592" x2="0.450974" y2="0.00958691" gradientUnits="userSpaceOnUse">
<stop offset="0.275366" stop-color="#0175B2"/>
<stop offset="0.956923" stop-color="#0175B2" stop-opacity="0.3"/>
</linearGradient>
</defs>
</svg>
