<svg width="52" height="52" viewBox="0 0 52 52" fill="none" xmlns="http://www.w3.org/2000/svg">
<path d="M25.9998 0.166992C11.7398 0.166992 0.166504 11.7403 0.166504 26.0003C0.166504 40.2603 11.7398 51.8337 25.9998 51.8337C40.2598 51.8337 51.8332 40.2603 51.8332 26.0003C51.8332 11.7403 40.2598 0.166992 25.9998 0.166992ZM29.6423 41.7328V43.2312C29.6423 45.117 28.0923 46.667 26.2065 46.667H26.1807C24.2948 46.667 22.7448 45.117 22.7448 43.2312V41.6812C19.309 40.9578 16.2607 39.072 14.969 35.8945C14.3748 34.4737 15.4857 32.8978 17.0357 32.8978H17.6557C18.6115 32.8978 19.3865 33.5437 19.7482 34.4478C20.4973 36.3853 22.4607 37.7287 26.2323 37.7287C31.2957 37.7287 32.4323 35.197 32.4323 33.6212C32.4323 31.477 31.2957 29.462 25.5348 28.0928C19.1282 26.5428 14.7365 23.9078 14.7365 18.612C14.7365 14.1687 18.3273 11.2753 22.7707 10.3195V8.76949C22.7707 6.88366 24.3207 5.33366 26.2065 5.33366H26.2323C28.1182 5.33366 29.6682 6.88366 29.6682 8.76949V10.3712C33.2332 11.2495 35.4807 13.4712 36.4623 16.2095C36.979 17.6303 35.894 19.1287 34.3698 19.1287H33.6982C32.7423 19.1287 31.9673 18.457 31.709 17.527C31.1148 15.5637 29.4873 14.2978 26.2323 14.2978C22.3573 14.2978 20.0323 16.0545 20.0323 18.5345C20.0323 20.7045 21.7115 22.1253 26.9298 23.4687C32.1482 24.812 37.7282 27.0595 37.7282 33.5695C37.6765 38.297 34.1373 40.8803 29.6423 41.7328Z" fill="url(#paint0_linear_360_7250)"/>
<defs>
<linearGradient id="paint0_linear_360_7250" x1="51.8332" y1="51.9592" x2="0.166504" y2="0.292503" gradientUnits="userSpaceOnUse">
<stop offset="0.275366" stop-color="#0175B2"/>
<stop offset="0.956923" stop-color="#0175B2" stop-opacity="0.3"/>
</linearGradient>
</defs>
</svg>
