<svg width="42" height="54" viewBox="0 0 42 54" fill="none" xmlns="http://www.w3.org/2000/svg">
<path d="M40.3235 28.9039C36.2677 18.3639 21.8268 17.7955 25.3143 2.47638C25.5727 1.33971 24.3585 0.461378 23.3768 1.05555C13.9993 6.58388 7.25683 17.6664 12.9143 32.1847C13.3793 33.373 11.9843 34.4839 10.9768 33.7089C6.301 30.1697 5.81016 25.0805 6.2235 21.438C6.3785 20.0947 4.62183 19.4489 3.87266 20.5597C2.116 23.2464 0.333496 27.5864 0.333496 34.1222C1.31516 48.5889 13.5343 53.0322 17.926 53.6005C24.2035 54.4014 30.9977 53.2389 35.8802 48.7697C41.2535 43.7839 43.2168 35.8272 40.3235 28.9039ZM16.3502 41.898C20.0702 40.9939 21.9818 38.3072 22.4985 35.9305C23.351 32.2364 20.0185 28.6197 22.266 22.7814C23.1185 27.6122 30.7135 30.6347 30.7135 35.9047C30.9202 42.4405 23.8418 48.0464 16.3502 41.898Z" fill="url(#paint0_linear_521_4448)"/>
<defs>
<linearGradient id="paint0_linear_521_4448" x1="41.6573" y1="53.9639" x2="-9.72159" y2="13.8821" gradientUnits="userSpaceOnUse">
<stop offset="0.275366" stop-color="#0175B2"/>
<stop offset="0.956923" stop-color="#0175B2" stop-opacity="0.3"/>
</linearGradient>
</defs>
</svg>
