<svg width="42" height="46" viewBox="0 0 42 46" fill="none" xmlns="http://www.w3.org/2000/svg">
<path d="M17.9002 1.07473L2.40016 12.6997C1.1085 13.6814 0.333496 15.2056 0.333496 16.8331V40.0831C0.333496 42.9247 2.6585 45.2497 5.50016 45.2497H36.5002C39.3418 45.2497 41.6668 42.9247 41.6668 40.0831V16.8331C41.6668 15.2056 40.8918 13.6814 39.6002 12.6997L24.1002 1.07473C22.266 -0.29444 19.7343 -0.29444 17.9002 1.07473ZM22.2918 23.2914C22.2918 25.4356 20.561 27.1664 18.4168 27.1664V36.2081C18.4168 36.9314 17.8485 37.4997 17.1252 37.4997C16.4018 37.4997 15.8335 36.9314 15.8335 36.2081V27.1664C13.6893 27.1664 11.9585 25.4356 11.9585 23.2914V16.8331C11.9585 16.1097 12.5268 15.5414 13.2502 15.5414C13.9735 15.5414 14.5418 16.1097 14.5418 16.8331V23.2914H15.8335V16.8331C15.8335 16.1097 16.4018 15.5414 17.1252 15.5414C17.8485 15.5414 18.4168 16.1097 18.4168 16.8331V23.2914H19.7085V16.8331C19.7085 16.1097 20.2768 15.5414 21.0002 15.5414C21.7235 15.5414 22.2918 16.1097 22.2918 16.8331V23.2914ZM27.4585 37.4997C26.7352 37.4997 26.1668 36.9314 26.1668 36.2081V28.4581H24.8752C24.1518 28.4581 23.5835 27.8897 23.5835 27.1664V20.7081C23.5835 18.4347 25.056 16.4972 27.0968 15.8256C27.8977 15.5414 28.7502 16.1872 28.7502 17.0656V36.2081C28.7502 36.9314 28.1818 37.4997 27.4585 37.4997Z" fill="url(#paint0_linear_360_5432)"/>
<defs>
<linearGradient id="paint0_linear_360_5432" x1="41.6668" y1="45.3595" x2="-3.35473" y2="4.19108" gradientUnits="userSpaceOnUse">
<stop offset="0.275366" stop-color="#0175B2"/>
<stop offset="0.956923" stop-color="#0175B2" stop-opacity="0.3"/>
</linearGradient>
</defs>
</svg>
