<svg width="62" height="62" viewBox="0 0 62 62" fill="none" xmlns="http://www.w3.org/2000/svg">
<path fill-rule="evenodd" clip-rule="evenodd" d="M30.9999 7.75H51.6665C53.0874 7.75 54.2499 8.9125 54.2499 10.3333V51.6667C54.2499 53.0875 53.0874 54.25 51.6665 54.25H43.9165V49.0833H49.0832V43.9167H43.9165V38.75H49.0832V33.5833H43.9165V31.9042C43.9165 29.7083 42.9865 27.59 41.359 26.1433L28.4424 14.5183L28.4165 14.4925V10.3333C28.4165 8.9125 29.579 7.75 30.9999 7.75ZM33.5832 18.0833H38.7499V12.9167H33.5832V18.0833ZM43.9165 28.4167H49.0832V23.25H43.9165V28.4167ZM43.9165 18.0833H49.0832V12.9167H43.9165V18.0833ZM38.75 31.9046V51.6671C38.75 53.088 37.5875 54.2505 36.1667 54.2505H31C29.5792 54.2505 28.4167 53.088 28.4167 51.6671V41.3338H18.0833V51.6671C18.0833 53.088 16.9208 54.2505 15.5 54.2505H10.3333C8.9125 54.2505 7.75 53.088 7.75 51.6671V31.9046C7.75 31.1555 8.06 30.458 8.6025 29.993L21.5192 18.368C22.01 17.9288 22.63 17.6963 23.25 17.6963C23.87 17.6963 24.49 17.903 24.9808 18.368L37.8975 29.993C38.44 30.4838 38.75 31.1813 38.75 31.9046Z" fill="url(#paint0_linear_522_57988)"/>
<defs>
<linearGradient id="paint0_linear_522_57988" x1="38.75" y1="54.3393" x2="2.68671" y2="23.7556" gradientUnits="userSpaceOnUse">
<stop offset="0.275366" stop-color="#0175B2"/>
<stop offset="0.956923" stop-color="#0175B2" stop-opacity="0.3"/>
</linearGradient>
</defs>
</svg>
