<svg width="50" height="54" viewBox="0 0 50 54" fill="none" xmlns="http://www.w3.org/2000/svg">
<path d="M5.33317 26.7088V37.0421C5.33317 39.1863 7.064 40.9171 9.20817 40.9171C11.3523 40.9171 13.0832 39.1863 13.0832 37.0421V26.7088C13.0832 24.5646 11.3523 22.8338 9.20817 22.8338C7.064 22.8338 5.33317 24.5646 5.33317 26.7088ZM20.8332 26.7088V37.0421C20.8332 39.1863 22.564 40.9171 24.7082 40.9171C26.8523 40.9171 28.5832 39.1863 28.5832 37.0421V26.7088C28.5832 24.5646 26.8523 22.8338 24.7082 22.8338C22.564 22.8338 20.8332 24.5646 20.8332 26.7088ZM4.0415 53.8338H45.3748C47.519 53.8338 49.2498 52.103 49.2498 49.9588C49.2498 47.8146 47.519 46.0838 45.3748 46.0838H4.0415C1.89734 46.0838 0.166504 47.8146 0.166504 49.9588C0.166504 52.103 1.89734 53.8338 4.0415 53.8338ZM36.3332 26.7088V37.0421C36.3332 39.1863 38.064 40.9171 40.2082 40.9171C42.3523 40.9171 44.0832 39.1863 44.0832 37.0421V26.7088C44.0832 24.5646 42.3523 22.8338 40.2082 22.8338C38.064 22.8338 36.3332 24.5646 36.3332 26.7088ZM22.3057 0.849648L1.89734 11.5963C0.838171 12.1388 0.166504 13.2496 0.166504 14.438C0.166504 16.2205 1.61317 17.6671 3.39567 17.6671H46.0465C47.8032 17.6671 49.2498 16.2205 49.2498 14.438C49.2498 13.2496 48.5782 12.1388 47.519 11.5963L27.1107 0.849648C25.6123 0.0488151 23.804 0.0488151 22.3057 0.849648Z" fill="url(#paint0_linear_360_1824)"/>
<defs>
<linearGradient id="paint0_linear_360_1824" x1="49.2498" y1="53.964" x2="-4.12933" y2="5.06901" gradientUnits="userSpaceOnUse">
<stop offset="0.275366" stop-color="#0175B2"/>
<stop offset="0.956923" stop-color="#0175B2" stop-opacity="0.3"/>
</linearGradient>
</defs>
</svg>
