<svg width="52" height="52" viewBox="0 0 52 52" fill="none" xmlns="http://www.w3.org/2000/svg">
<path d="M46.6665 10.5003H36.3332V5.33366C36.3332 2.49199 34.0082 0.166992 31.1665 0.166992H20.8332C17.9915 0.166992 15.6665 2.49199 15.6665 5.33366V10.5003H5.33317C2.4915 10.5003 0.166504 12.8253 0.166504 15.667V46.667C0.166504 49.5087 2.4915 51.8337 5.33317 51.8337H46.6665C49.5082 51.8337 51.8332 49.5087 51.8332 46.667V15.667C51.8332 12.8253 49.5082 10.5003 46.6665 10.5003ZM20.8332 5.33366H31.1665V10.5003H20.8332V5.33366ZM33.7498 33.7503H28.5832V38.917C28.5832 40.3378 27.4207 41.5003 25.9998 41.5003C24.579 41.5003 23.4165 40.3378 23.4165 38.917V33.7503H18.2498C16.829 33.7503 15.6665 32.5878 15.6665 31.167C15.6665 29.7462 16.829 28.5837 18.2498 28.5837H23.4165V23.417C23.4165 21.9962 24.579 20.8337 25.9998 20.8337C27.4207 20.8337 28.5832 21.9962 28.5832 23.417V28.5837H33.7498C35.1707 28.5837 36.3332 29.7462 36.3332 31.167C36.3332 32.5878 35.1707 33.7503 33.7498 33.7503Z" fill="url(#paint0_linear_360_2265)"/>
<defs>
<linearGradient id="paint0_linear_360_2265" x1="51.8332" y1="51.9592" x2="0.166504" y2="0.292503" gradientUnits="userSpaceOnUse">
<stop offset="0.275366" stop-color="#0175B2"/>
<stop offset="0.956923" stop-color="#0175B2" stop-opacity="0.3"/>
</linearGradient>
</defs>
</svg>
