<svg width="52" height="52" viewBox="0 0 52 52" fill="none" xmlns="http://www.w3.org/2000/svg">
<path d="M50.4898 30.392L29.8748 18.2503V4.04199C29.8748 1.89783 28.144 0.166992 25.9998 0.166992C23.8557 0.166992 22.1248 1.89783 22.1248 4.04199V18.2503L1.50984 30.392C0.68317 30.857 0.166504 31.7612 0.166504 32.717C0.166504 34.5253 1.89734 35.817 3.62817 35.3262L22.1248 29.9012V44.0837L16.2865 47.5712C15.899 47.8037 15.6665 48.2428 15.6665 48.682V49.9737V50.1803C15.6665 51.0328 16.4673 51.6528 17.2682 51.4462L24.8115 49.5603L25.9998 49.2503L26.9815 49.4828L28.0665 49.767L32.9748 51.007L34.7057 51.4462C35.5323 51.6528 36.3073 51.0328 36.3073 50.1803V49.2245V48.682C36.3073 48.217 36.0748 47.8037 35.6873 47.5712L29.8748 44.0837V29.8753L48.3715 35.3003C50.1023 35.817 51.8332 34.5253 51.8332 32.717C51.8332 31.7612 51.3165 30.857 50.4898 30.392Z" fill="url(#paint0_linear_321_20293)"/>
<defs>
<linearGradient id="paint0_linear_321_20293" x1="51.8332" y1="51.6108" x2="0.515176" y2="-0.054668" gradientUnits="userSpaceOnUse">
<stop offset="0.275366" stop-color="#0175B2"/>
<stop offset="0.956923" stop-color="#0175B2" stop-opacity="0.3"/>
</linearGradient>
</defs>
</svg>
