<svg width="42" height="50" viewBox="0 0 42 50" fill="none" xmlns="http://www.w3.org/2000/svg">
<path d="M0.333252 36.3337C0.333252 38.607 1.34075 40.6478 2.91659 42.0687V45.3753C2.91659 47.5195 4.64742 49.2503 6.79159 49.2503C8.93575 49.2503 10.6666 47.5195 10.6666 45.3753V44.0837H31.3333V45.3753C31.3333 47.4937 33.0641 49.2503 35.2083 49.2503C37.3266 49.2503 39.0833 47.5195 39.0833 45.3753V42.0687C40.6591 40.6478 41.6666 38.607 41.6666 36.3337V10.5003C41.6666 1.45866 32.4183 0.166992 20.9999 0.166992C9.58159 0.166992 0.333252 1.45866 0.333252 10.5003V36.3337ZM9.37492 38.917C7.23075 38.917 5.49992 37.1862 5.49992 35.042C5.49992 32.8978 7.23075 31.167 9.37492 31.167C11.5191 31.167 13.2499 32.8978 13.2499 35.042C13.2499 37.1862 11.5191 38.917 9.37492 38.917ZM32.6249 38.917C30.4808 38.917 28.7499 37.1862 28.7499 35.042C28.7499 32.8978 30.4808 31.167 32.6249 31.167C34.7691 31.167 36.4999 32.8978 36.4999 35.042C36.4999 37.1862 34.7691 38.917 32.6249 38.917ZM36.4999 23.417H5.49992V10.5003H36.4999V23.417Z" fill="url(#paint0_linear_360_1804)"/>
<defs>
<linearGradient id="paint0_linear_360_1804" x1="41.6666" y1="49.3696" x2="-6.70078" y2="8.63914" gradientUnits="userSpaceOnUse">
<stop offset="0.275366" stop-color="#0175B2"/>
<stop offset="0.956923" stop-color="#0175B2" stop-opacity="0.3"/>
</linearGradient>
</defs>
</svg>
