<svg width="26" height="51" viewBox="0 0 26 51" fill="none" xmlns="http://www.w3.org/2000/svg">
<path d="M25.9168 21.9445V2.75033C25.9168 1.32949 24.7543 0.166992 23.3335 0.166992H2.66683C1.246 0.166992 0.0834961 1.32949 0.0834961 2.75033V21.9445C0.0834961 22.8487 0.548496 23.7012 1.34933 24.1662L12.1477 30.6503L9.59016 36.6953L3.85516 37.1862C2.66683 37.2895 2.20183 38.7103 3.08016 39.4595L7.446 43.2312L6.1285 48.8628C5.87016 49.9737 7.08433 50.852 8.066 50.2578L13.0002 47.2612L17.9343 50.232C18.916 50.8262 20.1302 49.9478 19.8718 48.837L18.5543 43.2053L22.9202 39.4337C23.7727 38.6845 23.3335 37.2637 22.171 37.1603L16.436 36.6695L13.8785 30.6245L24.6768 24.1403C25.4518 23.7012 25.9168 22.8745 25.9168 21.9445ZM15.5835 26.5945L13.0002 28.1445L10.4168 26.5945V2.75033H15.5835V26.5945Z" fill="url(#paint0_linear_521_4443)"/>
<defs>
<linearGradient id="paint0_linear_521_4443" x1="25.9168" y1="50.5715" x2="-14.9602" y2="29.5704" gradientUnits="userSpaceOnUse">
<stop offset="0.275366" stop-color="#0175B2"/>
<stop offset="0.956923" stop-color="#0175B2" stop-opacity="0.3"/>
</linearGradient>
</defs>
</svg>
