<svg width="50" height="52" viewBox="0 0 50 52" fill="none" xmlns="http://www.w3.org/2000/svg">
<path d="M28.5834 2.95618V20.8328H49.2501C49.2501 10.422 41.5517 1.79368 31.5284 0.372846C29.9784 0.140346 28.5834 1.38035 28.5834 2.95618ZM44.9101 36.0487C47.6226 32.5612 49.2501 28.1695 49.2501 23.4162H11.6367L9.88008 19.722C9.46675 18.8178 8.53675 18.2495 7.55508 18.2495H2.75008C1.32925 18.2495 0.166748 19.412 0.166748 20.8328C0.166748 22.2537 1.32925 23.4162 2.75008 23.4162H5.90175C5.90175 23.4162 10.7842 33.9303 11.3784 34.8345C7.94258 36.6687 5.85008 40.6987 6.88341 45.0128C7.65841 48.2678 10.3451 50.877 13.6001 51.6003C19.0251 52.7887 23.8817 49.1203 24.5792 44.0828H29.9526C30.6501 49.0945 35.4809 52.7628 40.8542 51.6262C44.1351 50.9287 46.8217 48.3453 47.6484 45.0903C48.5526 41.4995 47.2867 38.167 44.9101 36.0487ZM15.6667 46.6662C13.5226 46.6662 11.7917 44.9353 11.7917 42.7912C11.7917 40.647 13.5226 38.9162 15.6667 38.9162C17.8109 38.9162 19.5417 40.647 19.5417 42.7912C19.5417 44.9353 17.8109 46.6662 15.6667 46.6662ZM38.9167 46.6662C36.7726 46.6662 35.0417 44.9353 35.0417 42.7912C35.0417 40.647 36.7726 38.9162 38.9167 38.9162C41.0609 38.9162 42.7917 40.647 42.7917 42.7912C42.7917 44.9353 41.0609 46.6662 38.9167 46.6662Z" fill="url(#paint0_linear_681_21830)"/>
<defs>
<linearGradient id="paint0_linear_681_21830" x1="49.2501" y1="51.9591" x2="-2.18027" y2="2.93187" gradientUnits="userSpaceOnUse">
<stop offset="0.275366" stop-color="#0175B2"/>
<stop offset="0.956923" stop-color="#0175B2" stop-opacity="0.3"/>
</linearGradient>
</defs>
</svg>
