<svg width="62" height="32" viewBox="0 0 62 32" fill="none" xmlns="http://www.w3.org/2000/svg">
<path d="M31 17.9375C35.2108 17.9375 38.9308 18.945 41.9533 20.2625C44.7433 21.5025 46.5 24.2925 46.5 27.315V28.9167C46.5 30.3375 45.3375 31.5 43.9167 31.5H18.0833C16.6625 31.5 15.5 30.3375 15.5 28.9167V27.3408C15.5 24.2925 17.2567 21.5025 20.0467 20.2883C23.0692 18.945 26.7892 17.9375 31 17.9375ZM10.3333 18.5833C13.175 18.5833 15.5 16.2583 15.5 13.4167C15.5 10.575 13.175 8.25 10.3333 8.25C7.49167 8.25 5.16667 10.575 5.16667 13.4167C5.16667 16.2583 7.49167 18.5833 10.3333 18.5833ZM13.2525 21.425C12.2967 21.27 11.3408 21.1667 10.3333 21.1667C7.77583 21.1667 5.3475 21.7092 3.15167 22.665C1.24 23.4917 0 25.3517 0 27.4442V28.9167C0 30.3375 1.1625 31.5 2.58333 31.5H11.625V27.3408C11.625 25.1967 12.2192 23.1817 13.2525 21.425ZM51.6667 18.5833C54.5083 18.5833 56.8333 16.2583 56.8333 13.4167C56.8333 10.575 54.5083 8.25 51.6667 8.25C48.825 8.25 46.5 10.575 46.5 13.4167C46.5 16.2583 48.825 18.5833 51.6667 18.5833ZM62 27.4442C62 25.3517 60.76 23.4917 58.8483 22.665C56.6525 21.7092 54.2242 21.1667 51.6667 21.1667C50.6592 21.1667 49.7033 21.27 48.7475 21.425C49.7808 23.1817 50.375 25.1967 50.375 27.3408V31.5H59.4167C60.8375 31.5 62 30.3375 62 28.9167V27.4442ZM31 0.5C35.2883 0.5 38.75 3.96167 38.75 8.25C38.75 12.5383 35.2883 16 31 16C26.7117 16 23.25 12.5383 23.25 8.25C23.25 3.96167 26.7117 0.5 31 0.5Z" fill="url(#paint0_linear_681_2313)"/>
<defs>
<linearGradient id="paint0_linear_681_2313" x1="62" y1="31.5753" x2="37.2" y2="-18.0247" gradientUnits="userSpaceOnUse">
<stop offset="0.275366" stop-color="#0175B2"/>
<stop offset="0.956923" stop-color="#0175B2" stop-opacity="0.3"/>
</linearGradient>
</defs>
</svg>
