<svg width="52" height="42" viewBox="0 0 52 42" fill="none" xmlns="http://www.w3.org/2000/svg">
<path fill-rule="evenodd" clip-rule="evenodd" d="M0.870201 0.570016C0.21649 1.0219 0.174517 1.23259 0.174416 4.06562L0.174214 6.59753H4.19516C9.72592 6.59753 9.27108 6.16685 9.23163 11.3667C9.20549 14.8087 9.19692 14.9457 8.9921 15.2298C8.87536 15.3919 8.62564 15.6184 8.43716 15.7333C8.11288 15.9309 7.88284 15.9438 4.13068 15.9739L0.166748 16.0055L0.230918 16.8091C0.266232 17.2511 0.358654 18.1024 0.436445 18.701C0.514237 19.2996 0.577802 19.8282 0.577802 19.8756C0.577802 19.923 0.920145 19.9619 1.33846 19.9619C4.49502 19.9619 8.03791 21.0177 10.7645 22.7711C13.7201 24.6717 16.3055 27.6778 17.7382 30.8797C18.9351 33.5542 19.5438 36.7143 19.4096 39.5564L19.3496 40.8274L20.23 41.0405C22.0115 41.4716 23.0197 41.5936 25.2651 41.6496C27.7504 41.7117 29.0703 41.6093 31.0487 41.201C31.7423 41.0578 32.378 40.9194 32.4613 40.8934C32.5886 40.8536 32.6139 40.534 32.6199 38.8872C32.6275 36.778 32.7674 35.6217 33.2296 33.8482C34.8231 27.7338 39.5655 22.6684 45.4365 20.81C47.1274 20.2747 49.0576 19.9619 50.6692 19.9619C51.2331 19.9619 51.4298 19.9261 51.4298 19.8236C51.4298 19.7476 51.4937 19.2191 51.5719 18.649C51.65 18.0791 51.74 17.251 51.7719 16.809L51.83 16.0054L47.821 15.9738C44.0238 15.9438 43.7941 15.931 43.4696 15.7333C43.2811 15.6184 43.0314 15.3919 42.9146 15.2298C42.7098 14.9457 42.7012 14.8087 42.6751 11.3667C42.6448 7.37788 42.6543 7.31388 43.3478 6.83454C43.69 6.59795 43.6972 6.59753 47.762 6.59753H51.8334L51.8332 4.06562C51.8331 1.23259 51.7911 1.0219 51.1374 0.570016L50.7946 0.333008H26.0038H1.21305L0.870201 0.570016ZM0.174214 11.2437V12.8621H3.20112H6.22803V11.2437V9.62539H3.20112H0.174214V11.2437ZM45.6787 11.2437V12.8621H48.7056H51.7325V11.2437V9.62539H48.7056H45.6787V11.2437ZM1.69624 23.9902C3.51995 29.3368 7.11673 34.0567 11.8702 37.3409C12.8768 38.0364 16.0929 39.7995 16.3548 39.7995C16.4937 39.7995 16.3577 37.0969 16.1659 36.0408C15.7773 33.9027 15.0072 31.9356 13.8639 30.1614C11.2126 26.0473 7.05185 23.5177 2.31646 23.1412L1.38134 23.0669L1.69624 23.9902ZM49.3614 23.1639C46.0858 23.5802 43.5169 24.6953 41.0726 26.7616C38.6379 28.8197 36.7834 31.9108 36.0409 35.1487C35.6655 36.7855 35.4409 39.5881 35.6732 39.7366C35.8158 39.8279 38.9092 38.1871 40.0285 37.4264C44.7666 34.2063 48.4815 29.3549 50.3067 24.0037L50.617 23.0941L50.1406 23.1098C49.8785 23.1183 49.5279 23.1428 49.3614 23.1639Z" fill="url(#paint0_linear_681_21833)"/>
<defs>
<linearGradient id="paint0_linear_681_21833" x1="51.8334" y1="41.7668" x2="11.5082" y2="-8.63975" gradientUnits="userSpaceOnUse">
<stop offset="0.275366" stop-color="#0175B2"/>
<stop offset="0.956923" stop-color="#0175B2" stop-opacity="0.3"/>
</linearGradient>
</defs>
</svg>
