<svg width="42" height="46" viewBox="0 0 42 46" fill="none" xmlns="http://www.w3.org/2000/svg">
<path d="M17.8999 1.07473L2.39992 12.6997C1.10825 13.6814 0.333252 15.2056 0.333252 16.8331V40.0831C0.333252 42.9247 2.65825 45.2497 5.49992 45.2497H36.4999C39.3416 45.2497 41.6666 42.9247 41.6666 40.0831V16.8331C41.6666 15.2056 40.8916 13.6814 39.5999 12.6997L24.0999 1.07473C22.2658 -0.29444 19.7341 -0.29444 17.8999 1.07473ZM15.1874 23.2914C16.9699 23.2914 18.4166 24.7381 18.4166 26.5206C18.4166 28.3031 16.9699 29.7497 15.1874 29.7497C13.4049 29.7497 11.9583 28.3031 11.9583 26.5206C11.9583 24.7381 13.4049 23.2914 15.1874 23.2914ZM32.6249 37.4997C31.9016 37.4997 31.3333 36.9314 31.3333 36.2081V33.6247H10.6666V36.2081C10.6666 36.9314 10.0983 37.4997 9.37492 37.4997C8.65159 37.4997 8.08325 36.9314 8.08325 36.2081V20.7081C8.08325 19.9847 8.65159 19.4164 9.37492 19.4164C10.0983 19.4164 10.6666 19.9847 10.6666 20.7081V31.0414H19.7083V23.2914C19.7083 22.5681 20.2766 21.9997 20.9999 21.9997H28.7499C31.5916 21.9997 33.9166 24.3247 33.9166 27.1664V36.2081C33.9166 36.9314 33.3483 37.4997 32.6249 37.4997Z" fill="url(#paint0_linear_681_21845)"/>
<defs>
<linearGradient id="paint0_linear_681_21845" x1="41.6666" y1="45.3595" x2="-3.35497" y2="4.19108" gradientUnits="userSpaceOnUse">
<stop offset="0.275366" stop-color="#0175B2"/>
<stop offset="0.956923" stop-color="#0175B2" stop-opacity="0.3"/>
</linearGradient>
</defs>
</svg>
