<svg width="42" height="52" viewBox="0 0 42 52" fill="none" xmlns="http://www.w3.org/2000/svg">
<path d="M36.4999 10.5003H31.3333C31.3333 4.79116 26.7091 0.166992 20.9999 0.166992C15.2908 0.166992 10.6666 4.79116 10.6666 10.5003H5.49992C2.65825 10.5003 0.333252 12.8253 0.333252 15.667V46.667C0.333252 49.5087 2.65825 51.8337 5.49992 51.8337H36.4999C39.3416 51.8337 41.6666 49.5087 41.6666 46.667V15.667C41.6666 12.8253 39.3416 10.5003 36.4999 10.5003ZM15.8333 20.8337C15.8333 22.2545 14.6708 23.417 13.2499 23.417C11.8291 23.417 10.6666 22.2545 10.6666 20.8337V15.667H15.8333V20.8337ZM20.9999 5.33366C23.8416 5.33366 26.1666 7.65866 26.1666 10.5003H15.8333C15.8333 7.65866 18.1583 5.33366 20.9999 5.33366ZM31.3333 20.8337C31.3333 22.2545 30.1708 23.417 28.7499 23.417C27.3291 23.417 26.1666 22.2545 26.1666 20.8337V15.667H31.3333V20.8337Z" fill="url(#paint0_linear_681_21850)"/>
<defs>
<linearGradient id="paint0_linear_681_21850" x1="41.6666" y1="51.9592" x2="-8.73991" y2="11.634" gradientUnits="userSpaceOnUse">
<stop offset="0.275366" stop-color="#0175B2"/>
<stop offset="0.956923" stop-color="#0175B2" stop-opacity="0.3"/>
</linearGradient>
</defs>
</svg>
