<svg width="62" height="62" viewBox="0 0 62 62" fill="none" xmlns="http://www.w3.org/2000/svg">
<path d="M42.2892 19.3722C43.0626 19.3886 43.8315 19.2503 44.5509 18.9656C45.2702 18.6809 45.9254 18.2554 46.4782 17.7142C47.031 17.173 47.4701 16.5268 47.77 15.8137C48.0698 15.1005 48.2242 14.3347 48.2242 13.561C48.2242 12.7874 48.0698 12.0216 47.77 11.3084C47.4701 10.5953 47.031 9.94912 46.4782 9.40788C45.9254 8.86665 45.2702 8.4412 44.5509 8.15649C43.8315 7.87177 43.0626 7.73352 42.2892 7.74983C40.7692 7.78188 39.3222 8.40821 38.2585 9.49453C37.1949 10.5809 36.5992 12.0407 36.5992 13.561C36.5992 15.0814 37.1949 16.5412 38.2585 17.6275C39.3222 18.7139 40.7692 19.3402 42.2892 19.3722ZM26.7853 26.439C27.1015 26.1209 27.3519 25.7437 27.5223 25.3289C27.6927 24.914 27.7797 24.4697 27.7784 24.0212C27.7771 23.5728 27.6875 23.129 27.5146 22.7151C27.3418 22.3013 27.0891 21.9256 26.7711 21.6094C26.453 21.2932 26.0758 21.0428 25.661 20.8724C25.2462 20.702 24.8018 20.615 24.3534 20.6163C23.9049 20.6176 23.4611 20.7072 23.0473 20.8801C22.6334 21.0529 22.2577 21.3056 21.9415 21.6236L19.4099 24.1708H16.0683C15.1627 24.1708 14.2942 24.5305 13.6539 25.1709C13.0136 25.8112 12.6538 26.6797 12.6538 27.5853C12.6538 28.4909 13.0136 29.3594 13.6539 29.9997C14.2942 30.6401 15.1627 30.9998 16.0683 30.9998H19.6333C20.4998 31 21.3575 30.8258 22.1552 30.4876C22.953 30.1494 23.6745 29.6542 24.2769 29.0313L26.7827 26.439H26.7853ZM27.0152 37.7023C27.0152 37.7023 24.0728 37.1533 22.869 37.7023C21.9725 38.1105 18.5031 39.3556 16.7917 39.9653V51.4095C17.7824 51.3526 19.7535 51.248 20.5956 51.2816C23.1053 51.3836 24.9795 51.9791 26.8744 52.581C28.6427 53.1429 30.4291 53.7112 32.7644 53.8882C33.3534 53.9321 33.9243 53.9902 34.4785 54.0457C36.4805 54.2472 38.2527 54.4255 39.72 53.8882C41.593 53.2023 52.2905 47.9904 53.6274 46.6187C54.9656 45.2469 54.2965 41.5424 50.1502 42.2283C48.1055 42.5667 45.7327 43.5406 43.5834 44.4228C41.3747 45.3283 39.3997 46.1395 38.2488 46.0697C35.9755 45.9328 29.9563 44.8349 29.9563 44.8349L36.8667 44.9188C36.8667 44.9188 37.8433 44.9705 39.184 44.0121C40.5273 43.0537 41.726 40.3089 39.72 40.3089C37.7141 40.3089 35.5738 39.6217 35.5738 39.6217L27.0152 37.7023ZM7.75 38.7498C7.75 38.4073 7.88609 38.0787 8.12832 37.8365C8.37056 37.5942 8.6991 37.4582 9.04167 37.4582H12.9167C13.2592 37.4582 13.5878 37.5942 13.83 37.8365C14.0722 38.0787 14.2083 38.4073 14.2083 38.7498V52.953C14.2083 53.2956 14.0722 53.6241 13.83 53.8663C13.5878 54.1086 13.2592 54.2447 12.9167 54.2447H9.04167C8.6991 54.2447 8.37056 54.1086 8.12832 53.8663C7.88609 53.6241 7.75 53.2956 7.75 52.953V38.7511V38.7498ZM44.733 24.0985C45.6466 24.0978 46.5231 24.4601 47.1697 25.1056C47.8162 25.7512 48.1798 26.6271 48.1805 27.5407C48.1811 28.4544 47.8189 29.3309 47.1733 29.9774C46.5277 30.6239 45.6518 30.9875 44.7382 30.9882L40.6862 30.9934C40.6681 30.9934 40.6513 30.9908 40.6345 30.9882C40.6183 30.9856 40.6019 30.9843 40.5855 30.9843C40.1768 30.9949 39.7703 30.9207 39.3918 30.7664C39.0132 30.6121 38.6706 30.3811 38.3857 30.0879L37.4545 29.1553C36.895 29.7356 36.2245 30.1973 35.4829 30.5131C34.7413 30.8288 33.9437 30.9922 33.1377 30.9934H29.1555L28.551 18.915H34.9551C35.6424 18.9149 36.3228 19.052 36.9564 19.3181C37.5901 19.5843 38.1643 19.9742 38.6454 20.465L42.2052 24.0985H44.733Z" fill="url(#paint0_linear_869_2073)"/>
<defs>
<linearGradient id="paint0_linear_869_2073" x1="54.2501" y1="54.3576" x2="7.754" y2="7.85749" gradientUnits="userSpaceOnUse">
<stop offset="0.275366" stop-color="#0175B2"/>
<stop offset="0.956923" stop-color="#0175B2" stop-opacity="0.3"/>
</linearGradient>
</defs>
</svg>
