<svg width="62" height="62" viewBox="0 0 62 62" fill="none" xmlns="http://www.w3.org/2000/svg">
<path d="M22.9918 17.7398C23.0067 18.3824 22.893 19.0214 22.6573 19.6195C22.4217 20.2175 22.0689 20.7624 21.6197 21.2221C21.1705 21.6819 20.6339 22.0472 20.0415 22.2966C19.4491 22.546 18.8128 22.6745 18.17 22.6745C17.5272 22.6745 16.891 22.546 16.2985 22.2966C15.7061 22.0472 15.1696 21.6819 14.7203 21.2221C14.2711 20.7624 13.9183 20.2175 13.6827 19.6195C13.4471 19.0214 13.3333 18.3824 13.3482 17.7398C13.3689 16.4744 13.8861 15.2679 14.7882 14.3805C15.6904 13.493 16.9052 12.9956 18.1707 12.9956C19.4361 12.9956 20.6509 13.493 21.5531 14.3805C22.4552 15.2679 22.9724 16.4744 22.9931 17.7398H22.9918Z" fill="url(#paint0_linear_869_2094)"/>
<path fill-rule="evenodd" clip-rule="evenodd" d="M12.524 33.5769C12.1609 34.1579 11.5818 34.5708 10.9142 34.7249C10.2466 34.8789 9.54518 34.7615 8.96418 34.3984C8.38318 34.0352 7.97023 33.4562 7.81617 32.7886C7.6621 32.121 7.77956 31.4195 8.14268 30.8385L8.14785 30.8308L8.15689 30.8166L8.18789 30.7675C8.35174 30.5092 8.52011 30.2539 8.69293 30.0015C9.11187 29.3836 9.55217 28.7805 10.013 28.1932C10.5284 27.5422 11.1613 26.8072 11.8304 26.2105C12.1649 25.9121 12.5679 25.5944 13.0239 25.3386C13.4527 25.0984 14.1231 24.8013 14.9433 24.8013H21.3965C22.2167 24.8013 22.8871 25.0984 23.3172 25.3386C23.7718 25.5944 24.1761 25.9121 24.5094 26.2105C25.1785 26.8072 25.8127 27.5422 26.3268 28.1945C26.9772 29.0215 27.5864 29.8802 28.1519 30.7675L28.1842 30.8166L28.1932 30.8295L28.1971 30.8372C28.1971 30.8372 28.1519 30.7675 28.1971 30.8372C28.5503 31.4178 28.6604 32.1142 28.5037 32.7755C28.347 33.4367 27.9361 34.0096 27.3599 34.37C26.7838 34.7303 26.0888 34.8492 25.4257 34.7007C24.7625 34.5523 24.1846 34.1485 23.8171 33.5769L23.8132 33.5717L23.7925 33.5394C23.728 33.4376 23.6625 33.3364 23.5962 33.2359V36.4444L24.5301 46.2546C24.5888 46.9233 24.3849 47.5886 23.9616 48.1096C23.5383 48.6305 22.9288 48.9663 22.2622 49.0457C21.5957 49.1251 20.9244 48.942 20.3905 48.535C19.8567 48.1281 19.5022 47.5293 19.4021 46.8655L18.0833 37.643L16.7658 46.8655C16.6715 47.5344 16.3189 48.1397 15.7837 48.5518C15.2484 48.9638 14.573 49.1499 13.9023 49.07C13.2315 48.9901 12.6187 48.6506 12.1952 48.1244C11.7717 47.5981 11.5712 46.9269 11.6366 46.2546L12.7216 34.875H12.7449V33.2346C12.6782 33.3357 12.6124 33.4373 12.5473 33.5394L12.5279 33.5717L12.524 33.5769Z" fill="url(#paint1_linear_869_2094)"/>
<path d="M48.8251 17.7385C48.8251 19.0174 48.317 20.244 47.4126 21.1484C46.5082 22.0528 45.2816 22.5609 44.0026 22.5609C42.7236 22.5609 41.497 22.0528 40.5926 21.1484C39.6883 20.244 39.1802 19.0174 39.1802 17.7385C39.1802 16.4595 39.6883 15.2329 40.5926 14.3285C41.497 13.4241 42.7236 12.916 44.0026 12.916C45.2816 12.916 46.5082 13.4241 47.4126 14.3285C48.317 15.2329 48.8251 16.4595 48.8251 17.7385Z" fill="url(#paint2_linear_869_2094)"/>
<path fill-rule="evenodd" clip-rule="evenodd" d="M38.3638 33.3055C37.9983 33.8768 37.4228 34.2816 36.7615 34.4322C36.1002 34.5829 35.4062 34.4675 34.8292 34.1109C34.2523 33.7542 33.8388 33.185 33.6779 32.5261C33.5171 31.8672 33.6218 31.1714 33.9696 30.5891L33.9734 30.5813L33.9838 30.5671L34.0135 30.518L34.1233 30.345C34.653 29.5204 35.2189 28.7197 35.8192 27.945C36.3281 27.294 36.9559 26.5578 37.6172 25.9598C37.9492 25.6614 38.3496 25.341 38.803 25.0853C39.2292 24.8425 39.9009 24.5415 40.725 24.5415H47.1084C47.9325 24.5415 48.6041 24.8425 49.0317 25.084C49.4838 25.3423 49.8842 25.6614 50.2161 25.9598C50.8788 26.5578 51.5052 27.294 52.0142 27.945C52.6579 28.7722 53.2605 29.6304 53.8199 30.5168L53.8509 30.5671L53.8638 30.5891C54.2242 31.1718 54.3383 31.8738 54.1811 32.5407C54.0239 33.2076 53.6082 33.7847 53.0255 34.145C52.4428 34.5054 51.7408 34.6196 51.0739 34.4624C50.4071 34.3052 49.83 33.8895 49.4696 33.3068L49.4657 33.3003L49.4463 33.268C49.252 32.9619 49.0517 32.6596 48.8457 32.3613C49.4502 35.3708 50.6411 39.499 51.2637 41.5863C51.3156 41.7558 51.3318 41.9343 51.3112 42.1103C51.2907 42.2864 51.2338 42.4563 51.1442 42.6093C51.0546 42.7622 50.9343 42.8949 50.7907 42.999C50.6472 43.1031 50.4837 43.1762 50.3104 43.2138C45.7418 44.1658 42.5436 44.1413 37.5824 43.1958C37.4043 43.1607 37.2357 43.0885 37.0874 42.9839C36.9392 42.8792 36.8147 42.7445 36.7221 42.5885C36.6294 42.4324 36.5707 42.2586 36.5498 42.0784C36.5289 41.8981 36.5462 41.7155 36.6007 41.5424C37.253 39.4448 38.4659 35.3605 39.0406 32.2838C38.8165 32.6076 38.5986 32.9357 38.3871 33.268L38.3677 33.3003L38.3638 33.3055ZM38.2334 45.4045V47.1457C38.2338 47.6152 38.4048 48.0685 38.7144 48.4215C39.024 48.7744 39.4513 49.0029 39.9168 49.0645C40.3822 49.126 40.8542 49.0165 41.2449 48.7562C41.6357 48.496 41.9186 48.1026 42.0412 47.6494L42.5514 45.7584C41.1074 45.7071 39.6665 45.589 38.2334 45.4045ZM45.5377 45.7533L46.0505 47.6507C46.1731 48.104 46.4562 48.4974 46.8471 48.7577C47.2379 49.018 47.7101 49.1274 48.1756 49.0657C48.6411 49.0039 49.0684 48.7752 49.3779 48.422C49.6875 48.0689 49.8582 47.6153 49.8584 47.1457V45.3864C48.4243 45.5724 46.9827 45.6943 45.5377 45.752V45.7533Z" fill="url(#paint3_linear_869_2094)"/>
<defs>
<linearGradient id="paint0_linear_869_2094" x1="22.9931" y1="22.698" x2="13.3143" y2="13.0519" gradientUnits="userSpaceOnUse">
<stop offset="0.275366" stop-color="#0175B2"/>
<stop offset="0.956923" stop-color="#0175B2" stop-opacity="0.3"/>
</linearGradient>
<linearGradient id="paint1_linear_869_2094" x1="28.5734" y1="49.1471" x2="4.57119" y2="28.5678" gradientUnits="userSpaceOnUse">
<stop offset="0.275366" stop-color="#0175B2"/>
<stop offset="0.956923" stop-color="#0175B2" stop-opacity="0.3"/>
</linearGradient>
<linearGradient id="paint2_linear_869_2094" x1="48.8251" y1="22.5843" x2="39.1802" y2="12.9394" gradientUnits="userSpaceOnUse">
<stop offset="0.275366" stop-color="#0175B2"/>
<stop offset="0.956923" stop-color="#0175B2" stop-opacity="0.3"/>
</linearGradient>
<linearGradient id="paint3_linear_869_2094" x1="54.2501" y1="49.1421" x2="30.0711" y2="28.8008" gradientUnits="userSpaceOnUse">
<stop offset="0.275366" stop-color="#0175B2"/>
<stop offset="0.956923" stop-color="#0175B2" stop-opacity="0.3"/>
</linearGradient>
</defs>
</svg>
