<svg width="54" height="56" viewBox="0 0 54 56" fill="none" xmlns="http://www.w3.org/2000/svg">
<path d="M3.16659 50.25H28.9999C30.4208 50.25 31.5833 51.4125 31.5833 52.8333C31.5833 54.2541 30.4208 55.4166 28.9999 55.4166H3.16659C1.74575 55.4166 0.583252 54.2541 0.583252 52.8333C0.583252 51.4125 1.74575 50.25 3.16659 50.25ZM11.5366 16.8475L18.8474 9.53664L51.7333 42.4225C53.7483 44.4375 53.7483 47.7183 51.7333 49.7333C49.7183 51.7483 46.4374 51.7483 44.4224 49.7333L11.5366 16.8475ZM33.4691 2.22581L40.7799 9.53664C42.7949 11.5516 42.7949 14.8325 40.7799 16.8475L37.1116 20.5158L22.5158 5.89414L26.1583 2.25164C28.1733 0.21081 31.4541 0.21081 33.4691 2.22581ZM7.89409 20.49L22.5158 35.1116L18.8733 38.7541C16.8583 40.7691 13.5774 40.7691 11.5624 38.7541L4.25159 31.4433C2.23659 29.4283 2.23659 26.1475 4.25159 24.1325L7.89409 20.49Z" fill="url(#paint0_linear_681_2344)"/>
<defs>
<linearGradient id="paint0_linear_681_2344" x1="53.2445" y1="55.5495" x2="-1.41498" y2="2.9262" gradientUnits="userSpaceOnUse">
<stop offset="0.275366" stop-color="#0175B2"/>
<stop offset="0.956923" stop-color="#0175B2" stop-opacity="0.3"/>
</linearGradient>
</defs>
</svg>
