<svg width="62" height="62" viewBox="0 0 62 62" fill="none" xmlns="http://www.w3.org/2000/svg">
<path d="M8.1375 32.0009C7.33538 32.0009 6.68438 32.6519 6.68438 33.454C6.68438 34.2561 7.33538 34.9071 8.1375 34.9071C8.93962 34.9071 9.59062 34.2561 9.59062 33.454C9.59062 32.6519 8.93962 32.0009 8.1375 32.0009ZM15.1125 32.0009C14.3104 32.0009 13.6594 32.6519 13.6594 33.454C13.6594 34.2561 14.3104 34.9071 15.1125 34.9071C15.9146 34.9071 16.5656 34.2561 16.5656 33.454C16.5656 32.6519 15.9146 32.0009 15.1125 32.0009ZM11.625 20.6665C5.208 20.6665 0 25.8745 0 32.2915C0 38.7085 5.208 43.9165 11.625 43.9165C18.042 43.9165 23.25 38.7085 23.25 32.2915C23.25 25.8745 18.042 20.6665 11.625 20.6665ZM11.625 41.5915C6.49838 41.5915 2.325 37.4181 2.325 32.2915C2.325 31.9544 2.34825 31.6173 2.38313 31.2918C5.12663 30.0711 7.3005 27.8275 8.43975 25.0491C10.5439 28.0251 14.0081 29.9665 17.9258 29.9665C18.8325 29.9665 19.7044 29.8619 20.5414 29.6643C20.7855 30.4896 20.925 31.3731 20.925 32.2915C20.925 37.4181 16.7516 41.5915 11.625 41.5915Z" fill="url(#paint0_linear_869_9142)"/>
<path d="M48.3406 33.454C48.3406 34.2561 47.6896 34.9071 46.8875 34.9071C46.0854 34.9071 45.4344 34.2561 45.4344 33.454C45.4344 32.6519 46.0854 32.0009 46.8875 32.0009C47.6896 32.0009 48.3406 32.6519 48.3406 33.454ZM53.8625 32.0009C53.0604 32.0009 52.4094 32.6519 52.4094 33.454C52.4094 34.2561 53.0604 34.9071 53.8625 34.9071C54.6646 34.9071 55.3156 34.2561 55.3156 33.454C55.3156 32.6519 54.6646 32.0009 53.8625 32.0009ZM62 32.2915C62 38.7085 56.792 43.9165 50.375 43.9165C43.958 43.9165 38.75 38.7085 38.75 32.2915C38.75 25.8745 43.958 20.6665 50.375 20.6665C56.792 20.6665 62 25.8745 62 32.2915ZM48.8173 23.131C50.4447 25.828 53.3975 27.6415 56.7688 27.6415C57.3035 27.6415 57.8266 27.5834 58.3265 27.502C56.699 24.805 53.7463 22.9915 50.375 22.9915C49.8403 22.9915 49.3171 23.0496 48.8173 23.131ZM41.5633 29.3504C43.5511 28.2228 45.0856 26.386 45.818 24.1889C43.8301 25.3165 42.2956 27.1533 41.5633 29.3504ZM59.675 32.2915C59.675 31.3848 59.5355 30.5129 59.2914 29.6875C58.4776 29.8619 57.6406 29.9665 56.7688 29.9665C53.1301 29.9665 49.8868 28.2925 47.7478 25.6769C46.5271 28.6529 44.0975 30.9895 41.075 32.1288C41.0866 32.1753 41.075 32.2334 41.075 32.2915C41.075 37.4181 45.2484 41.5915 50.375 41.5915C55.5016 41.5915 59.675 37.4181 59.675 32.2915Z" fill="url(#paint1_linear_869_9142)"/>
<path d="M28.4167 18.0835L31.0001 20.6668L33.5834 23.2502L28.4167 28.4168L33.5834 33.5835L28.4167 38.7502L33.5834 43.9168L28.4167 49.0835" stroke="url(#paint2_linear_869_9142)" stroke-width="2"/>
<defs>
<linearGradient id="paint0_linear_869_9142" x1="23.25" y1="43.973" x2="-1.90735e-06" y2="20.723" gradientUnits="userSpaceOnUse">
<stop offset="0.275366" stop-color="#0175B2"/>
<stop offset="0.956923" stop-color="#0175B2" stop-opacity="0.3"/>
</linearGradient>
<linearGradient id="paint1_linear_869_9142" x1="62" y1="43.973" x2="38.75" y2="20.723" gradientUnits="userSpaceOnUse">
<stop offset="0.275366" stop-color="#0175B2"/>
<stop offset="0.956923" stop-color="#0175B2" stop-opacity="0.3"/>
</linearGradient>
<linearGradient id="paint2_linear_869_9142" x1="33.5834" y1="49.1588" x2="23.5294" y2="47.4831" gradientUnits="userSpaceOnUse">
<stop offset="0.275366" stop-color="#0175B2"/>
<stop offset="0.956923" stop-color="#0175B2" stop-opacity="0.3"/>
</linearGradient>
</defs>
</svg>
