<svg width="62" height="62" viewBox="0 0 62 62" fill="none" xmlns="http://www.w3.org/2000/svg">
<path d="M30.9999 15.4998C33.8534 15.4998 36.1666 13.1866 36.1666 10.3332C36.1666 7.4797 33.8534 5.1665 30.9999 5.1665C28.1464 5.1665 25.8333 7.4797 25.8333 10.3332C25.8333 13.1866 28.1464 15.4998 30.9999 15.4998Z" fill="url(#paint0_linear_869_2062)"/>
<path d="M41.0491 20.9507C40.0416 19.9432 38.3107 18.0832 34.9524 18.0832C34.4099 18.0832 31.284 18.0832 28.3907 18.0832C22.0357 18.0573 16.7399 13.4332 15.6807 7.36234C15.4741 6.0965 14.4149 5.1665 13.1491 5.1665C11.5732 5.1665 10.3332 6.5615 10.5657 8.1115C11.7024 14.9832 16.714 20.5373 23.2499 22.5007V54.2498C23.2499 55.6707 24.4124 56.8332 25.8332 56.8332C27.254 56.8332 28.4165 55.6707 28.4165 54.2498V41.3332H33.5832V54.2498C33.5832 55.6707 34.7457 56.8332 36.1665 56.8332C37.5874 56.8332 38.7499 55.6707 38.7499 54.2498V25.9623L47.1199 34.3323C48.1274 35.3398 49.7549 35.3398 50.7624 34.3323C51.7699 33.3248 51.7699 31.6973 50.7624 30.6898L41.0491 20.9507Z" fill="url(#paint1_linear_869_2062)"/>
<defs>
<linearGradient id="paint0_linear_869_2062" x1="36.1666" y1="15.5249" x2="25.8333" y2="5.19161" gradientUnits="userSpaceOnUse">
<stop offset="0.275366" stop-color="#0175B2"/>
<stop offset="0.956923" stop-color="#0175B2" stop-opacity="0.3"/>
</linearGradient>
<linearGradient id="paint1_linear_869_2062" x1="51.518" y1="56.9587" x2="1.20806" y2="17.0544" gradientUnits="userSpaceOnUse">
<stop offset="0.275366" stop-color="#0175B2"/>
<stop offset="0.956923" stop-color="#0175B2" stop-opacity="0.3"/>
</linearGradient>
</defs>
</svg>
