<svg width="62" height="62" viewBox="0 0 62 62" fill="none" xmlns="http://www.w3.org/2000/svg">
<path d="M37.7371 21.3123V6.78109C37.7371 5.88903 36.9832 5.1665 36.0524 5.1665H32.6828C31.7519 5.1665 30.998 5.88903 30.998 6.78109V21.608C31.5266 21.4284 32.0868 21.3123 32.6796 21.3123H37.7371ZM51.2154 30.9988C51.2143 27.4326 48.1975 24.5415 44.4773 24.5415H32.6691C31.7446 24.5415 30.9948 25.2549 30.9948 26.141V26.1975C30.9948 28.8484 33.2377 30.9998 36.0039 30.9998H39.7168C40.736 30.9998 41.1067 31.3611 41.1067 31.8071V33.4419C41.1067 33.8748 40.7287 34.227 40.2769 34.2492C35.589 34.4793 33.521 36.7427 30.163 41.5703L29.4985 42.5259C29.4373 42.6142 29.3584 42.69 29.2665 42.749C29.1747 42.808 29.0716 42.8491 28.9631 42.8699C28.8547 42.8907 28.743 42.8908 28.6345 42.8702C28.526 42.8496 28.4228 42.8088 28.3308 42.75L26.9293 41.8539C26.8372 41.7951 26.7581 41.7196 26.6965 41.6315C26.635 41.5435 26.5921 41.4447 26.5704 41.3407C26.5487 41.2368 26.5485 41.1298 26.57 41.0258C26.5915 40.9218 26.6341 40.8229 26.6955 40.7348L27.3599 39.7791C29.0163 37.3976 30.54 35.4137 32.3416 33.9182C30.5231 33.3622 29.0352 32.0897 28.2486 30.4418C27.5547 30.7859 26.7787 30.9988 25.9458 30.9988H22.5762C21.2768 30.9988 20.1027 30.5134 19.2066 29.7395C18.3095 30.5145 17.1354 30.9998 15.8371 30.9998H12.4675C11.8736 30.9998 11.3124 30.8838 10.7827 30.7021V38.5662C10.7827 41.9921 12.2021 45.2768 14.7304 47.6997L17.5208 50.3748V56.8332H44.4752V50.3789L48.2565 46.7541C50.1527 44.9365 51.2178 42.4714 51.2175 39.9012L51.2154 30.9988ZM47.8448 21.9077V10.0103C47.8448 9.1182 47.0908 8.39567 46.16 8.39567H42.7904C41.8596 8.39567 41.1056 9.1182 41.1056 10.0103V21.3123H44.4752C45.663 21.3123 46.7855 21.5454 47.8448 21.9077ZM12.4675 27.7707H15.8371C16.7679 27.7707 17.5218 27.0481 17.5218 26.1561V13.2394C17.5218 12.3474 16.7679 11.6248 15.8371 11.6248H12.4675C11.5367 11.6248 10.7827 12.3474 10.7827 13.2394V26.1561C10.7827 27.0481 11.5367 27.7707 12.4675 27.7707ZM22.5751 27.7707H25.9447C26.8755 27.7707 27.6295 27.0481 27.6295 26.1561V10.0103C27.6295 9.1182 26.8755 8.39567 25.9447 8.39567H22.5751C21.6443 8.39567 20.8904 9.1182 20.8904 10.0103V26.1561C20.8904 27.0481 21.6443 27.7707 22.5751 27.7707Z" fill="url(#paint0_linear_869_2107)"/>
<defs>
<linearGradient id="paint0_linear_869_2107" x1="51.2175" y1="56.9587" x2="1.0651" y2="17.709" gradientUnits="userSpaceOnUse">
<stop offset="0.275366" stop-color="#0175B2"/>
<stop offset="0.956923" stop-color="#0175B2" stop-opacity="0.3"/>
</linearGradient>
</defs>
</svg>
