<svg width="62" height="62" viewBox="0 0 62 62" fill="none" xmlns="http://www.w3.org/2000/svg">
<path d="M52.2867 17.4633C47.5334 12.6842 40.4292 11.7025 34.6684 14.4408L32.1884 11.9608C31.9494 11.7213 31.6655 11.5314 31.353 11.4017C31.0405 11.2721 30.7055 11.2054 30.3672 11.2054C30.0288 11.2054 29.6938 11.2721 29.3813 11.4017C29.0688 11.5314 28.7849 11.7213 28.5459 11.9608L28.3392 12.1933C27.9776 9.6875 25.8334 7.75 23.2501 7.75C20.4084 7.75 18.0834 10.075 18.0834 12.9167C18.0834 13.1492 18.0834 13.3817 18.1609 13.5883C16.5851 14.4925 15.5001 16.1458 15.5001 18.0833C15.5001 19.2717 15.9134 20.3308 16.5851 21.2092C16.2537 21.4373 15.9821 21.7418 15.7932 22.097C15.6044 22.4522 15.5038 22.8477 15.5001 23.25V26.7375C9.48091 28.8558 5.16675 34.5908 5.16675 41.3333C5.16675 49.8842 12.1159 56.8333 20.6667 56.8333C29.2176 56.8333 36.1667 49.8842 36.1667 41.3333C36.1669 38.1301 35.1729 35.0059 33.3221 32.3915C31.4712 29.7772 28.8547 27.8017 25.8334 26.7375V23.25C25.8297 22.8477 25.7291 22.4522 25.5403 22.097C25.3514 21.7418 25.0798 21.4373 24.7484 21.2092C25.4201 20.3308 25.8334 19.2717 25.8334 18.0833C25.8334 17.8508 25.8334 17.6183 25.7559 17.4117C26.2209 17.1533 26.6084 16.7917 26.9442 16.4817C29.3467 17.7733 31.0001 20.305 31.0001 23.25V23.4567C31.3359 23.6375 31.6459 23.8958 31.9817 24.1025C32.4726 23.0175 33.1442 21.9583 34.0226 21.1058C35.9635 19.1705 38.5925 18.0838 41.3334 18.0838C44.0743 18.0838 46.7034 19.1705 48.6442 21.1058C50.5796 23.0467 51.6663 25.6758 51.6663 28.4167C51.6663 31.1576 50.5796 33.7866 48.6442 35.7275C46.5776 37.7942 43.9167 38.75 41.1526 38.75C41.3334 39.5767 41.3334 40.455 41.3334 41.3333C41.3334 42.2117 41.2559 43.0642 41.1526 43.9167C45.2084 43.9167 49.2126 42.4442 52.2867 39.37C53.7299 37.9342 54.875 36.2274 55.6565 34.3477C56.4379 32.468 56.8402 30.4524 56.8402 28.4167C56.8402 26.381 56.4379 24.3654 55.6565 22.4856C54.875 20.6059 53.7299 18.8991 52.2867 17.4633ZM23.2501 10.3333C24.6709 10.3333 25.8334 11.4958 25.8334 12.9167C25.8334 13.7692 25.3942 14.4925 24.7484 14.9575C23.8184 13.7175 22.3459 12.9167 20.6667 12.9167C20.6667 11.4958 21.8292 10.3333 23.2501 10.3333ZM19.1684 16.0425C20.0984 17.2825 21.5709 18.0833 23.2501 18.0833C23.2501 19.5042 22.0876 20.6667 20.6667 20.6667C19.2459 20.6667 18.0834 19.5042 18.0834 18.0833C18.0834 17.2308 18.5226 16.5075 19.1684 16.0425ZM31.0001 41.3333C31.0001 47.0425 26.3759 51.6667 20.6667 51.6667C14.9576 51.6667 10.3334 47.0425 10.3334 41.3333C10.3334 35.6242 14.9576 31 20.6667 31C26.3759 31 31.0001 35.6242 31.0001 41.3333Z" fill="url(#paint0_linear_869_22176)"/>
<defs>
<linearGradient id="paint0_linear_869_22176" x1="56.8402" y1="56.9526" x2="7.82167" y2="5.34739" gradientUnits="userSpaceOnUse">
<stop offset="0.275366" stop-color="#0175B2"/>
<stop offset="0.956923" stop-color="#0175B2" stop-opacity="0.3"/>
</linearGradient>
</defs>
</svg>
