<svg width="52" height="47" viewBox="0 0 52 47" fill="none" xmlns="http://www.w3.org/2000/svg">
<path d="M10.5001 10.6668C10.5001 4.95766 15.1242 0.333496 20.8334 0.333496C26.5426 0.333496 31.1667 4.95766 31.1667 10.6668C31.1667 16.376 26.5426 21.0002 20.8334 21.0002C15.1242 21.0002 10.5001 16.376 10.5001 10.6668ZM20.8334 26.1668C9.41508 26.1668 0.166748 30.791 0.166748 36.5002V41.6668H28.8159C28.6867 40.8143 28.5834 39.9618 28.5834 39.0835C28.5834 34.8468 30.2884 30.9977 33.0784 28.1818C29.6426 26.916 25.4317 26.1668 20.8334 26.1668V26.1668ZM41.5001 36.5002V31.3335L33.7501 39.0835L41.5001 46.8335V41.6668H51.8334V36.5002H41.5001Z" fill="url(#paint0_linear_681_8590)"/>
<defs>
<linearGradient id="paint0_linear_681_8590" x1="51.8334" y1="46.9465" x2="5.59032" y2="-4.43476" gradientUnits="userSpaceOnUse">
<stop offset="0.275366" stop-color="#0175B2"/>
<stop offset="0.956923" stop-color="#0175B2" stop-opacity="0.3"/>
</linearGradient>
</defs>
</svg>
