<svg width="62" height="62" viewBox="0 0 62 62" fill="none" xmlns="http://www.w3.org/2000/svg">
<path d="M31 58.125L19.034 51.7448C15.6227 49.93 12.77 47.2205 10.782 43.9071C8.79408 40.5937 7.74591 36.8015 7.75001 32.9375V7.75C7.75104 6.7226 8.15963 5.73758 8.88611 5.01109C9.61259 4.28461 10.5976 3.87603 11.625 3.875H50.375C51.4024 3.87603 52.3874 4.28461 53.1139 5.01109C53.8404 5.73758 54.249 6.7226 54.25 7.75V32.9375C54.2541 36.8015 53.2059 40.5937 51.218 43.9071C49.23 47.2205 46.3773 49.93 42.966 51.7448L31 58.125ZM11.625 7.75V32.9375C11.6218 36.0991 12.4796 39.2019 14.1065 41.9129C15.7333 44.6238 18.0677 46.8406 20.8591 48.3251L31 53.7327L41.1409 48.3271C43.9326 46.8423 46.2672 44.6253 47.894 41.914C49.5209 39.2027 50.3786 36.0994 50.375 32.9375V7.75H11.625Z" fill="url(#paint0_linear_869_22179)"/>
<path d="M31 48.9742V11.625H46.5V32.5597C46.4999 35.0155 45.833 37.4252 44.5704 39.5316C43.3078 41.6381 41.497 43.3621 39.3312 44.5199L31 48.9742Z" fill="url(#paint1_linear_869_22179)"/>
<defs>
<linearGradient id="paint0_linear_869_22179" x1="54.25" y1="58.2568" x2="0.638254" y2="12.3038" gradientUnits="userSpaceOnUse">
<stop offset="0.275366" stop-color="#0175B2"/>
<stop offset="0.956923" stop-color="#0175B2" stop-opacity="0.3"/>
</linearGradient>
<linearGradient id="paint1_linear_869_22179" x1="46.5" y1="49.0649" x2="20.0546" y2="38.09" gradientUnits="userSpaceOnUse">
<stop offset="0.275366" stop-color="#0175B2"/>
<stop offset="0.956923" stop-color="#0175B2" stop-opacity="0.3"/>
</linearGradient>
</defs>
</svg>
