<svg width="62" height="62" viewBox="0 0 62 62" fill="none" xmlns="http://www.w3.org/2000/svg">
<path d="M45.2083 11.625C40.1707 11.625 34.7458 12.6583 30.9999 15.5C27.2541 12.6583 21.8291 11.625 16.7916 11.625C13.0458 11.625 9.06742 12.1933 5.73492 13.6658C3.84909 14.5183 2.58325 16.3525 2.58325 18.445V47.585C2.58325 50.9433 5.73492 53.4233 8.98992 52.5967C11.5216 51.9508 14.2083 51.6667 16.7916 51.6667C20.8216 51.6667 25.1099 52.3383 28.5716 54.0433C30.1216 54.8183 31.8783 54.8183 33.4024 54.0433C36.8641 52.3125 41.1524 51.6667 45.1824 51.6667C47.7658 51.6667 50.4524 51.9508 52.9841 52.5967C56.2391 53.4492 59.3908 50.9692 59.3908 47.585V18.445C59.3908 16.3525 58.1249 14.5183 56.2391 13.6658C52.9324 12.1933 48.9541 11.625 45.2083 11.625ZM54.2499 44.5108C54.2499 46.1383 52.7516 47.3267 51.1499 47.0425C49.2124 46.6808 47.1974 46.5258 45.2083 46.5258C40.8166 46.5258 34.4874 48.205 30.9999 50.4008V20.6667C34.4874 18.4708 40.8166 16.7917 45.2083 16.7917C47.5849 16.7917 49.9358 17.0242 52.1833 17.515C53.3716 17.7733 54.2499 18.8325 54.2499 20.0467V44.5108Z" fill="url(#paint0_linear_869_2113)"/>
<path d="M36.115 28.4423C35.2883 28.4423 34.5392 27.9256 34.2809 27.099C33.945 26.0915 34.5133 24.9806 35.5208 24.6706C39.4992 23.379 44.64 22.9656 49.3675 23.5081C50.4267 23.6373 51.2017 24.5931 51.0725 25.6523C50.9433 26.7115 49.9875 27.4865 48.9283 27.3573C44.7434 26.8665 40.1708 27.254 36.7092 28.3648C36.5025 28.3906 36.2958 28.4423 36.115 28.4423Z" fill="url(#paint1_linear_869_2113)"/>
<path d="M36.115 35.3144C35.2883 35.3144 34.5392 34.7977 34.2809 33.971C33.945 32.9635 34.5133 31.8527 35.5208 31.5427C39.4733 30.251 44.64 29.8377 49.3675 30.3802C50.4267 30.5094 51.2017 31.4652 51.0725 32.5244C50.9433 33.5835 49.9875 34.3585 48.9283 34.2294C44.7434 33.7385 40.1708 34.126 36.7092 35.2369C36.5025 35.2885 36.2958 35.3144 36.115 35.3144Z" fill="url(#paint2_linear_869_2113)"/>
<path d="M36.115 42.1859C35.2883 42.1859 34.5392 41.6693 34.2809 40.8426C33.945 39.8351 34.5133 38.7243 35.5208 38.4143C39.4733 37.1226 44.64 36.7093 49.3675 37.2518C50.4267 37.3809 51.2017 38.3368 51.0725 39.3959C50.9433 40.4551 49.9875 41.2043 48.9283 41.1009C44.7434 40.6101 40.1708 40.9976 36.7092 42.1084C36.5025 42.1601 36.2958 42.1859 36.115 42.1859Z" fill="url(#paint3_linear_869_2113)"/>
<defs>
<linearGradient id="paint0_linear_869_2113" x1="59.3908" y1="54.729" x2="18.0062" y2="0.0552521" gradientUnits="userSpaceOnUse">
<stop offset="0.275366" stop-color="#0175B2"/>
<stop offset="0.956923" stop-color="#0175B2" stop-opacity="0.3"/>
</linearGradient>
<linearGradient id="paint1_linear_869_2113" x1="51.0866" y1="28.4548" x2="48.1976" y2="19.0042" gradientUnits="userSpaceOnUse">
<stop offset="0.275366" stop-color="#0175B2"/>
<stop offset="0.956923" stop-color="#0175B2" stop-opacity="0.3"/>
</linearGradient>
<linearGradient id="paint2_linear_869_2113" x1="51.0866" y1="35.3269" x2="48.1976" y2="25.8762" gradientUnits="userSpaceOnUse">
<stop offset="0.275366" stop-color="#0175B2"/>
<stop offset="0.956923" stop-color="#0175B2" stop-opacity="0.3"/>
</linearGradient>
<linearGradient id="paint3_linear_869_2113" x1="51.0866" y1="42.1985" x2="48.1976" y2="32.7478" gradientUnits="userSpaceOnUse">
<stop offset="0.275366" stop-color="#0175B2"/>
<stop offset="0.956923" stop-color="#0175B2" stop-opacity="0.3"/>
</linearGradient>
</defs>
</svg>
