<svg width="62" height="62" viewBox="0 0 62 62" fill="none" xmlns="http://www.w3.org/2000/svg">
<path d="M31 4.1333C25.6863 4.1333 20.4919 5.709 16.0737 8.66115C11.6555 11.6133 8.21189 15.8093 6.17842 20.7185C4.14494 25.6278 3.61289 31.0298 4.64955 36.2414C5.6862 41.453 8.24501 46.2402 12.0024 49.9976C15.7597 53.7549 20.5469 56.3137 25.7586 57.3504C30.9702 58.3871 36.3722 57.855 41.2814 55.8215C46.1907 53.7881 50.3867 50.3445 53.3388 45.9263C56.2909 41.5081 57.8666 36.3137 57.8666 31C57.8666 27.4718 57.1717 23.9782 55.8215 20.7185C54.4714 17.4589 52.4924 14.4972 49.9976 12.0024C47.5028 9.50756 44.541 7.52858 41.2814 6.1784C38.0218 4.82823 34.5282 4.1333 31 4.1333ZM41.7467 15.872L31 26.6186L20.2533 15.872C23.3818 13.6143 27.1419 12.3992 31 12.3992C34.8581 12.3992 38.6181 13.6143 41.7467 15.872ZM15.872 20.2533L26.6186 31L15.872 41.7466C13.6143 38.6181 12.3992 34.858 12.3992 31C12.3992 27.1419 13.6143 23.3818 15.872 20.2533ZM20.2533 46.128L31 35.3813L41.7467 46.128C38.6181 48.3857 34.8581 49.6007 31 49.6007C27.1419 49.6007 23.3818 48.3857 20.2533 46.128ZM46.128 41.7466L35.3813 31L46.128 20.2533C48.3857 23.3818 49.6008 27.1419 49.6008 31C49.6008 34.858 48.3857 38.6181 46.128 41.7466Z" fill="url(#paint0_linear_869_22173)"/>
<defs>
<linearGradient id="paint0_linear_869_22173" x1="57.8666" y1="57.9972" x2="4.1333" y2="4.26383" gradientUnits="userSpaceOnUse">
<stop offset="0.275366" stop-color="#0175B2"/>
<stop offset="0.956923" stop-color="#0175B2" stop-opacity="0.3"/>
</linearGradient>
</defs>
</svg>
