<svg width="512" height="512" viewBox="0 0 512 512" fill="none" xmlns="http://www.w3.org/2000/svg">
<path d="M367.303 25.402C333.647 9.128 295.889 0 255.999 0C216.109 0 178.351 9.128 144.695 25.402L122.434 256L144.695 486.598C178.351 502.872 216.109 512 255.999 512C295.889 512 333.647 502.872 367.303 486.598L389.564 256L367.303 25.402Z" fill="#D80027"/>
<path d="M144.696 25.4102C59.066 66.8172 0 154.506 0 255.999C0 357.492 59.066 445.181 144.696 486.588V25.4102Z" fill="black"/>
<path d="M367.305 25.4102V486.588C452.935 445.181 512.001 357.492 512.001 255.999C512.001 154.506 452.935 66.8172 367.305 25.4102Z" fill="#496E2D"/>
<path d="M256 166.957C206.822 166.957 166.957 206.823 166.957 256C166.957 305.177 206.823 345.043 256 345.043C305.177 345.043 345.043 305.177 345.043 256C345.043 206.823 305.178 166.957 256 166.957ZM256 311.652C225.264 311.652 200.348 286.735 200.348 256C200.348 225.265 225.265 200.348 256 200.348C286.735 200.348 311.652 225.265 311.652 256C311.652 286.735 286.736 311.652 256 311.652Z" fill="#FFDA44"/>
<path d="M255.999 222.609C243.704 222.609 233.738 232.575 233.738 244.87V278.261H278.26V244.87C278.26 232.575 268.294 222.609 255.999 222.609Z" fill="#FFDA44"/>
</svg>
