<svg width="512" height="512" viewBox="0 0 512 512" fill="none" xmlns="http://www.w3.org/2000/svg">
<path d="M512 256.002C512 224.688 506.368 194.691 496.077 166.959L256 155.828L15.923 166.958C5.633 194.691 0 224.688 0 256.002C0 287.316 5.633 317.313 15.923 345.045L256 356.176L496.077 345.046C506.368 317.313 512 287.316 512 256.002Z" fill="#D80027"/>
<path d="M255.999 512.004C366.07 512.004 459.905 442.532 496.076 345.047H15.9219C52.0929 442.532 145.928 512.004 255.999 512.004Z" fill="#6DA544"/>
<path d="M15.9219 166.957H496.077C459.905 69.472 366.07 0 255.999 0C145.928 0 52.0929 69.472 15.9219 166.957Z" fill="#338AF3"/>
<path d="M261.564 328.345C221.608 328.345 189.216 295.953 189.216 255.997C189.216 216.041 221.608 183.649 261.564 183.649C274.022 183.649 285.745 186.799 295.979 192.345C279.923 176.644 257.967 166.953 233.738 166.953C184.56 166.953 144.695 206.819 144.695 255.996C144.695 305.173 184.561 345.039 233.738 345.039C257.968 345.039 279.924 335.348 295.979 319.647C285.745 325.195 274.022 328.345 261.564 328.345Z" fill="#F0F0F0"/>
<path d="M317.216 205.906L326.799 232.857L352.633 220.575L340.352 246.409L367.303 255.993L340.352 265.577L352.633 291.411L326.799 279.129L317.216 306.08L307.634 279.129L281.799 291.411L294.081 265.577L267.129 255.993L294.081 246.409L281.799 220.575L307.634 232.857L317.216 205.906Z" fill="#F0F0F0"/>
</svg>
