<svg width="512" height="512" viewBox="0 0 512 512" fill="none" xmlns="http://www.w3.org/2000/svg">
<g clip-path="url(#clip0_720_81482)">
<path d="M256 512C397.385 512 512 397.385 512 256C512 114.615 397.385 0 256 0C114.615 0 0 114.615 0 256C0 397.385 114.615 512 256 512Z" fill="#FCFCFC"/>
<path d="M105.74 237.451L77.9141 186.968L105.74 137.277L133.566 186.968L105.74 237.451Z" fill="#A2001D"/>
<path d="M50.0877 237.451L22.2617 186.968L50.0877 137.277L77.9137 186.968L50.0877 237.451Z" fill="#A2001D"/>
<path d="M105.74 374.725L77.9141 324.242L105.74 274.551L133.566 324.242L105.74 374.725Z" fill="#A2001D"/>
<path d="M50.0877 374.725L22.2617 324.242L50.0877 274.551L77.9137 324.242L50.0877 374.725Z" fill="#A2001D"/>
<path d="M133.566 49.693L125.688 35.625C111.558 43.997 98.3048 53.69 86.0938 64.534L105.74 100.175L133.566 49.693Z" fill="#A2001D"/>
<path d="M105.741 411.828L85.8867 447.284C98.0867 458.142 111.331 467.85 125.455 476.239L133.568 461.52L105.741 411.828Z" fill="#A2001D"/>
<path d="M155.824 322.781V491.644C186.593 504.741 220.446 511.998 255.998 511.998C366.069 511.998 459.904 442.526 496.075 345.041L155.824 322.781Z" fill="#6DA544"/>
<path d="M496.075 345.043C506.366 317.31 511.998 287.314 511.998 256C511.998 114.616 397.382 0 255.998 0C220.449 0 186.593 7.253 155.824 20.348V345.044H496.075V345.043Z" fill="#A2001D"/>
</g>
<defs>
<clipPath id="clip0_720_81482">
<rect width="512" height="512" fill="white"/>
</clipPath>
</defs>
</svg>
