<svg width="512" height="512" viewBox="0 0 512 512" fill="none" xmlns="http://www.w3.org/2000/svg">
<path d="M512 255.998C512 224.684 506.368 194.687 496.077 166.955L256 155.824L15.923 166.954C5.633 194.687 0 224.684 0 255.998C0 287.312 5.633 317.309 15.923 345.041L256 356.172L496.077 345.042C506.368 317.309 512 287.312 512 255.998Z" fill="#496E2D"/>
<path d="M255.999 512C366.07 512 459.905 442.528 496.076 345.043H15.9219C52.0929 442.528 145.928 512 255.999 512Z" fill="#D80027"/>
<path d="M15.9219 166.957H496.077C459.905 69.472 366.07 0 255.999 0C145.928 0 52.0929 69.472 15.9219 166.957Z" fill="#F0F0F0"/>
</svg>
