<svg width="512" height="512" viewBox="0 0 512 512" fill="none" xmlns="http://www.w3.org/2000/svg">
<path d="M0 256.001C0 300.351 11.283 342.065 31.127 378.436L256 400.697L480.873 378.436C500.717 342.065 512 300.351 512 256.001C512 211.651 500.717 169.937 480.873 133.566L256 111.305L31.127 133.566C11.283 169.937 0 211.651 0 256.001H0Z" fill="#D80027"/>
<path d="M31.1289 133.565H480.874C437.456 53.989 353.037 0 256.002 0C158.967 0 74.5479 53.989 31.1289 133.565Z" fill="#0052B4"/>
<path d="M256.002 512.003C353.037 512.003 437.456 458.013 480.875 378.438H31.1289C74.5479 458.013 158.967 512.003 256.002 512.003Z" fill="#0052B4"/>
<path d="M345.042 306.087V272.696H322.782V228.174L300.521 205.913L278.26 228.174V183.652L255.999 161.391L233.738 183.652V228.174L211.477 205.913L189.216 228.174V272.696H166.956V306.087H144.695V339.478H367.303V306.087H345.042Z" fill="#F0F0F0"/>
</svg>
