<svg width="512" height="512" viewBox="0 0 512 512" fill="none" xmlns="http://www.w3.org/2000/svg">
<path d="M512 256C512 224.686 506.367 194.689 496.077 166.957L256 155.826L15.923 166.956C5.633 194.689 0 224.686 0 256C0 287.314 5.633 317.311 15.923 345.043L256 356.174L496.077 345.044C506.367 317.311 512 287.314 512 256Z" fill="#F0F0F0"/>
<path d="M255.999 512C366.07 512 459.905 442.528 496.076 345.043H15.9219C52.0929 442.528 145.928 512 255.999 512Z" fill="#0052B4"/>
<path d="M15.9219 166.957H496.077C459.905 69.472 366.07 0 255.999 0C145.928 0 52.0929 69.472 15.9219 166.957Z" fill="#D80027"/>
<path d="M322.784 178.088H278.262L285.683 122.435L315.363 100.174L345.044 122.435V166.957L322.784 178.088Z" fill="#338AF3"/>
<path d="M189.217 178.088H233.739L226.318 122.435L196.637 100.174L166.957 122.435V166.957L189.217 178.088Z" fill="#338AF3"/>
<path d="M285.68 178.088H226.316V122.435L255.998 100.174L285.68 122.435V178.088Z" fill="#0052B4"/>
<path d="M166.957 166.957V289.391C166.957 318.544 181.039 344.47 202.759 360.723L218.342 356.824L238.006 376.606C243.821 377.804 249.838 378.435 256.001 378.435C262.131 378.435 268.118 377.812 273.902 376.626L296.349 357.936L309.241 360.687C330.952 344.435 345.044 318.536 345.044 289.391V166.957H166.957Z" fill="#F0F0F0"/>
<path d="M166.957 166.957H202.574V202.574H166.957V166.957Z" fill="#D80027"/>
<path d="M238.191 166.957H273.808V202.574H238.191V166.957Z" fill="#D80027"/>
<path d="M309.426 166.957H345.043V202.574H309.426V166.957Z" fill="#D80027"/>
<path d="M202.574 202.574H238.191V238.191H202.574V202.574Z" fill="#D80027"/>
<path d="M273.809 202.574H309.426V238.191H273.809V202.574Z" fill="#D80027"/>
<path d="M166.957 238.18H202.574V273.797H166.957V238.18Z" fill="#D80027"/>
<path d="M202.574 273.799H238.191V309.416H202.574V273.799Z" fill="#D80027"/>
<path d="M238.191 238.18H273.808V273.797H238.191V238.18Z" fill="#D80027"/>
<path d="M309.426 238.18H345.043V273.797H309.426V238.18Z" fill="#D80027"/>
<path d="M273.809 273.799H309.426V309.416H273.809V273.799Z" fill="#D80027"/>
<path d="M238.191 309.414H273.808V345.031H238.191V309.414Z" fill="#D80027"/>
<path d="M202.573 309.418H169.254C172.31 322.658 178.318 334.773 186.556 345.035H202.573V309.418Z" fill="#D80027"/>
<path d="M309.426 345.037H325.442C333.682 334.775 339.688 322.659 342.744 309.42H309.426V345.037Z" fill="#D80027"/>
<path d="M202.574 345.035V360.576C212.933 368.371 225.039 373.96 238.191 376.642V345.035H202.574Z" fill="#D80027"/>
<path d="M273.809 345.035V376.642C286.962 373.962 299.067 368.371 309.426 360.576V345.035H273.809Z" fill="#D80027"/>
</svg>
