<svg width="512" height="512" viewBox="0 0 512 512" fill="none" xmlns="http://www.w3.org/2000/svg">
<g clip-path="url(#clip0_720_81395)">
<path d="M0 255.999C0 287.315 5.633 317.311 15.924 345.045L256 367.303L496.076 345.044C506.368 317.311 512 287.314 512 255.999C512 225.114 506.529 195.507 496.506 168.094L256 144.695L15.494 168.095C5.471 195.507 0 225.114 0 255.999H0Z" fill="#FFDA44"/>
<path d="M255.999 512C366.07 512 459.905 442.528 496.076 345.043H15.9219C52.0929 442.528 145.928 512 255.999 512Z" fill="#D80027"/>
<path d="M255.999 0C145.928 0 52.0929 69.472 15.9219 166.957H496.077C459.905 69.472 366.07 0 255.999 0Z" fill="#6DA544"/>
<path d="M256.001 378.434C323.62 378.434 378.436 323.618 378.436 255.999C378.436 188.38 323.62 133.564 256.001 133.564C188.382 133.564 133.566 188.38 133.566 255.999C133.566 323.618 188.382 378.434 256.001 378.434Z" fill="#0052B4"/>
<path d="M255.972 161.191L278.074 229.213H349.711L291.733 271.254L314.009 339.478L255.972 297.237L198.024 339.4L220.21 271.254L162.285 229.213H233.87L255.972 161.191Z" fill="#FFDA44"/>
<path d="M344.123 272.93L274.007 250.146L317.34 190.506L299.332 177.42L255.997 237.064L212.666 177.421L194.656 190.505L237.988 250.15L167.875 272.929L174.753 294.102L244.869 271.321V345.043H267.129V271.32L337.242 294.102L344.123 272.93Z" fill="#FFDA44"/>
</g>
<defs>
<clipPath id="clip0_720_81395">
<rect width="512" height="512" fill="white"/>
</clipPath>
</defs>
</svg>
