<svg width="512" height="512" viewBox="0 0 512 512" fill="none" xmlns="http://www.w3.org/2000/svg">
<path d="M15.9219 345.043C52.0929 442.527 145.928 512 255.999 512C366.07 512 459.905 442.527 496.076 345.043L255.999 322.783L15.9219 345.043Z" fill="#FFDA44"/>
<path d="M255.999 0C145.928 0 52.0929 69.472 15.9219 166.957L255.999 189.217L496.076 166.956C459.905 69.472 366.07 0 255.999 0Z" fill="black"/>
<path d="M15.923 166.957C5.633 194.69 0 224.686 0 256C0 287.314 5.633 317.31 15.923 345.043H496.078C506.368 317.31 512 287.314 512 256C512 224.686 506.368 194.69 496.077 166.957H15.923Z" fill="#D80027"/>
</svg>
