<svg width="512" height="512" viewBox="0 0 512 512" fill="none" xmlns="http://www.w3.org/2000/svg">
<path d="M0 256.002C0 287.316 5.633 317.312 15.923 345.045L256 356.176L496.077 345.046C506.368 317.312 512 287.316 512 256.002C512 224.688 506.368 194.692 496.077 166.959L256 155.828L15.923 166.958C5.633 194.692 0 224.688 0 256.002H0Z" fill="#FFDA44"/>
<path d="M255.999 0C145.928 0 52.0929 69.472 15.9219 166.957H496.077C459.905 69.472 366.07 0 255.999 0Z" fill="#D80027"/>
<path d="M496.076 345.047H15.9219C52.0929 442.531 145.928 512.004 255.999 512.004C366.07 512.004 459.905 442.531 496.076 345.047Z" fill="#496E2D"/>
<path d="M255.999 166.953L278.099 234.973H349.627L291.764 277.016L313.864 345.039L255.999 302.999L198.134 345.039L220.238 277.016L162.375 234.973H233.899L255.999 166.953Z" fill="black"/>
</svg>
