<svg width="512" height="512" viewBox="0 0 512 512" fill="none" xmlns="http://www.w3.org/2000/svg">
<path d="M256 512C397.385 512 512 397.385 512 256C512 114.615 397.385 0 256 0C114.615 0 0 114.615 0 256C0 397.385 114.615 512 256 512Z" fill="#F0F0F0"/>
<path d="M256 189.217H503.181C496.762 165.403 487.006 142.962 474.426 122.434H256V189.217Z" fill="#338AF3"/>
<path d="M96.6432 456.349H415.356C438.719 437.741 458.755 415.139 474.425 389.566H37.5742C53.2452 415.138 73.2812 437.741 96.6432 456.349Z" fill="#338AF3"/>
<path d="M89.0432 61.9375C68.9172 79.2685 51.5182 99.6775 37.5742 122.433H89.0432V61.9375Z" fill="#338AF3"/>
<path d="M256 256.002C256 229.926 256 208.103 256 189.219H155.826V256.002H89.043V189.219H8.819C3.08 210.513 0 232.895 0 256.002C0 279.109 3.08 301.491 8.819 322.785H503.182C508.92 301.491 512 279.109 512 256.002H256Z" fill="#338AF3"/>
<path d="M255.998 0C220.449 0 186.594 7.253 155.824 20.348V122.435H255.998C255.998 99.123 255.998 79.296 255.998 55.652H415.355C371.624 20.824 316.247 0 255.998 0Z" fill="#338AF3"/>
</svg>
