<svg width="512" height="512" viewBox="0 0 512 512" fill="none" xmlns="http://www.w3.org/2000/svg">
<path d="M512 256C512 397.384 397.384 512 256 512C114.616 512 0 397.384 0 256C0 114.616 256 0 256 0C256 0 512 114.616 512 256Z" fill="#A2001D"/>
<path d="M0 256C0 114.616 114.616 0 256 0C397.384 0 512 114.616 512 256" fill="#0052B4"/>
<path d="M345.043 322.785L256 311.654L166.957 322.785V189.219H345.043V322.785Z" fill="#F0F0F0"/>
<path d="M255.999 311.653C280.587 311.653 300.521 291.72 300.521 267.131C300.521 242.543 280.587 222.609 255.999 222.609C231.41 222.609 211.477 242.543 211.477 267.131C211.477 291.72 231.41 311.653 255.999 311.653Z" fill="#0052B4"/>
<path d="M255.999 289.389C268.294 289.389 278.26 279.423 278.26 267.128C278.26 254.834 268.294 244.867 255.999 244.867C243.705 244.867 233.738 254.834 233.738 267.128C233.738 279.423 243.705 289.389 255.999 289.389Z" fill="#A2001D"/>
<path d="M222.609 211.477H289.391L256 244.869L222.609 211.477Z" fill="#6DA544"/>
<path d="M244.871 233.742H267.132V300.525H244.871V233.742Z" fill="#FFDA44"/>
<path d="M291.617 293.844H220.381L166.957 322.784H345.043L291.617 293.844Z" fill="#6DA544"/>
</svg>
