<svg width="512" height="512" viewBox="0 0 512 512" fill="none" xmlns="http://www.w3.org/2000/svg">
<path d="M15.923 166.956C5.633 194.69 0 224.685 0 255.999C0 287.313 5.633 317.31 15.923 345.042L256 367.303L496.077 345.042C506.367 317.31 512 287.313 512 255.999C512 224.685 506.367 194.69 496.077 166.956L256 144.695L15.923 166.956Z" fill="#F0F0F0"/>
<path d="M256.002 0C145.932 0 52.0958 69.472 15.9258 166.957H496.081C459.908 69.472 366.074 0 256.002 0Z" fill="#D80027"/>
<path d="M256.002 512C366.074 512 459.908 442.528 496.08 345.043H15.9258C52.0958 442.528 145.932 512 256.002 512Z" fill="#6DA544"/>
</svg>
