<svg width="512" height="512" viewBox="0 0 512 512" fill="none" xmlns="http://www.w3.org/2000/svg">
<path d="M256 512C397.385 512 512 397.385 512 256C512 114.615 397.385 0 256 0C114.615 0 0 114.615 0 256C0 397.385 114.615 512 256 512Z" fill="#F0F0F0"/>
<path d="M255.999 0C145.928 0 52.0929 69.472 15.9219 166.957H496.077C459.905 69.472 366.07 0 255.999 0Z" fill="#A2001D"/>
<path d="M255.999 512C366.07 512 459.905 442.528 496.076 345.043H15.9219C52.0929 442.528 145.928 512 255.999 512Z" fill="black"/>
<path d="M194.783 239.306C194.643 239.306 194.506 239.315 194.366 239.317V239.306H145.429C147.91 229.72 156.608 222.61 166.957 222.61V189.219C136.27 189.219 111.305 214.185 111.305 244.871V272.141V272.698H194.366H194.783C197.852 272.698 200.348 275.195 200.348 278.263V289.393H89.043V322.784H233.739V278.262C233.739 256.782 216.263 239.306 194.783 239.306Z" fill="#496E2D"/>
<path d="M278.262 289.393V189.219H244.871V322.785H300.523V289.393H278.262Z" fill="#496E2D"/>
<path d="M389.565 289.394V189.219H356.174V289.394H345.043V256.003H311.652V322.786H411.826V289.394H389.565Z" fill="#496E2D"/>
</svg>
