<svg width="512" height="512" viewBox="0 0 512 512" fill="none" xmlns="http://www.w3.org/2000/svg">
<path d="M256 512C397.385 512 512 397.385 512 256C512 114.615 397.385 0 256 0C114.615 0 0 114.615 0 256C0 397.385 114.615 512 256 512Z" fill="#338AF3"/>
<path d="M400.697 258.781H111.305C111.305 278.76 128.706 294.955 148.683 294.955H147.479C147.479 314.934 163.674 331.129 183.653 331.129C183.653 351.108 199.848 367.303 219.827 367.303H292.175C312.154 367.303 328.349 351.108 328.349 331.129C348.328 331.129 364.523 314.934 364.523 294.955H363.319C383.294 294.955 400.697 278.76 400.697 258.781Z" fill="#FFDA44"/>
<path d="M356.172 211.477C356.172 266.801 311.322 311.651 255.998 311.651C200.673 311.651 155.824 266.801 155.824 211.477" fill="#338AF3"/>
<path d="M332.514 211.478L301.249 226.185L317.898 256.465L283.948 249.97L279.646 284.266L255.999 259.041L232.351 284.266L228.05 249.97L194.1 256.463L210.748 226.184L179.484 211.478L210.749 196.772L194.1 166.493L228.049 172.987L232.352 138.691L255.999 163.916L279.647 138.691L283.948 172.987L317.899 166.493L301.25 196.773L332.514 211.478Z" fill="#FFDA44"/>
</svg>
