<svg width="512" height="512" viewBox="0 0 512 512" fill="none" xmlns="http://www.w3.org/2000/svg">
<path d="M256 512C397.385 512 512 397.385 512 256C512 114.615 397.385 0 256 0C114.615 0 0 114.615 0 256C0 397.385 114.615 512 256 512Z" fill="#D80027"/>
<path d="M407.287 210.09H291.713L255.999 100.174L220.285 210.09H104.711L198.212 278.022L162.497 387.941L255.999 320.008L349.501 387.942L313.786 278.023L407.287 210.09ZM224.381 269.519L236.458 232.35H275.539L287.617 269.519V269.52L255.999 292.491L224.382 269.52L224.381 269.519ZM268.307 210.09H243.692L255.999 172.21L268.307 210.09ZM306.552 255.762L298.945 232.351H338.774L306.552 255.762ZM213.052 232.351L205.445 255.762L173.222 232.351H213.052ZM204.84 329.661L217.148 291.782L237.063 306.25L204.84 329.661ZM274.935 306.251L294.85 291.783L307.158 329.662L274.935 306.251Z" fill="#FFDA44"/>
</svg>
