<svg width="512" height="512" viewBox="0 0 512 512" fill="none" xmlns="http://www.w3.org/2000/svg">
<path d="M496.077 345.042C506.368 317.31 512 287.313 512 255.999C512 224.685 506.368 194.688 496.077 166.956L256 144.695L15.923 166.956C5.633 194.688 0 224.685 0 255.999C0 287.313 5.633 317.31 15.923 345.042L256 367.303L496.077 345.042Z" fill="#6DA544"/>
<path d="M496.076 166.957C459.905 69.472 366.07 0 255.999 0C145.928 0 52.0929 69.472 15.9219 166.957H496.076Z" fill="#FFDA44"/>
<path d="M255.999 512C366.07 512 459.905 442.528 496.076 345.043H15.9219C52.0929 442.528 145.928 512 255.999 512Z" fill="#D80027"/>
<path d="M431.547 216.586H297.44L255.998 89.043L214.556 216.586H80.4492L188.944 295.412L147.502 422.957L255.998 345.043L364.494 422.956L323.053 295.411L431.547 216.586Z" fill="#F0F0F0"/>
</svg>
