<svg width="512" height="512" viewBox="0 0 512 512" fill="none" xmlns="http://www.w3.org/2000/svg">
<g clip-path="url(#clip0_720_81415)">
<path d="M256 512C397.385 512 512 397.385 512 256C512 114.615 397.385 0 256 0C114.615 0 0 114.615 0 256C0 397.385 114.615 512 256 512Z" fill="#F0F0F0"/>
<path d="M510.495 283.824L510.489 283.816L510.488 283.824H510.495Z" fill="#0052B4"/>
<path d="M510.49 283.825C510.49 283.823 510.491 283.821 510.491 283.817L229.746 1.33008C217.081 2.62108 204.688 4.83508 192.637 7.90408C81.898 36.0991 0 255.999 0 255.999C0 255.999 358.398 495.834 399.285 468.163C407.466 462.627 415.31 456.63 422.778 450.21L256.395 283.825H510.49Z" fill="#0052B4"/>
<path d="M445.217 256L196.245 7.0293C83.688 33.9463 0 135.192 0 256C0 397.384 114.616 512 256 512C309.629 512 359.397 495.498 400.529 467.311L189.217 256H445.217Z" fill="#D80027"/>
<path d="M243.472 377.993L212.207 363.287L228.856 333.008L194.906 339.503L190.604 305.205L166.957 330.43L143.31 305.205L139.007 339.503L105.058 333.007L121.707 363.287L90.4414 377.993L121.707 392.698L105.058 422.978L139.009 416.484L143.309 450.78L166.957 425.555L190.604 450.78L194.906 416.484L228.855 422.979L212.206 392.7L243.472 377.993Z" fill="#F0F0F0"/>
<path d="M222.61 141.983L199.87 131.288L211.979 109.265L187.286 113.989L184.157 89.043L166.958 107.39L149.759 89.043L146.629 113.989L121.936 109.265L134.046 131.288L111.305 141.983L166.958 153.115L222.61 141.983Z" fill="#F0F0F0"/>
<path d="M233.738 141.982C233.738 178.865 203.838 208.765 166.955 208.765C130.072 208.765 100.172 178.865 100.172 141.982" fill="#F0F0F0"/>
</g>
<defs>
<clipPath id="clip0_720_81415">
<rect width="512" height="512" fill="white"/>
</clipPath>
</defs>
</svg>
