<svg width="512" height="512" viewBox="0 0 512 512" fill="none" xmlns="http://www.w3.org/2000/svg">
<path d="M256 512C397.385 512 512 397.385 512 256C512 114.615 397.385 0 256 0C114.615 0 0 114.615 0 256C0 397.385 114.615 512 256 512Z" fill="#F0F0F0"/>
<path d="M256 0V256L74.9805 437.02C121.307 483.346 185.307 512 256 512C397.384 512 512 397.384 512 256C512 114.616 256 0 256 0Z" fill="#D80027"/>
<path d="M256 0C185.307 0 121.307 28.654 74.9805 74.98C137.79 137.79 160.087 160.088 256 256H512C512 114.616 397.384 0 256 0Z" fill="#0052B4"/>
<path d="M175.292 256L144.028 241.294L160.677 211.015L126.727 217.51L122.425 183.213L98.7767 208.437L75.1297 183.213L70.8267 217.51L36.8777 211.014L53.5267 241.294L22.2617 256L53.5267 270.706L36.8777 300.985L70.8297 294.491L75.1287 328.787L98.7767 303.563L122.425 328.787L126.727 294.491L160.675 300.986L144.027 270.707L175.292 256Z" fill="#FFDA44"/>
<path d="M68.2738 100.174L78.6778 114.717L95.7228 109.318L85.1047 123.706L95.5088 138.249L78.5428 132.598L67.9258 146.985L68.0588 129.105L51.0938 123.453L68.1418 118.054L68.2738 100.174Z" fill="#FFDA44"/>
<path d="M68.2738 365.016L78.6778 379.559L95.7228 374.159L85.1047 388.548L95.5088 403.091L78.5428 397.44L67.9258 411.827L68.0588 393.947L51.0938 388.295L68.1418 382.896L68.2738 365.016Z" fill="#FFDA44"/>
<path d="M216.668 232.596L206.265 247.139L189.219 241.738L199.837 256.127L189.433 270.671L206.399 265.019L217.017 279.406L216.883 261.527L233.848 255.875L216.801 250.476L216.668 232.596Z" fill="#FFDA44"/>
</svg>
