<svg width="512" height="512" viewBox="0 0 512 512" fill="none" xmlns="http://www.w3.org/2000/svg">
<path d="M0 255.999C0 300.349 11.283 342.063 31.127 378.434L256 400.695L480.873 378.434C500.717 342.063 512 300.349 512 255.999L256 233.738L0 255.999Z" fill="#FFDA44"/>
<path d="M480.873 133.565C437.454 53.989 353.035 0 256 0C158.965 0 74.546 53.989 31.127 133.565C11.283 169.936 0 211.65 0 256H512C512 211.65 500.717 169.936 480.873 133.565Z" fill="#338AF3"/>
<path d="M256.002 511.999C353.037 511.999 437.456 458.01 480.875 378.434H31.1289C74.5479 458.01 158.967 511.999 256.002 511.999Z" fill="#496E2D"/>
<path d="M289.391 149.821L320.657 164.528L304.008 194.808L337.958 188.314L342.26 222.609L365.906 197.385L389.554 222.609L393.855 188.314L427.805 194.806L411.157 164.527L442.421 149.821L411.156 135.116L427.805 104.836L393.856 111.33L389.553 77.0352L365.906 102.259L342.259 77.0352L337.958 111.33L304.007 104.836L320.656 135.117L289.391 149.821Z" fill="#FFDA44"/>
</svg>
