<svg width="512" height="512" viewBox="0 0 512 512" fill="none" xmlns="http://www.w3.org/2000/svg">
<path d="M256 512C397.385 512 512 397.385 512 256C512 114.615 397.385 0 256 0C114.615 0 0 114.615 0 256C0 397.385 114.615 512 256 512Z" fill="#6DA544"/>
<path d="M144.699 306.086C144.699 324.527 159.649 339.477 178.09 339.477H278.264C278.264 354.845 290.722 367.303 306.09 367.303H339.481C354.849 367.303 367.307 354.845 367.307 339.477V306.086H144.699Z" fill="#F0F0F0"/>
<path d="M370.089 144.695V222.608C370.089 234.883 360.103 244.869 347.828 244.869V278.26C378.515 278.26 403.48 253.294 403.48 222.608V144.695H370.089Z" fill="#F0F0F0"/>
<path d="M130.784 222.608C130.784 234.883 120.798 244.869 108.523 244.869V278.26C139.21 278.26 164.175 253.294 164.175 222.608V144.695H130.784V222.608Z" fill="#F0F0F0"/>
<path d="M320 144.695H353.391V222.608H320V144.695Z" fill="#F0F0F0"/>
<path d="M269.914 189.217C269.914 192.286 267.417 194.782 264.349 194.782C261.281 194.782 258.784 192.285 258.784 189.217V144.695H225.393V189.217C225.393 192.286 222.896 194.782 219.828 194.782C216.76 194.782 214.263 192.285 214.263 189.217V144.695H180.871V189.217C180.871 210.698 198.347 228.174 219.828 228.174C228.101 228.174 235.773 225.574 242.089 221.158C248.404 225.573 256.077 228.174 264.35 228.174C266.016 228.174 267.654 228.057 269.265 227.852C266.899 237.601 258.119 244.869 247.654 244.869V278.26C278.341 278.26 303.306 253.294 303.306 222.608V189.217V144.695H269.915V189.217H269.914Z" fill="#F0F0F0"/>
<path d="M180.871 244.871H230.958V278.262H180.871V244.871Z" fill="#F0F0F0"/>
</svg>
