<svg width="512" height="512" viewBox="0 0 512 512" fill="none" xmlns="http://www.w3.org/2000/svg">
<path d="M256 512C397.385 512 512 397.385 512 256C512 114.615 397.385 0 256 0C114.615 0 0 114.615 0 256C0 397.385 114.615 512 256 512Z" fill="#F0F0F0"/>
<path d="M256 0C114.616 0 0 114.616 0 256C0 287.314 5.633 317.311 15.923 345.043H496.078C506.368 317.311 512 287.314 512 256C512 114.616 397.384 0 256 0Z" fill="#0052B4"/>
<path d="M255.999 0C145.928 0 52.0929 69.472 15.9219 166.957H496.077C459.905 69.472 366.07 0 255.999 0Z" fill="#D80027"/>
<path d="M66.1953 144.695V272.401C66.1953 345.045 161.096 367.304 161.096 367.304C161.096 367.304 255.996 345.045 255.996 272.401V144.695H66.1953Z" fill="#D80027"/>
<path d="M105.445 166.957H216.75V122.435L194.489 133.565L161.098 100.174L127.706 133.565L105.445 122.435V166.957Z" fill="#FFDA44"/>
<path d="M233.739 290.182L161.391 217.834L89.043 290.182L112.654 313.793L161.391 265.056L210.128 313.793L233.739 290.182Z" fill="#FFDA44"/>
<path d="M233.739 222.61H199.983C201.881 219.334 202.985 215.54 202.985 211.482C202.985 199.186 193.018 189.221 180.724 189.221C172.229 189.221 164.852 193.979 161.099 200.974C157.346 193.98 149.969 189.221 141.474 189.221C129.18 189.221 119.213 199.186 119.213 211.482C119.213 215.54 120.317 219.335 122.215 222.61H89.043C89.043 234.905 99.752 244.871 112.045 244.871H111.304C111.304 257.166 121.27 267.132 133.565 267.132C133.565 278.018 141.383 287.062 151.708 288.998L134.168 328.6C142.574 332.017 151.76 333.915 161.392 333.915C171.024 333.915 180.21 332.017 188.616 328.6L171.076 288.998C181.401 287.064 189.219 278.019 189.219 267.132C201.514 267.132 211.48 257.166 211.48 244.871H210.739C223.031 244.871 233.739 234.904 233.739 222.61Z" fill="#F0F0F0"/>
</svg>
