<svg width="512" height="512" viewBox="0 0 512 512" fill="none" xmlns="http://www.w3.org/2000/svg">
<path d="M256 512C397.385 512 512 397.385 512 256C512 114.615 397.385 0 256 0C114.615 0 0 114.615 0 256C0 397.385 114.615 512 256 512Z" fill="#F0F0F0"/>
<path d="M345.043 256C345.043 278.261 305.177 333.913 256 333.913C206.823 333.913 166.957 278.261 166.957 256C166.957 206.822 206.823 166.957 256 166.957C305.177 166.957 345.043 206.822 345.043 256Z" fill="#D80027"/>
<path d="M345.043 256C345.043 305.178 305.177 345.043 256 345.043C206.823 345.043 166.957 305.178 166.957 256" fill="#0052B4"/>
<path d="M350.375 334.708L373.982 311.101L389.721 326.839L366.114 350.447L350.375 334.708Z" fill="black"/>
<path d="M311.016 374.055L334.623 350.448L350.362 366.186L326.754 389.794L311.016 374.055Z" fill="black"/>
<path d="M397.594 381.921L421.201 358.313L436.94 374.052L413.332 397.659L397.594 381.921Z" fill="black"/>
<path d="M358.238 421.274L381.846 397.667L397.584 413.406L373.977 437.013L358.238 421.274Z" fill="black"/>
<path d="M373.984 358.316L397.592 334.709L413.33 350.447L389.723 374.055L373.984 358.316Z" fill="black"/>
<path d="M334.637 397.663L358.244 374.056L373.983 389.794L350.375 413.402L334.637 397.663Z" fill="black"/>
<path d="M397.699 177.335L334.746 114.382L350.484 98.6435L413.438 161.597L397.699 177.335Z" fill="black"/>
<path d="M334.73 161.603L311.123 137.996L326.861 122.258L350.468 145.865L334.73 161.603Z" fill="black"/>
<path d="M374.078 200.959L350.471 177.352L366.209 161.614L389.816 185.221L374.078 200.959Z" fill="black"/>
<path d="M381.941 114.38L358.334 90.7725L374.073 75.0339L397.68 98.6414L381.941 114.38Z" fill="black"/>
<path d="M421.309 153.74L397.701 130.133L413.44 114.394L437.047 138.002L421.309 153.74Z" fill="black"/>
<path d="M90.7539 358.272L153.707 421.225L137.969 436.964L75.0154 374.011L90.7539 358.272Z" fill="black"/>
<path d="M153.703 373.998L177.311 397.605L161.573 413.343L137.965 389.736L153.703 373.998Z" fill="black"/>
<path d="M114.355 334.66L137.963 358.267L122.224 374.006L98.617 350.398L114.355 334.66Z" fill="black"/>
<path d="M137.965 311.045L200.918 373.999L185.18 389.737L122.226 326.784L137.965 311.045Z" fill="black"/>
<path d="M153.703 90.7236L90.7497 153.677L75.0112 137.939L137.965 74.9851L153.703 90.7236Z" fill="black"/>
<path d="M177.309 114.329L114.355 177.282L98.6167 161.543L161.57 98.5901L177.309 114.329Z" fill="black"/>
<path d="M200.938 137.95L137.984 200.904L122.246 185.166L185.2 122.212L200.938 137.95Z" fill="black"/>
</svg>
