<svg width="512" height="512" viewBox="0 0 512 512" fill="none" xmlns="http://www.w3.org/2000/svg">
<path d="M0 256C0 287.314 5.633 317.31 15.923 345.043L256 367.304L496.077 345.043C506.367 317.31 512 287.314 512 256C512 224.686 506.367 194.69 496.077 166.957L256 144.696L15.923 166.957C5.633 194.69 0 224.686 0 256H0Z" fill="#FFDA44"/>
<path d="M496.076 166.957C459.905 69.473 366.07 0 255.999 0C145.928 0 52.0929 69.473 15.9219 166.957H496.076Z" fill="#D80027"/>
<path d="M15.9219 345.043C52.0929 442.527 145.928 512 255.999 512C366.07 512 459.905 442.527 496.076 345.043H15.9219Z" fill="#D80027"/>
</svg>
