<svg width="512" height="512" viewBox="0 0 512 512" fill="none" xmlns="http://www.w3.org/2000/svg">
<path d="M255.999 511.998C397.383 511.998 511.998 397.383 511.998 255.999C511.998 114.615 397.383 0 255.999 0C114.615 0 0 114.615 0 255.999C0 397.383 114.615 511.998 255.999 511.998Z" fill="#FFDA44"/>
<path d="M200.349 44.5234H111.714C107.786 47.2084 103.942 50.0034 100.175 52.8964L77.9141 256L100.175 459.104C103.942 461.998 107.786 464.793 111.714 467.477H200.349V44.5234Z" fill="#FF9811"/>
<path d="M0 256C0 338.745 39.268 412.307 100.174 459.104V52.8945C39.268 99.6925 0 173.255 0 256Z" fill="#6DA544"/>
<path d="M411.824 156.062V162.467L412.062 162.504L411.824 156.062Z" fill="#FFDA44"/>
<path d="M491.593 322.783H443.36L422.955 345.044V389.566H378.433V367.305H400.694V322.783H300.52V350.609H278.259V297.578C271.429 291.464 267.129 282.583 267.129 272.696V128.001C267.129 109.56 282.079 94.6104 300.52 94.6104V300.523H345.042L360.318 287.792C357.65 281.437 356.172 274.458 356.172 267.132V233.741H322.781V166.959H389.563C389.563 155.829 406.259 144.698 406.259 144.698C406.259 144.698 422.955 155.828 422.955 166.959V183.655V233.742C435.338 233.889 455.012 233.568 476.267 233.742C470.683 223.982 467.476 212.401 467.476 200.351C467.476 180.71 475.956 163.052 489.454 150.832C469.998 107.717 438.952 70.9554 400.285 44.5234H233.738V467.479H400.286C447.305 435.338 483.054 387.927 500.398 332.389L491.593 322.783Z" fill="#A2001D"/>
</svg>
