<svg width="512" height="512" viewBox="0 0 512 512" fill="none" xmlns="http://www.w3.org/2000/svg">
<g clip-path="url(#clip0_720_81425)">
<path d="M25.402 144.695C9.128 178.351 0 216.108 0 255.999C0 295.89 9.128 333.647 25.402 367.303L256 389.564L486.598 367.303C502.872 333.647 512 295.89 512 255.999C512 216.108 502.872 178.351 486.598 144.695L256 122.434L25.402 144.695Z" fill="#F0F0F0"/>
<path d="M25.4102 367.305C66.8162 452.936 154.505 512.001 255.999 512.001C357.493 512.001 445.182 452.936 486.588 367.305H25.4102Z" fill="black"/>
<path d="M25.4102 144.696H486.588C445.182 59.065 357.493 0 255.999 0C154.505 0 66.8162 59.065 25.4102 144.696Z" fill="#D80027"/>
<path d="M74.9805 74.9805C-24.9935 174.954 -24.9935 337.045 74.9805 437.02C116.294 395.707 156.026 355.974 256 256L74.9805 74.9805Z" fill="#496E2D"/>
</g>
<defs>
<clipPath id="clip0_720_81425">
<rect width="512" height="512" fill="white"/>
</clipPath>
</defs>
</svg>
