<svg width="512" height="512" viewBox="0 0 512 512" fill="none" xmlns="http://www.w3.org/2000/svg">
<path d="M256 512C397.385 512 512 397.385 512 256C512 114.615 397.385 0 256 0C114.615 0 0 114.615 0 256C0 397.385 114.615 512 256 512Z" fill="#FFDA44"/>
<path d="M200.349 222.609H509.833C493.47 97.002 386.067 0 256 0C236.886 0 218.267 2.113 200.348 6.085V222.609H200.349Z" fill="#0052B4"/>
<path d="M133.566 222.61V31.1289C63.272 69.4829 12.951 139.834 2.16797 222.611H133.566V222.61Z" fill="#0052B4"/>
<path d="M133.565 289.391H2.16797C12.951 372.168 63.272 442.519 133.566 480.872L133.565 289.391Z" fill="#0052B4"/>
<path d="M200.348 289.392V505.915C218.267 509.887 236.886 512 256 512C386.067 512 493.47 414.998 509.833 289.391H200.348V289.392Z" fill="#0052B4"/>
</svg>
