<svg width="512" height="512" viewBox="0 0 512 512" fill="none" xmlns="http://www.w3.org/2000/svg">
<path d="M256 512C397.385 512 512 397.385 512 256C512 114.615 397.385 0 256 0C114.615 0 0 114.615 0 256C0 397.385 114.615 512 256 512Z" fill="#F0F0F0"/>
<path d="M255.999 0C145.928 0 52.0929 69.472 15.9219 166.957H496.077C459.905 69.472 366.07 0 255.999 0Z" fill="#D80027"/>
<path d="M255.999 512C366.07 512 459.905 442.528 496.076 345.043H15.9219C52.0929 442.528 145.928 512 255.999 512Z" fill="black"/>
<path d="M152.961 194.781L166.774 237.293H211.477L175.312 263.571L189.126 306.085L152.961 279.81L116.796 306.085L130.61 263.571L94.4453 237.293H139.148L152.961 194.781Z" fill="#6DA544"/>
<path d="M359.036 194.781L372.849 237.293H417.553L381.387 263.571L395.201 306.085L359.036 279.81L322.871 306.085L336.685 263.571L300.52 237.293H345.223L359.036 194.781Z" fill="#6DA544"/>
</svg>
