<svg width="512" height="512" viewBox="0 0 512 512" fill="none" xmlns="http://www.w3.org/2000/svg">
<path d="M256 512C397.385 512 512 397.385 512 256C512 114.615 397.385 0 256 0C114.615 0 0 114.615 0 256C0 397.385 114.615 512 256 512Z" fill="#F0F0F0"/>
<path d="M496.077 166.957H15.923C5.632 194.69 0 224.686 0 256C0 287.314 5.632 317.31 15.923 345.043H496.078C506.368 317.31 512 287.314 512 256C512 224.686 506.368 194.69 496.077 166.957Z" fill="#0052B4"/>
<path d="M255.999 0C178.408 0 108.884 34.524 61.9375 89.043H450.059C403.112 34.524 333.59 0 255.999 0Z" fill="#D80027"/>
<path d="M450.06 422.957H61.9375C108.884 477.476 178.408 512 255.999 512C333.59 512 403.113 477.476 450.06 422.957Z" fill="#D80027"/>
</svg>
