<svg width="512" height="512" viewBox="0 0 512 512" fill="none" xmlns="http://www.w3.org/2000/svg">
<path d="M256 512C397.385 512 512 397.385 512 256C512 114.615 397.385 0 256 0C114.615 0 0 114.615 0 256C0 397.385 114.615 512 256 512Z" fill="#D80027"/>
<path d="M256.001 378.436C323.62 378.436 378.436 323.62 378.436 256.001C378.436 188.382 323.62 133.566 256.001 133.566C188.382 133.566 133.566 188.382 133.566 256.001C133.566 323.62 188.382 378.436 256.001 378.436Z" fill="#F0F0F0"/>
<path d="M271.083 209.188L292.087 238.132L326.104 227.102L305.067 256.022L326.069 284.966L292.063 273.895L271.026 302.814L271.048 267.053L237.043 255.981L271.061 244.951L271.083 209.188Z" fill="#D80027"/>
<path d="M283.826 328.349C243.87 328.349 211.478 295.957 211.478 256.001C211.478 216.045 243.87 183.653 283.826 183.653C296.284 183.653 308.007 186.803 318.241 192.349C302.186 176.648 280.231 166.957 256 166.957C206.824 166.957 166.957 206.823 166.957 256C166.957 305.177 206.824 345.043 256 345.043C280.231 345.043 302.187 335.352 318.241 319.651C308.007 325.199 296.284 328.349 283.826 328.349Z" fill="#D80027"/>
</svg>
