<svg width="512" height="512" viewBox="0 0 512 512" fill="none" xmlns="http://www.w3.org/2000/svg">
<g clip-path="url(#clip0_720_81363)">
<path d="M12.088 178.088C4.246 202.656 -0.000999823 228.829 1.76555e-07 255.998C-0.000999823 283.168 4.247 309.343 12.089 333.911L256 345.043L499.911 333.913C507.752 309.344 512.001 283.168 512.001 256C512 228.83 507.753 202.656 499.911 178.087L256 166.957L12.088 178.088Z" fill="#F0F0F0"/>
<path d="M499.911 178.087L256 166.957L12.0879 178.087C9.76394 185.371 7.76294 192.798 6.08594 200.348H505.91C504.235 192.797 502.235 185.369 499.911 178.087Z" fill="#D80027"/>
<path d="M6.08984 311.65C7.76484 319.2 9.76584 326.626 12.0898 333.91L12.1138 333.911L256 345.041L499.911 333.911C502.235 326.627 504.236 319.2 505.912 311.65H6.08984Z" fill="#D80027"/>
<path d="M256 511.999C370.216 511.999 466.946 437.196 499.911 333.912H12.0898C45.0548 437.195 141.787 511.999 256 511.999Z" fill="#6DA544"/>
<path d="M256.001 0.00195314C141.787 0.00295314 45.0568 74.8059 12.0898 178.089L499.911 178.09C466.948 74.8049 370.217 0.000953135 256.001 0.00195314Z" fill="#338AF3"/>
<path d="M116.986 105.74C116.986 81.7633 133.837 61.7333 156.34 56.8193C152.882 56.0633 149.293 55.6543 145.607 55.6543C117.945 55.6543 95.5195 78.0783 95.5195 105.741C95.5195 133.404 117.943 155.828 145.607 155.828C149.293 155.828 152.881 155.418 156.34 154.663C133.838 149.747 116.986 129.717 116.986 105.74Z" fill="#F0F0F0"/>
<path d="M185.942 128.508L189.332 138.943H200.304L191.428 145.393L194.818 155.828L185.942 149.379L177.064 155.828L180.455 145.393L171.578 138.943H182.55L185.942 128.508Z" fill="#F0F0F0"/>
<path d="M220.964 128.508L224.355 138.943H235.327L226.45 145.393L229.841 155.828L220.964 149.379L212.087 155.828L215.478 145.393L206.602 138.943H217.573L220.964 128.508Z" fill="#F0F0F0"/>
<path d="M255.985 128.508L259.375 138.943H270.348L261.471 145.393L264.861 155.828L255.985 149.379L247.107 155.828L250.499 145.393L241.621 138.943H252.594L255.985 128.508Z" fill="#F0F0F0"/>
<path d="M291.005 128.508L294.396 138.943H305.367L296.491 145.393L299.882 155.828L291.005 149.379L282.127 155.828L285.519 145.393L276.641 138.943H287.613L291.005 128.508Z" fill="#F0F0F0"/>
<path d="M326.026 128.508L329.417 138.943H340.389L331.513 145.393L334.904 155.828L326.026 149.379L317.149 155.828L320.54 145.393L311.664 138.943H322.635L326.026 128.508Z" fill="#F0F0F0"/>
<path d="M220.964 92.0801L224.355 102.514H235.327L226.45 108.965L229.841 119.399L220.964 112.95L212.087 119.399L215.478 108.965L206.602 102.514H217.573L220.964 92.0801Z" fill="#F0F0F0"/>
<path d="M255.985 92.0801L259.375 102.514H270.348L261.471 108.965L264.861 119.399L255.985 112.95L247.107 119.399L250.499 108.965L241.621 102.514H252.594L255.985 92.0801Z" fill="#F0F0F0"/>
<path d="M291.005 92.0801L294.396 102.514H305.367L296.491 108.965L299.882 119.399L291.005 112.95L282.127 119.399L285.519 108.965L276.641 102.514H287.613L291.005 92.0801Z" fill="#F0F0F0"/>
<path d="M326.026 92.0801L329.417 102.514H340.389L331.513 108.965L334.904 119.399L326.026 112.95L317.149 119.399L320.54 108.965L311.664 102.514H322.635L326.026 92.0801Z" fill="#F0F0F0"/>
<path d="M255.985 55.6523L259.375 66.0883H270.348L261.471 72.5373L264.861 82.9733L255.985 76.5243L247.107 82.9733L250.499 72.5373L241.621 66.0883H252.594L255.985 55.6523Z" fill="#F0F0F0"/>
<path d="M291.005 55.6523L294.396 66.0883H305.367L296.491 72.5373L299.882 82.9733L291.005 76.5243L282.127 82.9733L285.519 72.5373L276.641 66.0883H287.613L291.005 55.6523Z" fill="#F0F0F0"/>
<path d="M326.026 55.6523L329.417 66.0883H340.389L331.513 72.5373L334.904 82.9733L326.026 76.5243L317.149 82.9733L320.54 72.5373L311.664 66.0883H322.635L326.026 55.6523Z" fill="#F0F0F0"/>
</g>
<defs>
<clipPath id="clip0_720_81363">
<rect width="512" height="512" fill="white"/>
</clipPath>
</defs>
</svg>
