<svg width="512" height="512" viewBox="0 0 512 512" fill="none" xmlns="http://www.w3.org/2000/svg">
<path d="M256 512C397.385 512 512 397.385 512 256C512 114.615 397.385 0 256 0C114.615 0 0 114.615 0 256C0 397.385 114.615 512 256 512Z" fill="#F0F0F0"/>
<path d="M487.497 146.599C474.491 119.125 456.74 94.3424 435.3 73.2974L256 55.6484L76.6999 73.2984C76.1279 73.8594 75.5699 74.4334 75.0039 75.0004L146.604 146.6L256 149.941L487.497 146.599Z" fill="#FFDA44"/>
<path d="M75 436.997C75.942 437.939 76.882 438.882 77.838 439.81L255.999 456.346L434.158 439.81C455.819 418.81 473.787 394.025 486.976 366.508L155.824 356.172C127.331 384.666 94.467 417.528 75 436.997Z" fill="#FFDA44"/>
<path d="M509.453 219.904L211.477 211.477L255.999 255.999C242.812 269.186 223.126 288.872 211.477 300.521L509.297 293.207C511.067 281.058 511.999 268.638 511.999 255.999C511.999 243.745 511.119 231.699 509.453 219.904Z" fill="black"/>
<path d="M255.999 0C186.171 0 122.885 27.97 76.6992 73.302H435.299C389.113 27.97 325.827 0 255.999 0Z" fill="#6DA544"/>
<path d="M219.904 219.904H509.453C505.8 194.025 498.284 169.391 487.496 146.602H146.602L219.904 219.904Z" fill="#D80027"/>
<path d="M145.488 366.505H486.976C497.89 343.733 505.526 319.096 509.297 293.203H218.79C190.403 321.59 166.345 345.648 145.488 366.505Z" fill="#D80027"/>
<path d="M255.999 512.001C325.254 512.001 388.074 484.489 434.158 439.812H77.8398C123.924 484.489 186.744 512.001 255.999 512.001Z" fill="#6DA544"/>
<path d="M91.4155 59.9375C85.7245 64.7195 80.2335 69.7325 74.9805 74.9835L256 256.004L74.9805 437.023C80.2325 442.276 85.7245 447.288 91.4155 452.07L287.481 256.004L91.4155 59.9375Z" fill="black"/>
<path d="M102.925 189.219L119.5 240.235H173.145L129.747 271.767L146.323 322.785L102.925 291.254L59.526 322.785L76.104 271.767L32.707 240.235H86.349L102.925 189.219Z" fill="#D80027"/>
<path d="M148.518 260.178L105.32 244.874C105.32 244.874 102.128 214.931 101.935 213.916C100.469 206.193 93.682 200.352 85.532 200.352C76.312 200.352 68.836 207.827 68.836 217.048C68.836 218.577 69.059 220.05 69.444 221.458L57.332 233.651H78.868C78.868 256.004 62.188 256.004 62.188 278.265L71.441 300.526H127.093L136.369 278.265H136.365C137.294 276.129 137.858 273.926 138.091 271.725C146.087 268.491 148.518 260.178 148.518 260.178Z" fill="#FFDA44"/>
</svg>
