<svg width="168" height="150" viewBox="0 0 168 150" fill="none" xmlns="http://www.w3.org/2000/svg">
<path d="M18.1125 149.75H149.888C163.363 149.75 171.763 135.137 165.025 123.5L99.1375 9.66245C92.4 -1.97505 75.6 -1.97505 68.8625 9.66245L2.97502 123.5C-3.76248 135.137 4.63752 149.75 18.1125 149.75ZM84 88.5C79.1875 88.5 75.25 84.5625 75.25 79.75V62.25C75.25 57.4375 79.1875 53.5 84 53.5C88.8125 53.5 92.75 57.4375 92.75 62.25V79.75C92.75 84.5625 88.8125 88.5 84 88.5ZM92.75 123.5H75.25V106H92.75V123.5Z" fill="white"/>
</svg>
