<svg width="18" height="18" viewBox="0 0 18 18" fill="none" xmlns="http://www.w3.org/2000/svg">
<path d="M0 0H18V18H0V0Z" fill="white"/>
<path d="M16.2825 8.46742L9.53249 1.71742C9.23999 1.42492 8.76749 1.42492 8.47499 1.71742L1.72499 8.46742C1.43249 8.75992 1.43249 9.23242 1.72499 9.52492L8.47499 16.2749C8.76749 16.5674 9.23999 16.5674 9.53249 16.2749L16.2825 9.52492C16.575 9.23992 16.575 8.76742 16.2825 8.46742ZM10.5 10.8749V8.99992H7.49999V10.4999C7.49999 10.9124 7.16249 11.2499 6.74999 11.2499C6.33749 11.2499 5.99999 10.9124 5.99999 10.4999V8.24992C5.99999 7.83742 6.33749 7.49992 6.74999 7.49992H10.5V5.62492L12.8625 7.98742C13.0125 8.13742 13.0125 8.36992 12.8625 8.51992L10.5 10.8749Z" fill="#0175B2" fill-opacity="0.8"/>
</svg>
