<svg width="16" height="16" viewBox="0 0 16 16" fill="none" xmlns="http://www.w3.org/2000/svg">
<path d="M2.98 14.0004H13.02C14.0467 14.0004 14.6867 12.8871 14.1733 12.0004L9.15333 3.32711C8.64 2.44044 7.36 2.44044 6.84667 3.32711L1.82667 12.0004C1.31333 12.8871 1.95333 14.0004 2.98 14.0004ZM8 9.33378C7.63333 9.33378 7.33333 9.03378 7.33333 8.66711V7.33378C7.33333 6.96711 7.63333 6.66711 8 6.66711C8.36667 6.66711 8.66667 6.96711 8.66667 7.33378V8.66711C8.66667 9.03378 8.36667 9.33378 8 9.33378ZM8.66667 12.0004H7.33333V10.6671H8.66667V12.0004Z" fill="#E1604D"/>
</svg>
