<svg width="16" height="16" viewBox="0 0 16 16" fill="none" xmlns="http://www.w3.org/2000/svg">
<path d="M2.66667 4.66699C2.66667 4.30033 2.96667 4.00033 3.33333 4.00033H14C14.3667 4.00033 14.6667 3.70033 14.6667 3.33366C14.6667 2.96699 14.3667 2.66699 14 2.66699H2.66667C1.93333 2.66699 1.33333 3.26699 1.33333 4.00033V11.3337H1C0.446667 11.3337 0 11.7803 0 12.3337C0 12.887 0.446667 13.3337 1 13.3337H8.33333C8.88667 13.3337 9.33333 12.887 9.33333 12.3337C9.33333 11.7803 8.88667 11.3337 8.33333 11.3337H2.66667V4.66699ZM15.3333 5.33366H11.3333C10.9667 5.33366 10.6667 5.63366 10.6667 6.00033V12.667C10.6667 13.0337 10.9667 13.3337 11.3333 13.3337H15.3333C15.7 13.3337 16 13.0337 16 12.667V6.00033C16 5.63366 15.7 5.33366 15.3333 5.33366ZM14.6667 11.3337H12V6.66699H14.6667V11.3337Z" fill="#0175B2" fill-opacity="0.8"/>
</svg>
