<svg width="16" height="16" viewBox="0 0 16 16" fill="none" xmlns="http://www.w3.org/2000/svg">
<path fill-rule="evenodd" clip-rule="evenodd" d="M5.4531 0.718775C4.69323 0.882655 4.03075 1.39808 3.68743 2.09251C3.57083 2.3283 3.489 2.5716 3.44715 2.80691C3.4082 3.02585 3.40769 3.57801 3.44631 3.73991C3.4967 3.95138 3.49448 3.95479 3.30505 3.95479C2.58266 3.95479 1.89875 4.39363 1.586 5.05783C1.09335 6.10415 1.61384 7.36033 2.6949 7.73398L2.84221 7.7849L2.85627 8.16904C2.86791 8.48675 2.88023 8.57035 2.92756 8.65246C3.03667 8.84167 3.29689 8.92109 3.48261 8.82181C3.5255 8.79889 3.80554 8.57112 4.10494 8.3157L4.64931 7.85125L5.53154 7.85076C6.01677 7.85048 6.5322 7.83756 6.67694 7.82203C6.976 7.78994 7.25981 7.69843 7.49089 7.55962C7.69416 7.43751 8.01842 7.10717 8.13828 6.90008C8.25189 6.7038 8.3634 6.38567 8.38412 6.19878C8.42217 5.85566 8.41208 5.87434 8.55938 5.8746C8.69094 5.87483 8.6964 5.87884 9.52446 6.5837C9.98247 6.97357 10.3827 7.30781 10.4139 7.32643C10.5885 7.43072 10.847 7.37614 10.963 7.21051C11.0223 7.12576 11.0267 7.08491 11.0399 6.49133L11.054 5.86196L11.2771 5.79888C11.9549 5.60717 12.542 5.13619 12.8657 4.52456C13.1061 4.07025 13.1942 3.66619 13.1693 3.13109C13.1392 2.48075 12.9216 1.96369 12.4749 1.48082C12.1555 1.13561 11.7261 0.875464 11.2509 0.739403L11.0259 0.674968L8.36829 0.669095C5.83343 0.663479 5.69881 0.665771 5.4531 0.718775ZM10.9893 1.57938C11.3808 1.6614 11.8203 1.97243 12.0463 2.3273C12.2309 2.61721 12.3143 2.90767 12.3163 3.26718C12.319 3.75704 12.16 4.15308 11.8243 4.49267C11.5175 4.80307 11.1693 4.96337 10.698 5.01116C10.2798 5.05356 10.1963 5.16341 10.1963 5.67098C10.1963 5.84589 10.1884 5.98897 10.1787 5.98897C10.169 5.98897 9.93269 5.79306 9.65355 5.5536C9.37437 5.31414 9.10119 5.09496 9.04646 5.06654C8.95414 5.01858 8.83425 5.01483 7.3851 5.01437C5.6264 5.01379 5.58978 5.01041 5.19668 4.81304C4.5216 4.47402 4.14583 3.67479 4.30399 2.91435C4.4331 2.29349 4.95404 1.73953 5.54605 1.59353C5.68157 1.5601 6.16438 1.5525 8.27551 1.55053C10.0256 1.54889 10.8876 1.55806 10.9893 1.57938ZM4.06706 5.0193C4.36066 5.36322 4.82639 5.65728 5.2923 5.79292C5.50021 5.85343 5.57684 5.85804 6.5367 5.86755L7.55954 5.87766L7.54076 6.02645C7.49627 6.3785 7.2613 6.70136 6.93404 6.86009L6.75124 6.94876L5.5701 6.96309C4.22111 6.97945 4.36456 6.95111 3.98117 7.27695L3.74213 7.48011L3.72132 7.35775C3.68068 7.11883 3.54063 7.00028 3.25069 6.95936C2.92677 6.91361 2.753 6.83413 2.57524 6.65042C2.39407 6.46317 2.3065 6.2955 2.27166 6.06919C2.20588 5.64181 2.39233 5.22681 2.755 4.99337C2.9403 4.8741 3.06901 4.8488 3.5059 4.84579L3.91649 4.84295L4.06706 5.0193ZM11.279 8.36693C10.3833 8.49451 9.68032 9.2663 9.61575 10.1929C9.58307 10.6619 9.74703 11.1922 10.0365 11.5539L10.168 11.7181L10.0322 11.7883C9.54789 12.0383 9.03347 12.4994 8.7399 12.9465C8.48953 13.3278 8.44214 13.4713 8.4402 13.8535C8.43834 14.2174 8.47845 14.3683 8.64791 14.6354C8.86268 14.9739 9.15178 15.1859 9.53425 15.2854C9.78269 15.3501 13.299 15.3496 13.5683 15.2849C14.0758 15.1631 14.4744 14.7648 14.6266 14.2278C14.6961 13.9826 14.6727 13.5724 14.5756 13.3317C14.3546 12.7838 13.6985 12.113 13.0704 11.7927L12.9214 11.7167L13.0376 11.5823C13.3997 11.1631 13.5661 10.4865 13.4477 9.91408C13.3944 9.65597 13.2267 9.30134 13.0517 9.07629C12.6505 8.56064 11.9335 8.2737 11.279 8.36693ZM11.9983 9.33136C12.551 9.59541 12.7761 10.2544 12.5051 10.8151C12.1539 11.5419 11.1615 11.6244 10.6852 10.9663C10.245 10.3583 10.5424 9.47705 11.2586 9.26719C11.4775 9.20301 11.7855 9.22974 11.9983 9.33136ZM2.8057 9.74281C2.25639 9.88942 1.84715 10.2876 1.65799 10.8596C1.59362 11.0542 1.58637 11.5228 1.64449 11.7334C1.6889 11.8943 1.7873 12.1063 1.89349 12.2698C1.93258 12.3299 1.95955 12.3838 1.95342 12.3895C1.94729 12.3952 1.87268 12.4427 1.78761 12.495C1.2748 12.8106 0.84767 13.3151 0.714172 13.7628C0.538828 14.351 0.863165 15.0066 1.45014 15.2504C1.6029 15.3139 1.62366 15.3148 3.13569 15.323C4.59897 15.331 4.67473 15.3289 4.85117 15.2741C5.39323 15.1059 5.72609 14.6525 5.72384 14.0854C5.72221 13.671 5.57417 13.3716 5.16232 12.9495C4.99541 12.7785 4.81073 12.6233 4.67017 12.5359C4.54643 12.4589 4.43988 12.3919 4.43335 12.3869C4.42686 12.3819 4.4473 12.3488 4.47877 12.3134C4.6639 12.1053 4.79672 11.6952 4.79672 11.3317C4.79672 10.8663 4.64694 10.5008 4.32106 10.1708C3.90352 9.748 3.3607 9.59469 2.8057 9.74281ZM3.51872 10.6411C3.97954 10.8597 4.08705 11.4922 3.7259 11.8601C3.35738 12.2355 2.72342 12.1113 2.51733 11.6233C2.46694 11.5039 2.45828 11.4403 2.46908 11.2687C2.48027 11.0914 2.49641 11.0384 2.5751 10.9209C2.66644 10.7845 2.87247 10.6188 2.98282 10.5929C3.14514 10.5548 3.38165 10.576 3.51872 10.6411ZM12.0242 12.3532C12.3501 12.4133 12.6961 12.5633 13.0108 12.7808C13.3535 13.0177 13.7695 13.5373 13.8094 13.7784C13.8404 13.9649 13.7534 14.1895 13.5997 14.3196C13.4569 14.4406 13.4523 14.4409 11.5416 14.4409C9.80237 14.4409 9.711 14.4383 9.61159 14.3863C9.38889 14.27 9.28537 14.0816 9.30159 13.8221C9.3111 13.6699 9.33005 13.6162 9.42356 13.4756C9.65926 13.1213 10.0414 12.7722 10.387 12.5954C10.9088 12.3284 11.4532 12.2479 12.0242 12.3532ZM3.78248 13.0632C4.00254 13.1314 4.26656 13.2889 4.47613 13.4772C4.63963 13.624 4.83849 13.8994 4.86824 14.0201C4.89439 14.1262 4.83461 14.2841 4.73646 14.3683L4.65181 14.4409H3.21832C1.63876 14.4409 1.66542 14.4437 1.57405 14.2637C1.47666 14.0719 1.55799 13.864 1.85024 13.5577C2.35296 13.0307 3.07849 12.8451 3.78248 13.0632Z" fill="white"/>
</svg>
