<svg width="18" height="18" viewBox="0 0 18 18" fill="none" xmlns="http://www.w3.org/2000/svg">
<path d="M0 0H18V18H0V0Z" fill="white"/>
<path d="M14.4225 11.4453L12.5175 11.2278C12.06 11.1753 11.61 11.3328 11.2875 11.6553L9.90753 13.0353C7.78503 11.9553 6.04503 10.2228 4.96503 8.09281L6.35253 6.70531C6.67503 6.38281 6.83253 5.93281 6.78003 5.47531L6.56253 3.58531C6.47253 2.82781 5.83503 2.25781 5.07003 2.25781H3.77253C2.92503 2.25781 2.22003 2.96281 2.27253 3.81031C2.67003 10.2153 7.79253 15.3303 14.19 15.7278C15.0375 15.7803 15.7425 15.0753 15.7425 14.2278V12.9303C15.75 12.1728 15.18 11.5353 14.4225 11.4453Z" fill="#0175B2" fill-opacity="0.8"/>
</svg>
