<svg width="14" height="14" viewBox="0 0 14 14" fill="none" xmlns="http://www.w3.org/2000/svg">
<path d="M6.99992 0.333984C3.31992 0.333984 0.333252 3.32065 0.333252 7.00065C0.333252 10.6807 3.31992 13.6673 6.99992 13.6673C10.6799 13.6673 13.6666 10.6807 13.6666 7.00065C13.6666 3.32065 10.6799 0.333984 6.99992 0.333984ZM6.99992 7.66732C6.63325 7.66732 6.33325 7.36732 6.33325 7.00065V4.33398C6.33325 3.96732 6.63325 3.66732 6.99992 3.66732C7.36659 3.66732 7.66659 3.96732 7.66659 4.33398V7.00065C7.66659 7.36732 7.36659 7.66732 6.99992 7.66732ZM7.66659 10.334H6.33325V9.00065H7.66659V10.334Z" fill="#FFB800"/>
</svg>
