<svg width="62" height="62" viewBox="0 0 62 62" fill="none" xmlns="http://www.w3.org/2000/svg">
<path d="M49.0832 24.0254V12.917C49.0832 11.4962 47.9207 10.3337 46.4999 10.3337H43.9166C42.4957 10.3337 41.3332 11.4962 41.3332 12.917V17.0504L32.7307 9.30035C31.7491 8.42202 30.2507 8.42202 29.2691 9.30035L7.67239 28.7529C6.79405 29.5279 7.33655 31.0004 8.52489 31.0004H12.9166V49.0837C12.9166 50.5045 14.0791 51.667 15.4999 51.667H23.2499C24.6707 51.667 25.8332 50.5045 25.8332 49.0837V36.167H36.1666V49.0837C36.1666 50.5045 37.3291 51.667 38.7499 51.667H46.4999C47.9207 51.667 49.0832 50.5045 49.0832 49.0837V31.0004H53.4749C54.6632 31.0004 55.2316 29.5279 54.3274 28.7529L49.0832 24.0254ZM25.8332 25.8337C25.8332 22.992 28.1582 20.667 30.9999 20.667C33.8416 20.667 36.1666 22.992 36.1666 25.8337H25.8332Z" fill="url(#paint0_linear_869_5672)"/>
<defs>
<linearGradient id="paint0_linear_869_5672" x1="54.7725" y1="51.7715" x2="11.9598" y2="4.47285" gradientUnits="userSpaceOnUse">
<stop offset="0.275366" stop-color="#0175B2"/>
<stop offset="0.956923" stop-color="#0175B2" stop-opacity="0.3"/>
</linearGradient>
</defs>
</svg>
