<svg width="62" height="62" viewBox="0 0 62 62" fill="none" xmlns="http://www.w3.org/2000/svg">
<path d="M59.4166 20.6663V46.4997C59.4166 49.3413 57.0916 51.6663 54.2499 51.6663H12.9166C11.4958 51.6663 10.3333 50.5038 10.3333 49.083C10.3333 47.6622 11.4958 46.4997 12.9166 46.4997H54.2499V20.6663C54.2499 19.2455 55.4124 18.083 56.8333 18.083C58.2541 18.083 59.4166 19.2455 59.4166 20.6663ZM10.3333 41.333C6.04492 41.333 2.58325 37.8713 2.58325 33.583V18.083C2.58325 13.7947 6.04492 10.333 10.3333 10.333H41.3333C45.6216 10.333 49.0833 13.7947 49.0833 18.083V36.1663C49.0833 39.008 46.7583 41.333 43.9166 41.333H10.3333ZM18.0833 25.833C18.0833 30.1213 21.5449 33.583 25.8333 33.583C30.1216 33.583 33.5833 30.1213 33.5833 25.833C33.5833 21.5447 30.1216 18.083 25.8333 18.083C21.5449 18.083 18.0833 21.5447 18.0833 25.833Z" fill="url(#paint0_linear_869_5679)"/>
<defs>
<linearGradient id="paint0_linear_869_5679" x1="59.4166" y1="51.7668" x2="20.0941" y2="-2.30172" gradientUnits="userSpaceOnUse">
<stop offset="0.275366" stop-color="#0175B2"/>
<stop offset="0.956923" stop-color="#0175B2" stop-opacity="0.3"/>
</linearGradient>
</defs>
</svg>
