<svg width="62" height="62" viewBox="0 0 62 62" fill="none" xmlns="http://www.w3.org/2000/svg">
<path d="M56.4717 32.2399L49.4709 20.6666C49.0201 19.8857 48.3728 19.2364 47.5933 18.7832C46.8138 18.33 45.9292 18.0887 45.0276 18.0833H38.7501V12.9166C38.7501 12.2314 38.4779 11.5744 37.9934 11.0899C37.509 10.6054 36.8519 10.3333 36.1667 10.3333H10.3334C8.96313 10.3333 7.64897 10.8776 6.68003 11.8465C5.71109 12.8155 5.16675 14.1296 5.16675 15.4999V41.3333C5.16768 42.2393 5.40685 43.1292 5.86027 43.9136C6.3137 44.698 6.96543 45.3494 7.75008 45.8024C7.65759 48.2004 8.52148 50.5369 10.1517 52.298C11.782 54.059 14.045 55.1003 16.443 55.1928C18.841 55.2853 21.1775 54.4214 22.9386 52.7912C24.6996 51.161 25.7409 48.8979 25.8334 46.4999H33.8417C34.1274 48.6614 35.1888 50.6454 36.8284 52.0825C38.468 53.5197 40.574 54.312 42.7542 54.312C44.9345 54.312 47.0405 53.5197 48.6801 52.0825C50.3196 50.6454 51.3811 48.6614 51.6667 46.4999C53.037 46.4999 54.3512 45.9556 55.3201 44.9866C56.2891 44.0177 56.8334 42.7035 56.8334 41.3333V33.5833C56.8294 33.112 56.7049 32.6495 56.4717 32.2399ZM16.7917 49.0833C16.0253 49.0833 15.2762 48.856 14.6389 48.4302C14.0017 48.0044 13.505 47.3992 13.2117 46.6911C12.9184 45.9831 12.8417 45.204 12.9912 44.4523C13.1407 43.7006 13.5098 43.0101 14.0517 42.4682C14.5936 41.9263 15.2841 41.5572 16.0358 41.4077C16.7874 41.2582 17.5666 41.3349 18.2746 41.6282C18.9827 41.9215 19.5879 42.4182 20.0137 43.0554C20.4395 43.6927 20.6667 44.4418 20.6667 45.2083C20.6667 46.236 20.2585 47.2216 19.5318 47.9483C18.8051 48.675 17.8195 49.0833 16.7917 49.0833ZM31.0001 28.4166H25.8334V33.5833H20.6667V28.4166H15.5001V23.2499H20.6667V18.0833H25.8334V23.2499H31.0001V28.4166ZM42.6251 49.0833C41.8587 49.0833 41.1095 48.856 40.4722 48.4302C39.835 48.0044 39.3383 47.3992 39.045 46.6911C38.7518 45.9831 38.675 45.204 38.8245 44.4523C38.9741 43.7006 39.3431 43.0101 39.885 42.4682C40.427 41.9263 41.1174 41.5572 41.8691 41.4077C42.6208 41.2582 43.3999 41.3349 44.108 41.6282C44.816 41.9215 45.4212 42.4182 45.847 43.0554C46.2728 43.6927 46.5001 44.4418 46.5001 45.2083C46.5001 46.236 46.0918 47.2216 45.3651 47.9483C44.6384 48.675 43.6528 49.0833 42.6251 49.0833ZM38.7501 30.9999V23.2499H45.0276L49.6776 30.9999H38.7501Z" fill="url(#paint0_linear_869_11813)"/>
<defs>
<linearGradient id="paint0_linear_869_11813" x1="56.8334" y1="55.3086" x2="12.4102" y2="4.15217" gradientUnits="userSpaceOnUse">
<stop offset="0.275366" stop-color="#0175B2"/>
<stop offset="0.956923" stop-color="#0175B2" stop-opacity="0.3"/>
</linearGradient>
</defs>
</svg>
