<svg width="62" height="62" viewBox="0 0 62 62" fill="none" xmlns="http://www.w3.org/2000/svg">
<path d="M29.7083 9.04167C29.7083 6.2 32.0333 3.875 34.875 3.875C37.7167 3.875 40.0417 6.2 40.0417 9.04167C40.0417 11.8833 37.7167 14.2083 34.875 14.2083C32.0333 14.2083 29.7083 11.8833 29.7083 9.04167ZM47.8692 28.4167C43.8133 28.4425 40.2742 26.0917 38.5692 22.7075L36.5283 18.3933C36.0892 17.4892 35.3917 16.7142 34.4617 16.1975C32.86 15.2675 30.9742 15.3192 29.45 16.12V16.0942L18.1092 22.5525C16.5075 23.4567 15.5 25.1617 15.5 27.0217V33.5833C15.5 35.0042 16.6625 36.1667 18.0833 36.1667C19.5042 36.1667 20.6667 35.0042 20.6667 33.5833V27.0217L24.5417 24.8258C23.715 27.6675 23.25 30.6125 23.25 33.5833V47.3525L18.0833 54.25C17.2308 55.3867 17.4633 57.0142 18.6 57.8667C19.7367 58.7192 21.3642 58.4867 22.2167 57.35L27.4867 50.3233C28.0808 49.5225 28.4425 48.5408 28.52 47.5333L28.985 39.9383L33.5833 46.5V56.8333C33.5833 58.2542 34.7458 59.4167 36.1667 59.4167C37.5875 59.4167 38.75 58.2542 38.75 56.8333V44.2525C38.75 43.1933 38.4142 42.16 37.82 41.2817L33.6867 35.3658C33.6867 35.3658 33.6867 35.3658 33.6867 35.34C33.4025 32.3433 33.8675 29.3467 34.875 26.5567C36.9675 29.7342 40.1708 32.085 43.9425 33.0667V33.1442V33.5833C43.9425 34.3067 44.5108 34.875 45.2342 34.875C45.9575 34.875 46.5 34.3067 46.5 33.5833V33.17V32.2917C46.5 31.5683 47.0683 31 47.7917 31C48.515 31 49.0833 31.5683 49.0833 32.2917V58.125C49.0833 58.8483 49.6517 59.4167 50.375 59.4167C51.0983 59.4167 51.6667 58.8483 51.6667 58.125V32.2917C51.6667 30.1733 49.9617 28.3908 47.8692 28.4167Z" fill="url(#paint0_linear_869_11660)"/>
<defs>
<linearGradient id="paint0_linear_869_11660" x1="51.6667" y1="59.5516" x2="0.871249" y2="26.4755" gradientUnits="userSpaceOnUse">
<stop offset="0.275366" stop-color="#0175B2"/>
<stop offset="0.956923" stop-color="#0175B2" stop-opacity="0.3"/>
</linearGradient>
</defs>
</svg>
