<svg width="62" height="62" viewBox="0 0 62 62" fill="none" xmlns="http://www.w3.org/2000/svg">
<path d="M31.0001 5.16663C27.6076 5.16663 24.2483 5.83482 21.1141 7.13307C17.9798 8.43132 15.132 10.3342 12.7332 12.733C7.88847 17.5777 5.16675 24.1485 5.16675 31C5.16675 37.8514 7.88847 44.4222 12.7332 49.2669C15.132 51.6657 17.9798 53.5686 21.1141 54.8668C24.2483 56.1651 27.6076 56.8333 31.0001 56.8333C37.8515 56.8333 44.4223 54.1116 49.267 49.2669C54.1117 44.4222 56.8334 37.8514 56.8334 31C56.8334 27.6075 56.1652 24.2482 54.867 21.114C53.5687 17.9797 51.6659 15.1319 49.267 12.733C46.8682 10.3342 44.0203 8.43132 40.8861 7.13307C37.7518 5.83482 34.3926 5.16663 31.0001 5.16663ZM18.0834 24.5416V20.6666L25.8334 24.5416C25.8334 26.6083 24.0251 28.4166 21.9584 28.4166C19.8917 28.4166 18.0834 26.6083 18.0834 24.5416ZM38.1559 44.5108C36.9934 42.625 34.2292 41.3333 31.0001 41.3333C27.7709 41.3333 25.0067 42.625 23.8442 44.5108L20.1759 40.8425C22.5009 38.0266 26.4792 36.1666 31.0001 36.1666C35.5209 36.1666 39.4992 38.0266 41.8242 40.8425L38.1559 44.5108ZM43.9167 24.5416C43.9167 26.6083 42.1084 28.4166 40.0417 28.4166C37.9751 28.4166 36.1667 26.6083 36.1667 24.5416L43.9167 20.6666V24.5416Z" fill="url(#paint0_linear_869_11816)"/>
<defs>
<linearGradient id="paint0_linear_869_11816" x1="56.8334" y1="56.9588" x2="5.16675" y2="5.29214" gradientUnits="userSpaceOnUse">
<stop offset="0.275366" stop-color="#0175B2"/>
<stop offset="0.956923" stop-color="#0175B2" stop-opacity="0.3"/>
</linearGradient>
</defs>
</svg>
