<svg width="62" height="62" viewBox="0 0 62 62" fill="none" xmlns="http://www.w3.org/2000/svg">
<path d="M28.4166 15.5H36.1666L44.6657 6.97496C44.9059 6.73283 45.1916 6.54064 45.5064 6.40949C45.8212 6.27834 46.1589 6.21082 46.4999 6.21082C46.8409 6.21082 47.1786 6.27834 47.4934 6.40949C47.8082 6.54064 48.0939 6.73283 48.3341 6.97496L54.9991 13.6658C55.4802 14.1498 55.7503 14.8046 55.7503 15.487C55.7503 16.1695 55.4802 16.8243 54.9991 17.3083L49.0832 23.25H28.4166V28.4166C28.4166 29.1018 28.1444 29.7589 27.6599 30.2433C27.1754 30.7278 26.5184 31 25.8332 31C25.1481 31 24.491 30.7278 24.0065 30.2433C23.5221 29.7589 23.2499 29.1018 23.2499 28.4166V20.6666C23.2499 19.2963 23.7942 17.9822 24.7632 17.0132C25.7321 16.0443 27.0463 15.5 28.4166 15.5ZM12.9166 28.4166V38.75L7.00073 44.6658C6.51958 45.1498 6.24951 45.8046 6.24951 46.487C6.24951 47.1695 6.51958 47.8243 7.00073 48.3083L13.6657 54.9991C13.9059 55.2413 14.1916 55.4334 14.5064 55.5646C14.8212 55.6958 15.1589 55.7633 15.4999 55.7633C15.8409 55.7633 16.1786 55.6958 16.4934 55.5646C16.8082 55.4334 17.0939 55.2413 17.3341 54.9991L28.4166 43.9166H38.7499C39.435 43.9166 40.0921 43.6445 40.5766 43.16C41.0611 42.6755 41.3332 42.0184 41.3332 41.3333V38.75H43.9166C44.6017 38.75 45.2588 38.4778 45.7433 37.9933C46.2277 37.5089 46.4999 36.8518 46.4999 36.1666V33.5833H49.0832C49.7684 33.5833 50.4255 33.3111 50.9099 32.8267C51.3944 32.3422 51.6666 31.6851 51.6666 31V28.4166H33.5832V31C33.5832 32.3702 33.0389 33.6844 32.0699 34.6533C31.101 35.6223 29.7868 36.1666 28.4166 36.1666H23.2499C21.8796 36.1666 20.5654 35.6223 19.5965 34.6533C18.6276 33.6844 18.0832 32.3702 18.0832 31V23.25L12.9166 28.4166Z" fill="url(#paint0_linear_869_2080)"/>
<defs>
<linearGradient id="paint0_linear_869_2080" x1="55.7503" y1="55.8837" x2="6.19785" y2="6.38291" gradientUnits="userSpaceOnUse">
<stop offset="0.275366" stop-color="#0175B2"/>
<stop offset="0.956923" stop-color="#0175B2" stop-opacity="0.3"/>
</linearGradient>
</defs>
</svg>
