<svg width="62" height="62" viewBox="0 0 62 62" fill="none" xmlns="http://www.w3.org/2000/svg">
<path d="M49.0833 7.75H12.9167C10.075 7.75 7.77583 10.075 7.77583 12.9167L7.75 49.0833C7.75 51.925 10.075 54.25 12.9167 54.25H49.0833C51.925 54.25 54.25 51.925 54.25 49.0833V12.9167C54.25 10.075 51.925 7.75 49.0833 7.75ZM43.9167 36.1667H36.1667V43.9167C36.1667 45.3375 35.0042 46.5 33.5833 46.5H28.4167C26.9958 46.5 25.8333 45.3375 25.8333 43.9167V36.1667H18.0833C16.6625 36.1667 15.5 35.0042 15.5 33.5833V28.4167C15.5 26.9958 16.6625 25.8333 18.0833 25.8333H25.8333V18.0833C25.8333 16.6625 26.9958 15.5 28.4167 15.5H33.5833C35.0042 15.5 36.1667 16.6625 36.1667 18.0833V25.8333H43.9167C45.3375 25.8333 46.5 26.9958 46.5 28.4167V33.5833C46.5 35.0042 45.3375 36.1667 43.9167 36.1667Z" fill="url(#paint0_linear_869_2103)"/>
<defs>
<linearGradient id="paint0_linear_869_2103" x1="54.25" y1="54.363" x2="7.75" y2="7.86296" gradientUnits="userSpaceOnUse">
<stop offset="0.275366" stop-color="#0175B2"/>
<stop offset="0.956923" stop-color="#0175B2" stop-opacity="0.3"/>
</linearGradient>
</defs>
</svg>
