<svg width="62" height="62" viewBox="0 0 62 62" fill="none" xmlns="http://www.w3.org/2000/svg">
<path d="M28.4167 5.16675C33.4349 5.16708 38.2817 6.99286 42.053 10.3035C45.8243 13.6142 48.2625 18.1837 48.9128 23.1597L54.7253 32.3021C55.1077 32.904 55.0302 33.8004 54.1441 34.1827L49.0833 36.3476V43.9167C49.0833 45.287 48.539 46.6012 47.57 47.5701C46.6011 48.5391 45.2869 49.0834 43.9167 49.0834H38.7526L38.75 56.8334H15.5V47.2906C15.5 44.2422 14.3737 41.3567 12.2863 38.7527C9.85219 35.7134 8.32619 32.0484 7.88412 28.1797C7.44205 24.3111 8.1019 20.3962 9.78766 16.8862C11.4734 13.3762 14.1165 10.4138 17.4124 8.34041C20.7082 6.26698 24.5228 5.16684 28.4167 5.16675ZM27.0475 20.0545C26.6305 19.6226 26.1318 19.2781 25.5803 19.0411C25.0287 18.804 24.4355 18.6792 23.8353 18.6739C23.235 18.6685 22.6397 18.7828 22.084 19.01C21.5284 19.2372 21.0236 19.5728 20.599 19.9972C20.1745 20.4216 19.8387 20.9262 19.6112 21.4818C19.3838 22.0373 19.2693 22.6326 19.2744 23.2329C19.2795 23.8332 19.4041 24.4264 19.6409 24.978C19.8777 25.5296 20.222 26.0285 20.6537 26.4457L28.4167 34.2112L36.1796 26.4457C36.6113 26.0285 36.9556 25.5296 37.1924 24.978C37.4292 24.4264 37.5538 23.8332 37.5589 23.2329C37.564 22.6326 37.4495 22.0373 37.2221 21.4818C36.9947 20.9262 36.6589 20.4216 36.2343 19.9972C35.8097 19.5728 35.3049 19.2372 34.7493 19.01C34.1936 18.7828 33.5983 18.6685 32.998 18.6739C32.3978 18.6792 31.8046 18.804 31.2531 19.0411C30.7016 19.2781 30.2028 19.6226 29.7858 20.0545L28.4167 21.4237L27.0475 20.0545Z" fill="url(#paint0_linear_869_9000)"/>
<defs>
<linearGradient id="paint0_linear_869_9000" x1="54.9432" y1="56.9589" x2="3.48777" y2="9.95908" gradientUnits="userSpaceOnUse">
<stop offset="0.275366" stop-color="#0175B2"/>
<stop offset="0.956923" stop-color="#0175B2" stop-opacity="0.3"/>
</linearGradient>
</defs>
</svg>
