<svg width="62" height="62" viewBox="0 0 62 62" fill="none" xmlns="http://www.w3.org/2000/svg">
<path d="M53.5325 14.2011L47.72 8.38858C46.8686 7.53714 45.4895 7.53714 44.6376 8.38858C43.7857 9.24002 43.7862 10.6191 44.6376 11.471L46.0853 12.836L42.625 16.2927L37.6272 11.2948C36.7758 10.4434 35.3967 10.4434 34.5448 11.2948C33.7758 12.0638 33.7389 13.2447 34.3589 14.0975L47.9001 27.6388C48.2831 27.9213 48.7191 28.0938 49.1641 28.0938C49.4504 28.0941 49.7339 28.0379 49.9984 27.9283C50.2629 27.8187 50.5031 27.658 50.7053 27.4553C51.5567 26.6038 51.5567 25.2247 50.7053 24.3728L45.7038 19.3751L49.1641 15.9185L50.5291 17.2835C50.9532 17.7131 51.5163 17.922 52.0703 17.922C52.6243 17.922 53.1856 17.7091 53.6115 17.2834C54.4589 16.4316 54.4589 15.053 53.5325 14.2011ZM26.7133 21.7455L32.0318 27.0639C32.5994 27.6315 32.5994 28.5515 32.0318 29.1183C31.7448 29.4016 31.3724 29.5469 31.0001 29.5469C30.6277 29.5469 30.2553 29.4016 29.9738 29.1201L24.6517 23.8071L20.9009 27.558L26.2193 32.8764C26.7869 33.444 26.7869 34.364 26.2193 34.9308C25.9323 35.2141 25.5599 35.3594 25.1876 35.3594C24.8152 35.3594 24.4428 35.2141 24.1613 34.9326L18.8392 29.6196L15.2655 33.1888C14.1747 34.2787 13.5626 35.759 13.5626 37.303V45.3569L8.38858 50.5309C7.53714 51.3824 7.53714 52.7615 8.38858 53.6134C8.81453 54.0411 9.37216 54.25 9.9298 54.25C10.4874 54.25 11.0451 54.0371 11.471 53.6114L16.645 48.4375H24.6999C26.2411 48.4375 27.7196 47.825 28.8104 46.7346L45.8482 29.6968L32.307 16.1555L26.7133 21.7455Z" fill="url(#paint0_linear_869_2110)"/>
<defs>
<linearGradient id="paint0_linear_869_2110" x1="54.2375" y1="54.363" x2="7.7375" y2="7.87546" gradientUnits="userSpaceOnUse">
<stop offset="0.275366" stop-color="#0175B2"/>
<stop offset="0.956923" stop-color="#0175B2" stop-opacity="0.3"/>
</linearGradient>
</defs>
</svg>
