<svg width="62" height="62" viewBox="0 0 62 62" fill="none" xmlns="http://www.w3.org/2000/svg">
<path d="M8.5225 45.4562C9.6385 48.8972 13.0304 51.093 16.6497 51.093H16.7917C17.1238 52.7136 18.0051 54.1699 19.2868 55.2157C20.5685 56.2616 22.1719 56.8329 23.8262 56.8332C25.0067 56.8332 26.1098 56.5361 27.0863 56.0246C27.4939 55.8012 27.833 55.4711 28.0673 55.0697C28.3017 54.6684 28.4225 54.2108 28.4167 53.7461V7.8196C28.422 7.22776 28.2232 6.65218 27.8539 6.18969C27.4845 5.7272 26.9672 5.40602 26.3888 5.28019C25.0928 5.02846 23.7499 5.21096 22.5681 5.79944C20.6461 6.7191 19.5197 8.77285 19.5197 10.9093V11.0514C18.0814 10.7578 16.5876 10.9124 15.2398 11.4943C13.8921 12.0762 12.7552 13.0575 11.9825 14.3057C11.2099 15.554 10.8386 17.0092 10.9188 18.475C10.999 19.9408 11.5269 21.3468 12.4311 22.5033C10.406 22.8206 8.56093 23.8512 7.22887 25.4092C5.89681 26.9672 5.16546 28.95 5.16675 30.9999C5.16675 34.043 6.74517 36.7116 9.127 38.2642C8.01617 40.2559 7.65192 42.7747 8.5225 45.4562ZM49.5691 22.5033C50.4733 21.3468 51.0011 19.9408 51.0813 18.475C51.1615 17.0092 50.7903 15.554 50.0176 14.3057C49.245 13.0575 48.1081 12.0762 46.7603 11.4943C45.4126 10.9124 43.9188 10.7578 42.4804 11.0514V10.9093C42.4804 8.77544 41.3515 6.7191 39.4295 5.79944C38.2486 5.21078 36.9065 5.02826 35.6113 5.28019C35.0332 5.40646 34.5161 5.72776 34.1469 6.19015C33.7776 6.65254 33.5787 7.22788 33.5834 7.8196V53.7435C33.5834 54.6864 34.0794 55.5829 34.9164 56.022C35.8929 56.5361 36.9934 56.8332 38.174 56.8332C39.8286 56.8328 41.4323 56.2611 42.7141 55.2147C43.9958 54.1684 44.8769 52.7115 45.2084 51.0904H45.3531C48.9697 51.0904 52.3642 48.8946 53.4802 45.4536C54.3508 42.7721 53.9866 40.2534 52.8757 38.2616C54.0891 37.4777 55.0869 36.4025 55.7781 35.1341C56.4694 33.8657 56.8322 32.4444 56.8334 30.9999C56.8347 28.95 56.1033 26.9672 54.7713 25.4092C53.4392 23.8512 51.5942 22.8206 49.5691 22.5033Z" fill="url(#paint0_linear_599_67729)"/>
<defs>
<linearGradient id="paint0_linear_599_67729" x1="56.8334" y1="56.9587" x2="5.17015" y2="5.29202" gradientUnits="userSpaceOnUse">
<stop offset="0.275366" stop-color="#0175B2"/>
<stop offset="0.956923" stop-color="#0175B2" stop-opacity="0.3"/>
</linearGradient>
</defs>
</svg>
