<svg width="62" height="62" viewBox="0 0 62 62" fill="none" xmlns="http://www.w3.org/2000/svg">
<path d="M43.9167 51.6665C43.1675 51.6665 42.47 51.5115 41.9533 51.279C40.1192 50.3232 38.8275 49.0057 37.5358 45.1307C36.2183 41.1007 33.7383 39.2149 31.3617 37.3807C29.3208 35.8049 27.2025 34.1774 25.3683 30.8449C23.9992 28.3649 23.25 25.6524 23.25 23.2499C23.25 16.0165 28.9333 10.3332 36.1667 10.3332C42.78 10.3332 48.1275 15.1124 48.9542 21.4674C49.1092 22.5007 50.0133 23.2499 51.0725 23.2499H51.9508C53.2425 23.2499 54.25 22.1132 54.095 20.8215C52.9325 11.8574 45.4925 5.16652 36.1667 5.16652C26.0142 5.16652 18.0833 13.0974 18.0833 23.2499C18.0833 26.5049 19.065 30.0957 20.8475 33.3249C23.1983 37.5874 25.9625 39.7315 28.21 41.4624C30.3025 43.064 31.8008 44.2265 32.6275 46.7582C34.1775 51.4599 36.1667 54.0949 39.68 55.929C40.9975 56.5232 42.4442 56.8332 43.9167 56.8332C48.67 56.8332 52.6742 53.6299 53.8883 49.264C54.25 47.869 53.2425 46.4999 51.7958 46.4999H50.8917C49.91 46.4999 49.135 47.1974 48.7992 48.1274C48.1275 50.1682 46.19 51.6665 43.9167 51.6665ZM18.0058 5.08902C16.895 3.97819 15.1125 4.08152 14.1308 5.26986C10.1525 10.1782 7.75 16.4299 7.75 23.2499C7.75 30.0699 10.1525 36.3215 14.1308 41.204C15.1125 42.3924 16.895 42.4957 17.98 41.4107C18.91 40.4807 18.9875 39.0082 18.1608 38.0007C14.9058 33.9965 12.9167 28.8557 12.9167 23.2499C12.9167 17.644 14.9058 12.5032 18.1867 8.52486C19.0392 7.49152 18.9358 6.01902 18.0058 5.08902ZM29.7083 23.2499C29.7083 26.8149 32.6017 29.7082 36.1667 29.7082C39.7317 29.7082 42.625 26.8149 42.625 23.2499C42.625 19.6849 39.7317 16.7915 36.1667 16.7915C32.6017 16.7915 29.7083 19.6849 29.7083 23.2499Z" fill="url(#paint0_linear_599_67732)"/>
<defs>
<linearGradient id="paint0_linear_599_67732" x1="54.1108" y1="56.9608" x2="1.99742" y2="10.9583" gradientUnits="userSpaceOnUse">
<stop offset="0.275366" stop-color="#0175B2"/>
<stop offset="0.956923" stop-color="#0175B2" stop-opacity="0.3"/>
</linearGradient>
</defs>
</svg>
