<svg width="62" height="62" viewBox="0 0 62 62" fill="none" xmlns="http://www.w3.org/2000/svg">
<path d="M30.9999 11.625C18.0833 11.625 7.05242 19.6592 2.58325 31C7.05242 42.3408 18.0833 50.375 30.9999 50.375C43.9166 50.375 54.9474 42.3408 59.4166 31C54.9474 19.6592 43.9166 11.625 30.9999 11.625ZM30.9999 43.9167C23.8699 43.9167 18.0833 38.13 18.0833 31C18.0833 23.87 23.8699 18.0833 30.9999 18.0833C38.1299 18.0833 43.9166 23.87 43.9166 31C43.9166 38.13 38.1299 43.9167 30.9999 43.9167ZM30.9999 23.25C26.7116 23.25 23.2499 26.7117 23.2499 31C23.2499 35.2883 26.7116 38.75 30.9999 38.75C35.2883 38.75 38.7499 35.2883 38.7499 31C38.7499 26.7117 35.2883 23.25 30.9999 23.25Z" fill="url(#paint0_linear_599_67735)"/>
<defs>
<linearGradient id="paint0_linear_599_67735" x1="59.4166" y1="50.4691" x2="23.3447" y2="-2.43637" gradientUnits="userSpaceOnUse">
<stop offset="0.275366" stop-color="#0175B2"/>
<stop offset="0.956923" stop-color="#0175B2" stop-opacity="0.3"/>
</linearGradient>
</defs>
</svg>
